<?xml version="1.0" encoding="utf-8" standalone="no"?>
<!DOCTYPE svg PUBLIC "-//W3C//DTD SVG 1.1//EN"
  "http://www.w3.org/Graphics/SVG/1.1/DTD/svg11.dtd">
<svg xmlns:xlink="http://www.w3.org/1999/xlink" width="576pt" height="288pt" viewBox="0 0 576 288" xmlns="http://www.w3.org/2000/svg" version="1.1">
 <metadata>
  <rdf:RDF xmlns:dc="http://purl.org/dc/elements/1.1/" xmlns:cc="http://creativecommons.org/ns#" xmlns:rdf="http://www.w3.org/1999/02/22-rdf-syntax-ns#">
   <cc:Work>
    <dc:type rdf:resource="http://purl.org/dc/dcmitype/StillImage"/>
    <dc:date>2025-05-21T13:08:38.742248</dc:date>
    <dc:format>image/svg+xml</dc:format>
    <dc:creator>
     <cc:Agent>
      <dc:title>Matplotlib v3.10.3, https://matplotlib.org/</dc:title>
     </cc:Agent>
    </dc:creator>
   </cc:Work>
  </rdf:RDF>
 </metadata>
 <defs>
  <style type="text/css">*{stroke-linejoin: round; stroke-linecap: butt}</style>
 </defs>
 <g id="figure_1">
  <g id="patch_1">
   <path d="M 0 288 
L 576 288 
L 576 0 
L 0 0 
z
" style="fill: #ffffff"/>
  </g>
  <g id="axes_1">
   <g id="patch_2">
    <path d="M 72 256.32 
L 518.4 256.32 
L 518.4 34.56 
L 72 34.56 
z
" style="fill: #ffffff"/>
   </g>
   <g id="matplotlib.axis_1">
    <g id="xtick_1">
     <g id="line2d_1">
      <path d="M 72 256.32 
L 72 34.56 
" clip-path="url(#p17cde4d5c5)" style="fill: none; stroke-dasharray: 2.59,1.12; stroke-dashoffset: 0; stroke: #cccccc; stroke-opacity: 0.7; stroke-width: 0.7"/>
     </g>
     <g id="line2d_2">
      <defs>
       <path id="m1da2e35f6c" d="M 0 0 
L 0 4.8 
" style="stroke: #262626"/>
      </defs>
      <g>
       <use xlink:href="#m1da2e35f6c" x="72" y="256.32" style="fill: #262626; stroke: #262626"/>
      </g>
     </g>
     <g id="text_1">
      <!-- 5.0 -->
      <g transform="translate(62.458125 273.738125) scale(0.12 -0.12)">
       <defs>
        <path id="DejaVuSans-35" d="M 691 4666 
L 3169 4666 
L 3169 4134 
L 1269 4134 
L 1269 2991 
Q 1406 3038 1543 3061 
Q 1681 3084 1819 3084 
Q 2600 3084 3056 2656 
Q 3513 2228 3513 1497 
Q 3513 744 3044 326 
Q 2575 -91 1722 -91 
Q 1428 -91 1123 -41 
Q 819 9 494 109 
L 494 744 
Q 775 591 1075 516 
Q 1375 441 1709 441 
Q 2250 441 2565 725 
Q 2881 1009 2881 1497 
Q 2881 1984 2565 2268 
Q 2250 2553 1709 2553 
Q 1456 2553 1204 2497 
Q 953 2441 691 2322 
L 691 4666 
z
" transform="scale(0.015625)"/>
        <path id="DejaVuSans-2e" d="M 684 794 
L 1344 794 
L 1344 0 
L 684 0 
L 684 794 
z
" transform="scale(0.015625)"/>
        <path id="DejaVuSans-30" d="M 2034 4250 
Q 1547 4250 1301 3770 
Q 1056 3291 1056 2328 
Q 1056 1369 1301 889 
Q 1547 409 2034 409 
Q 2525 409 2770 889 
Q 3016 1369 3016 2328 
Q 3016 3291 2770 3770 
Q 2525 4250 2034 4250 
z
M 2034 4750 
Q 2819 4750 3233 4129 
Q 3647 3509 3647 2328 
Q 3647 1150 3233 529 
Q 2819 -91 2034 -91 
Q 1250 -91 836 529 
Q 422 1150 422 2328 
Q 422 3509 836 4129 
Q 1250 4750 2034 4750 
z
" transform="scale(0.015625)"/>
       </defs>
       <use xlink:href="#DejaVuSans-35"/>
       <use xlink:href="#DejaVuSans-2e" transform="translate(63.623047 0)"/>
       <use xlink:href="#DejaVuSans-30" transform="translate(95.410156 0)"/>
      </g>
     </g>
    </g>
    <g id="xtick_2">
     <g id="line2d_3">
      <path d="M 161.28 256.32 
L 161.28 34.56 
" clip-path="url(#p17cde4d5c5)" style="fill: none; stroke-dasharray: 2.59,1.12; stroke-dashoffset: 0; stroke: #cccccc; stroke-opacity: 0.7; stroke-width: 0.7"/>
     </g>
     <g id="line2d_4">
      <g>
       <use xlink:href="#m1da2e35f6c" x="161.28" y="256.32" style="fill: #262626; stroke: #262626"/>
      </g>
     </g>
     <g id="text_2">
      <!-- 5.5 -->
      <g transform="translate(151.738125 273.738125) scale(0.12 -0.12)">
       <use xlink:href="#DejaVuSans-35"/>
       <use xlink:href="#DejaVuSans-2e" transform="translate(63.623047 0)"/>
       <use xlink:href="#DejaVuSans-35" transform="translate(95.410156 0)"/>
      </g>
     </g>
    </g>
    <g id="xtick_3">
     <g id="line2d_5">
      <path d="M 250.56 256.32 
L 250.56 34.56 
" clip-path="url(#p17cde4d5c5)" style="fill: none; stroke-dasharray: 2.59,1.12; stroke-dashoffset: 0; stroke: #cccccc; stroke-opacity: 0.7; stroke-width: 0.7"/>
     </g>
     <g id="line2d_6">
      <g>
       <use xlink:href="#m1da2e35f6c" x="250.56" y="256.32" style="fill: #262626; stroke: #262626"/>
      </g>
     </g>
     <g id="text_3">
      <!-- 6.0 -->
      <g transform="translate(241.018125 273.738125) scale(0.12 -0.12)">
       <defs>
        <path id="DejaVuSans-36" d="M 2113 2584 
Q 1688 2584 1439 2293 
Q 1191 2003 1191 1497 
Q 1191 994 1439 701 
Q 1688 409 2113 409 
Q 2538 409 2786 701 
Q 3034 994 3034 1497 
Q 3034 2003 2786 2293 
Q 2538 2584 2113 2584 
z
M 3366 4563 
L 3366 3988 
Q 3128 4100 2886 4159 
Q 2644 4219 2406 4219 
Q 1781 4219 1451 3797 
Q 1122 3375 1075 2522 
Q 1259 2794 1537 2939 
Q 1816 3084 2150 3084 
Q 2853 3084 3261 2657 
Q 3669 2231 3669 1497 
Q 3669 778 3244 343 
Q 2819 -91 2113 -91 
Q 1303 -91 875 529 
Q 447 1150 447 2328 
Q 447 3434 972 4092 
Q 1497 4750 2381 4750 
Q 2619 4750 2861 4703 
Q 3103 4656 3366 4563 
z
" transform="scale(0.015625)"/>
       </defs>
       <use xlink:href="#DejaVuSans-36"/>
       <use xlink:href="#DejaVuSans-2e" transform="translate(63.623047 0)"/>
       <use xlink:href="#DejaVuSans-30" transform="translate(95.410156 0)"/>
      </g>
     </g>
    </g>
    <g id="xtick_4">
     <g id="line2d_7">
      <path d="M 339.84 256.32 
L 339.84 34.56 
" clip-path="url(#p17cde4d5c5)" style="fill: none; stroke-dasharray: 2.59,1.12; stroke-dashoffset: 0; stroke: #cccccc; stroke-opacity: 0.7; stroke-width: 0.7"/>
     </g>
     <g id="line2d_8">
      <g>
       <use xlink:href="#m1da2e35f6c" x="339.84" y="256.32" style="fill: #262626; stroke: #262626"/>
      </g>
     </g>
     <g id="text_4">
      <!-- 6.5 -->
      <g transform="translate(330.298125 273.738125) scale(0.12 -0.12)">
       <use xlink:href="#DejaVuSans-36"/>
       <use xlink:href="#DejaVuSans-2e" transform="translate(63.623047 0)"/>
       <use xlink:href="#DejaVuSans-35" transform="translate(95.410156 0)"/>
      </g>
     </g>
    </g>
    <g id="xtick_5">
     <g id="line2d_9">
      <path d="M 429.12 256.32 
L 429.12 34.56 
" clip-path="url(#p17cde4d5c5)" style="fill: none; stroke-dasharray: 2.59,1.12; stroke-dashoffset: 0; stroke: #cccccc; stroke-opacity: 0.7; stroke-width: 0.7"/>
     </g>
     <g id="line2d_10">
      <g>
       <use xlink:href="#m1da2e35f6c" x="429.12" y="256.32" style="fill: #262626; stroke: #262626"/>
      </g>
     </g>
     <g id="text_5">
      <!-- 7.0 -->
      <g transform="translate(419.578125 273.738125) scale(0.12 -0.12)">
       <defs>
        <path id="DejaVuSans-37" d="M 525 4666 
L 3525 4666 
L 3525 4397 
L 1831 0 
L 1172 0 
L 2766 4134 
L 525 4134 
L 525 4666 
z
" transform="scale(0.015625)"/>
       </defs>
       <use xlink:href="#DejaVuSans-37"/>
       <use xlink:href="#DejaVuSans-2e" transform="translate(63.623047 0)"/>
       <use xlink:href="#DejaVuSans-30" transform="translate(95.410156 0)"/>
      </g>
     </g>
    </g>
    <g id="xtick_6">
     <g id="line2d_11">
      <path d="M 518.4 256.32 
L 518.4 34.56 
" clip-path="url(#p17cde4d5c5)" style="fill: none; stroke-dasharray: 2.59,1.12; stroke-dashoffset: 0; stroke: #cccccc; stroke-opacity: 0.7; stroke-width: 0.7"/>
     </g>
     <g id="line2d_12">
      <g>
       <use xlink:href="#m1da2e35f6c" x="518.4" y="256.32" style="fill: #262626; stroke: #262626"/>
      </g>
     </g>
     <g id="text_6">
      <!-- 7.5 -->
      <g transform="translate(508.858125 273.738125) scale(0.12 -0.12)">
       <use xlink:href="#DejaVuSans-37"/>
       <use xlink:href="#DejaVuSans-2e" transform="translate(63.623047 0)"/>
       <use xlink:href="#DejaVuSans-35" transform="translate(95.410156 0)"/>
      </g>
     </g>
    </g>
    <g id="text_7">
     <!-- Cold Start Latency (ms) -->
     <g transform="translate(224.116875 289.351875) scale(0.12 -0.12)">
      <defs>
       <path id="DejaVuSans-43" d="M 4122 4306 
L 4122 3641 
Q 3803 3938 3442 4084 
Q 3081 4231 2675 4231 
Q 1875 4231 1450 3742 
Q 1025 3253 1025 2328 
Q 1025 1406 1450 917 
Q 1875 428 2675 428 
Q 3081 428 3442 575 
Q 3803 722 4122 1019 
L 4122 359 
Q 3791 134 3420 21 
Q 3050 -91 2638 -91 
Q 1578 -91 968 557 
Q 359 1206 359 2328 
Q 359 3453 968 4101 
Q 1578 4750 2638 4750 
Q 3056 4750 3426 4639 
Q 3797 4528 4122 4306 
z
" transform="scale(0.015625)"/>
       <path id="DejaVuSans-6f" d="M 1959 3097 
Q 1497 3097 1228 2736 
Q 959 2375 959 1747 
Q 959 1119 1226 758 
Q 1494 397 1959 397 
Q 2419 397 2687 759 
Q 2956 1122 2956 1747 
Q 2956 2369 2687 2733 
Q 2419 3097 1959 3097 
z
M 1959 3584 
Q 2709 3584 3137 3096 
Q 3566 2609 3566 1747 
Q 3566 888 3137 398 
Q 2709 -91 1959 -91 
Q 1206 -91 779 398 
Q 353 888 353 1747 
Q 353 2609 779 3096 
Q 1206 3584 1959 3584 
z
" transform="scale(0.015625)"/>
       <path id="DejaVuSans-6c" d="M 603 4863 
L 1178 4863 
L 1178 0 
L 603 0 
L 603 4863 
z
" transform="scale(0.015625)"/>
       <path id="DejaVuSans-64" d="M 2906 2969 
L 2906 4863 
L 3481 4863 
L 3481 0 
L 2906 0 
L 2906 525 
Q 2725 213 2448 61 
Q 2172 -91 1784 -91 
Q 1150 -91 751 415 
Q 353 922 353 1747 
Q 353 2572 751 3078 
Q 1150 3584 1784 3584 
Q 2172 3584 2448 3432 
Q 2725 3281 2906 2969 
z
M 947 1747 
Q 947 1113 1208 752 
Q 1469 391 1925 391 
Q 2381 391 2643 752 
Q 2906 1113 2906 1747 
Q 2906 2381 2643 2742 
Q 2381 3103 1925 3103 
Q 1469 3103 1208 2742 
Q 947 2381 947 1747 
z
" transform="scale(0.015625)"/>
       <path id="DejaVuSans-20" transform="scale(0.015625)"/>
       <path id="DejaVuSans-53" d="M 3425 4513 
L 3425 3897 
Q 3066 4069 2747 4153 
Q 2428 4238 2131 4238 
Q 1616 4238 1336 4038 
Q 1056 3838 1056 3469 
Q 1056 3159 1242 3001 
Q 1428 2844 1947 2747 
L 2328 2669 
Q 3034 2534 3370 2195 
Q 3706 1856 3706 1288 
Q 3706 609 3251 259 
Q 2797 -91 1919 -91 
Q 1588 -91 1214 -16 
Q 841 59 441 206 
L 441 856 
Q 825 641 1194 531 
Q 1563 422 1919 422 
Q 2459 422 2753 634 
Q 3047 847 3047 1241 
Q 3047 1584 2836 1778 
Q 2625 1972 2144 2069 
L 1759 2144 
Q 1053 2284 737 2584 
Q 422 2884 422 3419 
Q 422 4038 858 4394 
Q 1294 4750 2059 4750 
Q 2388 4750 2728 4690 
Q 3069 4631 3425 4513 
z
" transform="scale(0.015625)"/>
       <path id="DejaVuSans-74" d="M 1172 4494 
L 1172 3500 
L 2356 3500 
L 2356 3053 
L 1172 3053 
L 1172 1153 
Q 1172 725 1289 603 
Q 1406 481 1766 481 
L 2356 481 
L 2356 0 
L 1766 0 
Q 1100 0 847 248 
Q 594 497 594 1153 
L 594 3053 
L 172 3053 
L 172 3500 
L 594 3500 
L 594 4494 
L 1172 4494 
z
" transform="scale(0.015625)"/>
       <path id="DejaVuSans-61" d="M 2194 1759 
Q 1497 1759 1228 1600 
Q 959 1441 959 1056 
Q 959 750 1161 570 
Q 1363 391 1709 391 
Q 2188 391 2477 730 
Q 2766 1069 2766 1631 
L 2766 1759 
L 2194 1759 
z
M 3341 1997 
L 3341 0 
L 2766 0 
L 2766 531 
Q 2569 213 2275 61 
Q 1981 -91 1556 -91 
Q 1019 -91 701 211 
Q 384 513 384 1019 
Q 384 1609 779 1909 
Q 1175 2209 1959 2209 
L 2766 2209 
L 2766 2266 
Q 2766 2663 2505 2880 
Q 2244 3097 1772 3097 
Q 1472 3097 1187 3025 
Q 903 2953 641 2809 
L 641 3341 
Q 956 3463 1253 3523 
Q 1550 3584 1831 3584 
Q 2591 3584 2966 3190 
Q 3341 2797 3341 1997 
z
" transform="scale(0.015625)"/>
       <path id="DejaVuSans-72" d="M 2631 2963 
Q 2534 3019 2420 3045 
Q 2306 3072 2169 3072 
Q 1681 3072 1420 2755 
Q 1159 2438 1159 1844 
L 1159 0 
L 581 0 
L 581 3500 
L 1159 3500 
L 1159 2956 
Q 1341 3275 1631 3429 
Q 1922 3584 2338 3584 
Q 2397 3584 2469 3576 
Q 2541 3569 2628 3553 
L 2631 2963 
z
" transform="scale(0.015625)"/>
       <path id="DejaVuSans-4c" d="M 628 4666 
L 1259 4666 
L 1259 531 
L 3531 531 
L 3531 0 
L 628 0 
L 628 4666 
z
" transform="scale(0.015625)"/>
       <path id="DejaVuSans-65" d="M 3597 1894 
L 3597 1613 
L 953 1613 
Q 991 1019 1311 708 
Q 1631 397 2203 397 
Q 2534 397 2845 478 
Q 3156 559 3463 722 
L 3463 178 
Q 3153 47 2828 -22 
Q 2503 -91 2169 -91 
Q 1331 -91 842 396 
Q 353 884 353 1716 
Q 353 2575 817 3079 
Q 1281 3584 2069 3584 
Q 2775 3584 3186 3129 
Q 3597 2675 3597 1894 
z
M 3022 2063 
Q 3016 2534 2758 2815 
Q 2500 3097 2075 3097 
Q 1594 3097 1305 2825 
Q 1016 2553 972 2059 
L 3022 2063 
z
" transform="scale(0.015625)"/>
       <path id="DejaVuSans-6e" d="M 3513 2113 
L 3513 0 
L 2938 0 
L 2938 2094 
Q 2938 2591 2744 2837 
Q 2550 3084 2163 3084 
Q 1697 3084 1428 2787 
Q 1159 2491 1159 1978 
L 1159 0 
L 581 0 
L 581 3500 
L 1159 3500 
L 1159 2956 
Q 1366 3272 1645 3428 
Q 1925 3584 2291 3584 
Q 2894 3584 3203 3211 
Q 3513 2838 3513 2113 
z
" transform="scale(0.015625)"/>
       <path id="DejaVuSans-63" d="M 3122 3366 
L 3122 2828 
Q 2878 2963 2633 3030 
Q 2388 3097 2138 3097 
Q 1578 3097 1268 2742 
Q 959 2388 959 1747 
Q 959 1106 1268 751 
Q 1578 397 2138 397 
Q 2388 397 2633 464 
Q 2878 531 3122 666 
L 3122 134 
Q 2881 22 2623 -34 
Q 2366 -91 2075 -91 
Q 1284 -91 818 406 
Q 353 903 353 1747 
Q 353 2603 823 3093 
Q 1294 3584 2113 3584 
Q 2378 3584 2631 3529 
Q 2884 3475 3122 3366 
z
" transform="scale(0.015625)"/>
       <path id="DejaVuSans-79" d="M 2059 -325 
Q 1816 -950 1584 -1140 
Q 1353 -1331 966 -1331 
L 506 -1331 
L 506 -850 
L 844 -850 
Q 1081 -850 1212 -737 
Q 1344 -625 1503 -206 
L 1606 56 
L 191 3500 
L 800 3500 
L 1894 763 
L 2988 3500 
L 3597 3500 
L 2059 -325 
z
" transform="scale(0.015625)"/>
       <path id="DejaVuSans-28" d="M 1984 4856 
Q 1566 4138 1362 3434 
Q 1159 2731 1159 2009 
Q 1159 1288 1364 580 
Q 1569 -128 1984 -844 
L 1484 -844 
Q 1016 -109 783 600 
Q 550 1309 550 2009 
Q 550 2706 781 3412 
Q 1013 4119 1484 4856 
L 1984 4856 
z
" transform="scale(0.015625)"/>
       <path id="DejaVuSans-6d" d="M 3328 2828 
Q 3544 3216 3844 3400 
Q 4144 3584 4550 3584 
Q 5097 3584 5394 3201 
Q 5691 2819 5691 2113 
L 5691 0 
L 5113 0 
L 5113 2094 
Q 5113 2597 4934 2840 
Q 4756 3084 4391 3084 
Q 3944 3084 3684 2787 
Q 3425 2491 3425 1978 
L 3425 0 
L 2847 0 
L 2847 2094 
Q 2847 2600 2669 2842 
Q 2491 3084 2119 3084 
Q 1678 3084 1418 2786 
Q 1159 2488 1159 1978 
L 1159 0 
L 581 0 
L 581 3500 
L 1159 3500 
L 1159 2956 
Q 1356 3278 1631 3431 
Q 1906 3584 2284 3584 
Q 2666 3584 2933 3390 
Q 3200 3197 3328 2828 
z
" transform="scale(0.015625)"/>
       <path id="DejaVuSans-73" d="M 2834 3397 
L 2834 2853 
Q 2591 2978 2328 3040 
Q 2066 3103 1784 3103 
Q 1356 3103 1142 2972 
Q 928 2841 928 2578 
Q 928 2378 1081 2264 
Q 1234 2150 1697 2047 
L 1894 2003 
Q 2506 1872 2764 1633 
Q 3022 1394 3022 966 
Q 3022 478 2636 193 
Q 2250 -91 1575 -91 
Q 1294 -91 989 -36 
Q 684 19 347 128 
L 347 722 
Q 666 556 975 473 
Q 1284 391 1588 391 
Q 1994 391 2212 530 
Q 2431 669 2431 922 
Q 2431 1156 2273 1281 
Q 2116 1406 1581 1522 
L 1381 1569 
Q 847 1681 609 1914 
Q 372 2147 372 2553 
Q 372 3047 722 3315 
Q 1072 3584 1716 3584 
Q 2034 3584 2315 3537 
Q 2597 3491 2834 3397 
z
" transform="scale(0.015625)"/>
       <path id="DejaVuSans-29" d="M 513 4856 
L 1013 4856 
Q 1481 4119 1714 3412 
Q 1947 2706 1947 2009 
Q 1947 1309 1714 600 
Q 1481 -109 1013 -844 
L 513 -844 
Q 928 -128 1133 580 
Q 1338 1288 1338 2009 
Q 1338 2731 1133 3434 
Q 928 4138 513 4856 
z
" transform="scale(0.015625)"/>
      </defs>
      <use xlink:href="#DejaVuSans-43"/>
      <use xlink:href="#DejaVuSans-6f" transform="translate(69.824219 0)"/>
      <use xlink:href="#DejaVuSans-6c" transform="translate(131.005859 0)"/>
      <use xlink:href="#DejaVuSans-64" transform="translate(158.789062 0)"/>
      <use xlink:href="#DejaVuSans-20" transform="translate(222.265625 0)"/>
      <use xlink:href="#DejaVuSans-53" transform="translate(254.052734 0)"/>
      <use xlink:href="#DejaVuSans-74" transform="translate(317.529297 0)"/>
      <use xlink:href="#DejaVuSans-61" transform="translate(356.738281 0)"/>
      <use xlink:href="#DejaVuSans-72" transform="translate(418.017578 0)"/>
      <use xlink:href="#DejaVuSans-74" transform="translate(459.130859 0)"/>
      <use xlink:href="#DejaVuSans-20" transform="translate(498.339844 0)"/>
      <use xlink:href="#DejaVuSans-4c" transform="translate(530.126953 0)"/>
      <use xlink:href="#DejaVuSans-61" transform="translate(585.839844 0)"/>
      <use xlink:href="#DejaVuSans-74" transform="translate(647.119141 0)"/>
      <use xlink:href="#DejaVuSans-65" transform="translate(686.328125 0)"/>
      <use xlink:href="#DejaVuSans-6e" transform="translate(747.851562 0)"/>
      <use xlink:href="#DejaVuSans-63" transform="translate(811.230469 0)"/>
      <use xlink:href="#DejaVuSans-79" transform="translate(866.210938 0)"/>
      <use xlink:href="#DejaVuSans-20" transform="translate(925.390625 0)"/>
      <use xlink:href="#DejaVuSans-28" transform="translate(957.177734 0)"/>
      <use xlink:href="#DejaVuSans-6d" transform="translate(996.191406 0)"/>
      <use xlink:href="#DejaVuSans-73" transform="translate(1093.603516 0)"/>
      <use xlink:href="#DejaVuSans-29" transform="translate(1145.703125 0)"/>
     </g>
    </g>
   </g>
   <g id="matplotlib.axis_2">
    <g id="ytick_1">
     <g id="line2d_13">
      <path d="M 72 256.32 
L 518.4 256.32 
" clip-path="url(#p17cde4d5c5)" style="fill: none; stroke-dasharray: 2.59,1.12; stroke-dashoffset: 0; stroke: #cccccc; stroke-opacity: 0.7; stroke-width: 0.7"/>
     </g>
     <g id="line2d_14">
      <defs>
       <path id="m4d44db9706" d="M 0 0 
L -4.8 0 
" style="stroke: #262626"/>
      </defs>
      <g>
       <use xlink:href="#m4d44db9706" x="72" y="256.32" style="fill: #262626; stroke: #262626"/>
      </g>
     </g>
     <g id="text_8">
      <!-- 0.0 -->
      <g transform="translate(44.61625 260.879063) scale(0.12 -0.12)">
       <use xlink:href="#DejaVuSans-30"/>
       <use xlink:href="#DejaVuSans-2e" transform="translate(63.623047 0)"/>
       <use xlink:href="#DejaVuSans-30" transform="translate(95.410156 0)"/>
      </g>
     </g>
    </g>
    <g id="ytick_2">
     <g id="line2d_15">
      <path d="M 72 219.36 
L 518.4 219.36 
" clip-path="url(#p17cde4d5c5)" style="fill: none; stroke-dasharray: 2.59,1.12; stroke-dashoffset: 0; stroke: #cccccc; stroke-opacity: 0.7; stroke-width: 0.7"/>
     </g>
     <g id="line2d_16">
      <g>
       <use xlink:href="#m4d44db9706" x="72" y="219.36" style="fill: #262626; stroke: #262626"/>
      </g>
     </g>
     <g id="text_9">
      <!-- 0.2 -->
      <g transform="translate(44.61625 223.919062) scale(0.12 -0.12)">
       <defs>
        <path id="DejaVuSans-32" d="M 1228 531 
L 3431 531 
L 3431 0 
L 469 0 
L 469 531 
Q 828 903 1448 1529 
Q 2069 2156 2228 2338 
Q 2531 2678 2651 2914 
Q 2772 3150 2772 3378 
Q 2772 3750 2511 3984 
Q 2250 4219 1831 4219 
Q 1534 4219 1204 4116 
Q 875 4013 500 3803 
L 500 4441 
Q 881 4594 1212 4672 
Q 1544 4750 1819 4750 
Q 2544 4750 2975 4387 
Q 3406 4025 3406 3419 
Q 3406 3131 3298 2873 
Q 3191 2616 2906 2266 
Q 2828 2175 2409 1742 
Q 1991 1309 1228 531 
z
" transform="scale(0.015625)"/>
       </defs>
       <use xlink:href="#DejaVuSans-30"/>
       <use xlink:href="#DejaVuSans-2e" transform="translate(63.623047 0)"/>
       <use xlink:href="#DejaVuSans-32" transform="translate(95.410156 0)"/>
      </g>
     </g>
    </g>
    <g id="ytick_3">
     <g id="line2d_17">
      <path d="M 72 182.4 
L 518.4 182.4 
" clip-path="url(#p17cde4d5c5)" style="fill: none; stroke-dasharray: 2.59,1.12; stroke-dashoffset: 0; stroke: #cccccc; stroke-opacity: 0.7; stroke-width: 0.7"/>
     </g>
     <g id="line2d_18">
      <g>
       <use xlink:href="#m4d44db9706" x="72" y="182.4" style="fill: #262626; stroke: #262626"/>
      </g>
     </g>
     <g id="text_10">
      <!-- 0.4 -->
      <g transform="translate(44.61625 186.959063) scale(0.12 -0.12)">
       <defs>
        <path id="DejaVuSans-34" d="M 2419 4116 
L 825 1625 
L 2419 1625 
L 2419 4116 
z
M 2253 4666 
L 3047 4666 
L 3047 1625 
L 3713 1625 
L 3713 1100 
L 3047 1100 
L 3047 0 
L 2419 0 
L 2419 1100 
L 313 1100 
L 313 1709 
L 2253 4666 
z
" transform="scale(0.015625)"/>
       </defs>
       <use xlink:href="#DejaVuSans-30"/>
       <use xlink:href="#DejaVuSans-2e" transform="translate(63.623047 0)"/>
       <use xlink:href="#DejaVuSans-34" transform="translate(95.410156 0)"/>
      </g>
     </g>
    </g>
    <g id="ytick_4">
     <g id="line2d_19">
      <path d="M 72 145.44 
L 518.4 145.44 
" clip-path="url(#p17cde4d5c5)" style="fill: none; stroke-dasharray: 2.59,1.12; stroke-dashoffset: 0; stroke: #cccccc; stroke-opacity: 0.7; stroke-width: 0.7"/>
     </g>
     <g id="line2d_20">
      <g>
       <use xlink:href="#m4d44db9706" x="72" y="145.44" style="fill: #262626; stroke: #262626"/>
      </g>
     </g>
     <g id="text_11">
      <!-- 0.6 -->
      <g transform="translate(44.61625 149.999062) scale(0.12 -0.12)">
       <use xlink:href="#DejaVuSans-30"/>
       <use xlink:href="#DejaVuSans-2e" transform="translate(63.623047 0)"/>
       <use xlink:href="#DejaVuSans-36" transform="translate(95.410156 0)"/>
      </g>
     </g>
    </g>
    <g id="ytick_5">
     <g id="line2d_21">
      <path d="M 72 108.48 
L 518.4 108.48 
" clip-path="url(#p17cde4d5c5)" style="fill: none; stroke-dasharray: 2.59,1.12; stroke-dashoffset: 0; stroke: #cccccc; stroke-opacity: 0.7; stroke-width: 0.7"/>
     </g>
     <g id="line2d_22">
      <g>
       <use xlink:href="#m4d44db9706" x="72" y="108.48" style="fill: #262626; stroke: #262626"/>
      </g>
     </g>
     <g id="text_12">
      <!-- 0.8 -->
      <g transform="translate(44.61625 113.039062) scale(0.12 -0.12)">
       <defs>
        <path id="DejaVuSans-38" d="M 2034 2216 
Q 1584 2216 1326 1975 
Q 1069 1734 1069 1313 
Q 1069 891 1326 650 
Q 1584 409 2034 409 
Q 2484 409 2743 651 
Q 3003 894 3003 1313 
Q 3003 1734 2745 1975 
Q 2488 2216 2034 2216 
z
M 1403 2484 
Q 997 2584 770 2862 
Q 544 3141 544 3541 
Q 544 4100 942 4425 
Q 1341 4750 2034 4750 
Q 2731 4750 3128 4425 
Q 3525 4100 3525 3541 
Q 3525 3141 3298 2862 
Q 3072 2584 2669 2484 
Q 3125 2378 3379 2068 
Q 3634 1759 3634 1313 
Q 3634 634 3220 271 
Q 2806 -91 2034 -91 
Q 1263 -91 848 271 
Q 434 634 434 1313 
Q 434 1759 690 2068 
Q 947 2378 1403 2484 
z
M 1172 3481 
Q 1172 3119 1398 2916 
Q 1625 2713 2034 2713 
Q 2441 2713 2670 2916 
Q 2900 3119 2900 3481 
Q 2900 3844 2670 4047 
Q 2441 4250 2034 4250 
Q 1625 4250 1398 4047 
Q 1172 3844 1172 3481 
z
" transform="scale(0.015625)"/>
       </defs>
       <use xlink:href="#DejaVuSans-30"/>
       <use xlink:href="#DejaVuSans-2e" transform="translate(63.623047 0)"/>
       <use xlink:href="#DejaVuSans-38" transform="translate(95.410156 0)"/>
      </g>
     </g>
    </g>
    <g id="ytick_6">
     <g id="line2d_23">
      <path d="M 72 71.52 
L 518.4 71.52 
" clip-path="url(#p17cde4d5c5)" style="fill: none; stroke-dasharray: 2.59,1.12; stroke-dashoffset: 0; stroke: #cccccc; stroke-opacity: 0.7; stroke-width: 0.7"/>
     </g>
     <g id="line2d_24">
      <g>
       <use xlink:href="#m4d44db9706" x="72" y="71.52" style="fill: #262626; stroke: #262626"/>
      </g>
     </g>
     <g id="text_13">
      <!-- 1.0 -->
      <g transform="translate(44.61625 76.079062) scale(0.12 -0.12)">
       <defs>
        <path id="DejaVuSans-31" d="M 794 531 
L 1825 531 
L 1825 4091 
L 703 3866 
L 703 4441 
L 1819 4666 
L 2450 4666 
L 2450 531 
L 3481 531 
L 3481 0 
L 794 0 
L 794 531 
z
" transform="scale(0.015625)"/>
       </defs>
       <use xlink:href="#DejaVuSans-31"/>
       <use xlink:href="#DejaVuSans-2e" transform="translate(63.623047 0)"/>
       <use xlink:href="#DejaVuSans-30" transform="translate(95.410156 0)"/>
      </g>
     </g>
    </g>
    <g id="ytick_7">
     <g id="line2d_25">
      <path d="M 72 34.56 
L 518.4 34.56 
" clip-path="url(#p17cde4d5c5)" style="fill: none; stroke-dasharray: 2.59,1.12; stroke-dashoffset: 0; stroke: #cccccc; stroke-opacity: 0.7; stroke-width: 0.7"/>
     </g>
     <g id="line2d_26">
      <g>
       <use xlink:href="#m4d44db9706" x="72" y="34.56" style="fill: #262626; stroke: #262626"/>
      </g>
     </g>
     <g id="text_14">
      <!-- 1.2 -->
      <g transform="translate(44.61625 39.119062) scale(0.12 -0.12)">
       <use xlink:href="#DejaVuSans-31"/>
       <use xlink:href="#DejaVuSans-2e" transform="translate(63.623047 0)"/>
       <use xlink:href="#DejaVuSans-32" transform="translate(95.410156 0)"/>
      </g>
     </g>
    </g>
    <g id="text_15">
     <!-- Densisty -->
     <g transform="translate(26.120625 171.375937) rotate(-90) scale(0.12 -0.12)">
      <defs>
       <path id="DejaVuSans-44" d="M 1259 4147 
L 1259 519 
L 2022 519 
Q 2988 519 3436 956 
Q 3884 1394 3884 2338 
Q 3884 3275 3436 3711 
Q 2988 4147 2022 4147 
L 1259 4147 
z
M 628 4666 
L 1925 4666 
Q 3281 4666 3915 4102 
Q 4550 3538 4550 2338 
Q 4550 1131 3912 565 
Q 3275 0 1925 0 
L 628 0 
L 628 4666 
z
" transform="scale(0.015625)"/>
       <path id="DejaVuSans-69" d="M 603 3500 
L 1178 3500 
L 1178 0 
L 603 0 
L 603 3500 
z
M 603 4863 
L 1178 4863 
L 1178 4134 
L 603 4134 
L 603 4863 
z
" transform="scale(0.015625)"/>
      </defs>
      <use xlink:href="#DejaVuSans-44"/>
      <use xlink:href="#DejaVuSans-65" transform="translate(77.001953 0)"/>
      <use xlink:href="#DejaVuSans-6e" transform="translate(138.525391 0)"/>
      <use xlink:href="#DejaVuSans-73" transform="translate(201.904297 0)"/>
      <use xlink:href="#DejaVuSans-69" transform="translate(254.003906 0)"/>
      <use xlink:href="#DejaVuSans-73" transform="translate(281.787109 0)"/>
      <use xlink:href="#DejaVuSans-74" transform="translate(333.886719 0)"/>
      <use xlink:href="#DejaVuSans-79" transform="translate(373.095703 0)"/>
     </g>
    </g>
   </g>
   <g id="FillBetweenPolyCollection_1">
    <defs>
     <path id="m02878ba223" d="M 30.482992 -31.688193 
L 30.482992 -31.68 
L 33.18578 -31.68 
L 35.888568 -31.68 
L 38.591357 -31.68 
L 41.294145 -31.68 
L 43.996934 -31.68 
L 46.699722 -31.68 
L 49.402511 -31.68 
L 52.105299 -31.68 
L 54.808088 -31.68 
L 57.510876 -31.68 
L 60.213665 -31.68 
L 62.916453 -31.68 
L 65.619242 -31.68 
L 68.32203 -31.68 
L 71.024819 -31.68 
L 73.727607 -31.68 
L 76.430396 -31.68 
L 79.133184 -31.68 
L 81.835973 -31.68 
L 84.538761 -31.68 
L 87.24155 -31.68 
L 89.944338 -31.68 
L 92.647126 -31.68 
L 95.349915 -31.68 
L 98.052703 -31.68 
L 100.755492 -31.68 
L 103.45828 -31.68 
L 106.161069 -31.68 
L 108.863857 -31.68 
L 111.566646 -31.68 
L 114.269434 -31.68 
L 116.972223 -31.68 
L 119.675011 -31.68 
L 122.3778 -31.68 
L 125.080588 -31.68 
L 127.783377 -31.68 
L 130.486165 -31.68 
L 133.188954 -31.68 
L 135.891742 -31.68 
L 138.594531 -31.68 
L 141.297319 -31.68 
L 144.000107 -31.68 
L 146.702896 -31.68 
L 149.405684 -31.68 
L 152.108473 -31.68 
L 154.811261 -31.68 
L 157.51405 -31.68 
L 160.216838 -31.68 
L 162.919627 -31.68 
L 165.622415 -31.68 
L 168.325204 -31.68 
L 171.027992 -31.68 
L 173.730781 -31.68 
L 176.433569 -31.68 
L 179.136358 -31.68 
L 181.839146 -31.68 
L 184.541935 -31.68 
L 187.244723 -31.68 
L 189.947512 -31.68 
L 192.6503 -31.68 
L 195.353089 -31.68 
L 198.055877 -31.68 
L 200.758665 -31.68 
L 203.461454 -31.68 
L 206.164242 -31.68 
L 208.867031 -31.68 
L 211.569819 -31.68 
L 214.272608 -31.68 
L 216.975396 -31.68 
L 219.678185 -31.68 
L 222.380973 -31.68 
L 225.083762 -31.68 
L 227.78655 -31.68 
L 230.489339 -31.68 
L 233.192127 -31.68 
L 235.894916 -31.68 
L 238.597704 -31.68 
L 241.300493 -31.68 
L 244.003281 -31.68 
L 246.70607 -31.68 
L 249.408858 -31.68 
L 252.111646 -31.68 
L 254.814435 -31.68 
L 257.517223 -31.68 
L 260.220012 -31.68 
L 262.9228 -31.68 
L 265.625589 -31.68 
L 268.328377 -31.68 
L 271.031166 -31.68 
L 273.733954 -31.68 
L 276.436743 -31.68 
L 279.139531 -31.68 
L 281.84232 -31.68 
L 284.545108 -31.68 
L 287.247897 -31.68 
L 289.950685 -31.68 
L 292.653474 -31.68 
L 295.356262 -31.68 
L 298.059051 -31.68 
L 300.761839 -31.68 
L 303.464628 -31.68 
L 306.167416 -31.68 
L 308.870204 -31.68 
L 311.572993 -31.68 
L 314.275781 -31.68 
L 316.97857 -31.68 
L 319.681358 -31.68 
L 322.384147 -31.68 
L 325.086935 -31.68 
L 327.789724 -31.68 
L 330.492512 -31.68 
L 333.195301 -31.68 
L 335.898089 -31.68 
L 338.600878 -31.68 
L 341.303666 -31.68 
L 344.006455 -31.68 
L 346.709243 -31.68 
L 349.412032 -31.68 
L 352.11482 -31.68 
L 354.817609 -31.68 
L 357.520397 -31.68 
L 360.223185 -31.68 
L 362.925974 -31.68 
L 365.628762 -31.68 
L 368.331551 -31.68 
L 371.034339 -31.68 
L 373.737128 -31.68 
L 376.439916 -31.68 
L 379.142705 -31.68 
L 381.845493 -31.68 
L 384.548282 -31.68 
L 387.25107 -31.68 
L 389.953859 -31.68 
L 392.656647 -31.68 
L 395.359436 -31.68 
L 398.062224 -31.68 
L 400.765013 -31.68 
L 403.467801 -31.68 
L 406.17059 -31.68 
L 408.873378 -31.68 
L 411.576167 -31.68 
L 414.278955 -31.68 
L 416.981743 -31.68 
L 419.684532 -31.68 
L 422.38732 -31.68 
L 425.090109 -31.68 
L 427.792897 -31.68 
L 430.495686 -31.68 
L 433.198474 -31.68 
L 435.901263 -31.68 
L 438.604051 -31.68 
L 441.30684 -31.68 
L 444.009628 -31.68 
L 446.712417 -31.68 
L 449.415205 -31.68 
L 452.117994 -31.68 
L 454.820782 -31.68 
L 457.523571 -31.68 
L 460.226359 -31.68 
L 462.929148 -31.68 
L 465.631936 -31.68 
L 468.334724 -31.68 
L 471.037513 -31.68 
L 473.740301 -31.68 
L 476.44309 -31.68 
L 479.145878 -31.68 
L 481.848667 -31.68 
L 484.551455 -31.68 
L 487.254244 -31.68 
L 489.957032 -31.68 
L 492.659821 -31.68 
L 495.362609 -31.68 
L 498.065398 -31.68 
L 500.768186 -31.68 
L 503.470975 -31.68 
L 506.173763 -31.68 
L 508.876552 -31.68 
L 511.57934 -31.68 
L 514.282129 -31.68 
L 516.984917 -31.68 
L 519.687706 -31.68 
L 522.390494 -31.68 
L 525.093282 -31.68 
L 527.796071 -31.68 
L 530.498859 -31.68 
L 533.201648 -31.68 
L 535.904436 -31.68 
L 538.607225 -31.68 
L 541.310013 -31.68 
L 544.012802 -31.68 
L 546.71559 -31.68 
L 549.418379 -31.68 
L 552.121167 -31.68 
L 554.823956 -31.68 
L 557.526744 -31.68 
L 560.229533 -31.68 
L 562.932321 -31.68 
L 565.63511 -31.68 
L 568.337898 -31.68 
L 568.337898 -31.691876 
L 568.337898 -31.691876 
L 565.63511 -31.698592 
L 562.932321 -31.708507 
L 560.229533 -31.722815 
L 557.526744 -31.742999 
L 554.823956 -31.770826 
L 552.121167 -31.808321 
L 549.418379 -31.857701 
L 546.71559 -31.921256 
L 544.012802 -32.001202 
L 541.310013 -32.099488 
L 538.607225 -32.217594 
L 535.904436 -32.356329 
L 533.201648 -32.515662 
L 530.498859 -32.694614 
L 527.796071 -32.891237 
L 525.093282 -33.102688 
L 522.390494 -33.325392 
L 519.687706 -33.555297 
L 516.984917 -33.788171 
L 514.282129 -34.019905 
L 511.57934 -34.246799 
L 508.876552 -34.465769 
L 506.173763 -34.674479 
L 503.470975 -34.871384 
L 500.768186 -35.055708 
L 498.065398 -35.227386 
L 495.362609 -35.387026 
L 492.659821 -35.535909 
L 489.957032 -35.67609 
L 487.254244 -35.810574 
L 484.551455 -35.943585 
L 481.848667 -36.080848 
L 479.145878 -36.229854 
L 476.44309 -36.399988 
L 473.740301 -36.602482 
L 471.037513 -36.850087 
L 468.334724 -37.156476 
L 465.631936 -37.535357 
L 462.929148 -37.999403 
L 460.226359 -38.559094 
L 457.523571 -39.22165 
L 454.820782 -39.990222 
L 452.117994 -40.863506 
L 449.415205 -41.835879 
L 446.712417 -42.8981 
L 444.009628 -44.038508 
L 441.30684 -45.244555 
L 438.604051 -46.504458 
L 435.901263 -47.808694 
L 433.198474 -49.151086 
L 430.495686 -50.529302 
L 427.792897 -51.94466 
L 425.090109 -53.401279 
L 422.38732 -54.904724 
L 419.684532 -56.460378 
L 416.981743 -58.07183 
L 414.278955 -59.739537 
L 411.576167 -61.459984 
L 408.873378 -63.225429 
L 406.17059 -65.024247 
L 403.467801 -66.841758 
L 400.765013 -68.661374 
L 398.062224 -70.46586 
L 395.359436 -72.238558 
L 392.656647 -73.964442 
L 389.953859 -75.630956 
L 387.25107 -77.228672 
L 384.548282 -78.75181 
L 381.845493 -80.198685 
L 379.142705 -81.572124 
L 376.439916 -82.87983 
L 373.737128 -84.134621 
L 371.034339 -85.354442 
L 368.331551 -86.56201 
L 365.628762 -87.784019 
L 362.925974 -89.049857 
L 360.223185 -90.389894 
L 357.520397 -91.833486 
L 354.817609 -93.406904 
L 352.11482 -95.131446 
L 349.412032 -97.021969 
L 346.709243 -99.086026 
L 344.006455 -101.323713 
L 341.303666 -103.728222 
L 338.600878 -106.286998 
L 335.898089 -108.983327 
L 333.195301 -111.798143 
L 330.492512 -114.711834 
L 327.789724 -117.705877 
L 325.086935 -120.764154 
L 322.384147 -123.873895 
L 319.681358 -127.026231 
L 316.97857 -130.216376 
L 314.275781 -133.443504 
L 311.572993 -136.71038 
L 308.870204 -140.022814 
L 306.167416 -143.388986 
L 303.464628 -146.818691 
L 300.761839 -150.322516 
L 298.059051 -153.910979 
L 295.356262 -157.593622 
L 292.653474 -161.37807 
L 289.950685 -165.269073 
L 287.247897 -169.267572 
L 284.545108 -173.369842 
L 281.84232 -177.566807 
L 279.139531 -181.843598 
L 276.436743 -186.179462 
L 273.733954 -190.548043 
L 271.031166 -194.918052 
L 268.328377 -199.254247 
L 265.625589 -203.51858 
L 262.9228 -207.671335 
L 260.220012 -211.672049 
L 257.517223 -215.480036 
L 254.814435 -219.0544 
L 252.111646 -222.353523 
L 249.408858 -225.334158 
L 246.70607 -227.950366 
L 244.003281 -230.152649 
L 241.300493 -231.887673 
L 238.597704 -233.098952 
L 235.894916 -233.728753 
L 233.192127 -233.721276 
L 230.489339 -233.026941 
L 227.78655 -231.607343 
L 225.083762 -229.440219 
L 222.380973 -226.523692 
L 219.678185 -222.879027 
L 216.975396 -218.551342 
L 214.272608 -213.607992 
L 211.569819 -208.134721 
L 208.867031 -202.23006 
L 206.164242 -195.998723 
L 203.461454 -189.544964 
L 200.758665 -182.966783 
L 198.055877 -176.351749 
L 195.353089 -169.77482 
L 192.6503 -163.298239 
L 189.947512 -156.973133 
L 187.244723 -150.842246 
L 184.541935 -144.943015 
L 181.839146 -139.31026 
L 179.136358 -133.97786 
L 176.433569 -128.979034 
L 173.730781 -124.345126 
L 171.027992 -120.10305 
L 168.325204 -116.271799 
L 165.622415 -112.858567 
L 162.919627 -109.855104 
L 160.216838 -107.234928 
L 157.51405 -104.951939 
L 154.811261 -102.94083 
L 152.108473 -101.119504 
L 149.405684 -99.39348 
L 146.702896 -97.662001 
L 144.000107 -95.825363 
L 141.297319 -93.792754 
L 138.594531 -91.489779 
L 135.891742 -88.864849 
L 133.188954 -85.89366 
L 130.486165 -82.581239 
L 127.783377 -78.961281 
L 125.080588 -75.09286 
L 122.3778 -71.054904 
L 119.675011 -66.939098 
L 116.972223 -62.842045 
L 114.269434 -58.857561 
L 111.566646 -55.069882 
L 108.863857 -51.548415 
L 106.161069 -48.344382 
L 103.45828 -45.489461 
L 100.755492 -42.996286 
L 98.052703 -40.860457 
L 95.349915 -39.063623 
L 92.647126 -37.577131 
L 89.944338 -36.365803 
L 87.24155 -35.391438 
L 84.538761 -34.61578 
L 81.835973 -34.002794 
L 79.133184 -33.520208 
L 76.430396 -33.140352 
L 73.727607 -32.840409 
L 71.024819 -32.602211 
L 68.32203 -32.411731 
L 65.619242 -32.258404 
L 62.916453 -32.134406 
L 60.213665 -32.033971 
L 57.510876 -31.9528 
L 54.808088 -31.887594 
L 52.105299 -31.835719 
L 49.402511 -31.794974 
L 46.699722 -31.763461 
L 43.996934 -31.739507 
L 41.294145 -31.721641 
L 38.591357 -31.708581 
L 35.888568 -31.699232 
L 33.18578 -31.692682 
L 30.482992 -31.688193 
z
" style="stroke: #e07eee; stroke-width: 0.8"/>
    </defs>
    <g clip-path="url(#p17cde4d5c5)">
     <use xlink:href="#m02878ba223" x="0" y="288" style="fill: #e07eee; fill-opacity: 0.25; stroke: #e07eee; stroke-width: 0.8"/>
    </g>
   </g>
   <g id="FillBetweenPolyCollection_2">
    <path d="M 252.710934 256.32 
L 243.918461 256.32 
L 243.918461 -852.48 
L 252.710934 -852.48 
L 252.710934 -852.48 
L 252.710934 256.32 
z
" clip-path="url(#p17cde4d5c5)" style="fill: #ffa500; fill-opacity: 0.3; stroke: #ffa500; stroke-opacity: 0.3; stroke-width: 0.8"/>
   </g>
   <g id="line2d_27">
    <path d="M 257.407011 256.32 
L 257.407011 34.56 
" clip-path="url(#p17cde4d5c5)" style="fill: none; stroke-dasharray: 4.44,1.92; stroke-dashoffset: 0; stroke: #ff0000; stroke-width: 1.2"/>
   </g>
   <g id="line2d_28">
    <path d="M 248.05891 256.32 
L 248.05891 34.56 
" clip-path="url(#p17cde4d5c5)" style="fill: none; stroke-dasharray: 7.68,1.92,1.2,1.92; stroke-dashoffset: 0; stroke: #008000; stroke-width: 1.2"/>
   </g>
   <g id="patch_3">
    <path d="M 72 256.32 
L 72 34.56 
" style="fill: none; stroke: #262626; stroke-linejoin: miter; stroke-linecap: square"/>
   </g>
   <g id="patch_4">
    <path d="M 518.4 256.32 
L 518.4 34.56 
" style="fill: none; stroke: #262626; stroke-linejoin: miter; stroke-linecap: square"/>
   </g>
   <g id="patch_5">
    <path d="M 72 256.32 
L 518.4 256.32 
" style="fill: none; stroke: #262626; stroke-linejoin: miter; stroke-linecap: square"/>
   </g>
   <g id="patch_6">
    <path d="M 72 34.56 
L 518.4 34.56 
" style="fill: none; stroke: #262626; stroke-linejoin: miter; stroke-linecap: square"/>
   </g>
   <g id="text_16">
    <!-- Mean: 6.038 -->
    <g style="fill: #ff0000" transform="translate(275.263011 59.771312) scale(0.11 -0.11)">
     <defs>
      <path id="DejaVuSans-4d" d="M 628 4666 
L 1569 4666 
L 2759 1491 
L 3956 4666 
L 4897 4666 
L 4897 0 
L 4281 0 
L 4281 4097 
L 3078 897 
L 2444 897 
L 1241 4097 
L 1241 0 
L 628 0 
L 628 4666 
z
" transform="scale(0.015625)"/>
      <path id="DejaVuSans-3a" d="M 750 794 
L 1409 794 
L 1409 0 
L 750 0 
L 750 794 
z
M 750 3309 
L 1409 3309 
L 1409 2516 
L 750 2516 
L 750 3309 
z
" transform="scale(0.015625)"/>
      <path id="DejaVuSans-33" d="M 2597 2516 
Q 3050 2419 3304 2112 
Q 3559 1806 3559 1356 
Q 3559 666 3084 287 
Q 2609 -91 1734 -91 
Q 1441 -91 1130 -33 
Q 819 25 488 141 
L 488 750 
Q 750 597 1062 519 
Q 1375 441 1716 441 
Q 2309 441 2620 675 
Q 2931 909 2931 1356 
Q 2931 1769 2642 2001 
Q 2353 2234 1838 2234 
L 1294 2234 
L 1294 2753 
L 1863 2753 
Q 2328 2753 2575 2939 
Q 2822 3125 2822 3475 
Q 2822 3834 2567 4026 
Q 2313 4219 1838 4219 
Q 1578 4219 1281 4162 
Q 984 4106 628 3988 
L 628 4550 
Q 988 4650 1302 4700 
Q 1616 4750 1894 4750 
Q 2613 4750 3031 4423 
Q 3450 4097 3450 3541 
Q 3450 3153 3228 2886 
Q 3006 2619 2597 2516 
z
" transform="scale(0.015625)"/>
     </defs>
     <use xlink:href="#DejaVuSans-4d"/>
     <use xlink:href="#DejaVuSans-65" transform="translate(86.279297 0)"/>
     <use xlink:href="#DejaVuSans-61" transform="translate(147.802734 0)"/>
     <use xlink:href="#DejaVuSans-6e" transform="translate(209.082031 0)"/>
     <use xlink:href="#DejaVuSans-3a" transform="translate(272.460938 0)"/>
     <use xlink:href="#DejaVuSans-20" transform="translate(306.152344 0)"/>
     <use xlink:href="#DejaVuSans-36" transform="translate(337.939453 0)"/>
     <use xlink:href="#DejaVuSans-2e" transform="translate(401.5625 0)"/>
     <use xlink:href="#DejaVuSans-30" transform="translate(433.349609 0)"/>
     <use xlink:href="#DejaVuSans-33" transform="translate(496.972656 0)"/>
     <use xlink:href="#DejaVuSans-38" transform="translate(560.595703 0)"/>
    </g>
   </g>
   <g id="text_17">
    <!-- Median: 5.99 -->
    <g style="fill: #008000" transform="translate(158.638644 49.792113) scale(0.11 -0.11)">
     <defs>
      <path id="DejaVuSans-39" d="M 703 97 
L 703 672 
Q 941 559 1184 500 
Q 1428 441 1663 441 
Q 2288 441 2617 861 
Q 2947 1281 2994 2138 
Q 2813 1869 2534 1725 
Q 2256 1581 1919 1581 
Q 1219 1581 811 2004 
Q 403 2428 403 3163 
Q 403 3881 828 4315 
Q 1253 4750 1959 4750 
Q 2769 4750 3195 4129 
Q 3622 3509 3622 2328 
Q 3622 1225 3098 567 
Q 2575 -91 1691 -91 
Q 1453 -91 1209 -44 
Q 966 3 703 97 
z
M 1959 2075 
Q 2384 2075 2632 2365 
Q 2881 2656 2881 3163 
Q 2881 3666 2632 3958 
Q 2384 4250 1959 4250 
Q 1534 4250 1286 3958 
Q 1038 3666 1038 3163 
Q 1038 2656 1286 2365 
Q 1534 2075 1959 2075 
z
" transform="scale(0.015625)"/>
     </defs>
     <use xlink:href="#DejaVuSans-4d"/>
     <use xlink:href="#DejaVuSans-65" transform="translate(86.279297 0)"/>
     <use xlink:href="#DejaVuSans-64" transform="translate(147.802734 0)"/>
     <use xlink:href="#DejaVuSans-69" transform="translate(211.279297 0)"/>
     <use xlink:href="#DejaVuSans-61" transform="translate(239.0625 0)"/>
     <use xlink:href="#DejaVuSans-6e" transform="translate(300.341797 0)"/>
     <use xlink:href="#DejaVuSans-3a" transform="translate(363.720703 0)"/>
     <use xlink:href="#DejaVuSans-20" transform="translate(397.412109 0)"/>
     <use xlink:href="#DejaVuSans-35" transform="translate(429.199219 0)"/>
     <use xlink:href="#DejaVuSans-2e" transform="translate(492.822266 0)"/>
     <use xlink:href="#DejaVuSans-39" transform="translate(524.609375 0)"/>
     <use xlink:href="#DejaVuSans-39" transform="translate(588.232422 0)"/>
    </g>
   </g>
   <g id="text_18">
    <!-- 95% CI: -->
    <g style="fill: #ffa500" transform="translate(113.207562 142.316516) scale(0.11 -0.11)">
     <defs>
      <path id="DejaVuSans-25" d="M 4653 2053 
Q 4381 2053 4226 1822 
Q 4072 1591 4072 1178 
Q 4072 772 4226 539 
Q 4381 306 4653 306 
Q 4919 306 5073 539 
Q 5228 772 5228 1178 
Q 5228 1588 5073 1820 
Q 4919 2053 4653 2053 
z
M 4653 2450 
Q 5147 2450 5437 2106 
Q 5728 1763 5728 1178 
Q 5728 594 5436 251 
Q 5144 -91 4653 -91 
Q 4153 -91 3862 251 
Q 3572 594 3572 1178 
Q 3572 1766 3864 2108 
Q 4156 2450 4653 2450 
z
M 1428 4353 
Q 1159 4353 1004 4120 
Q 850 3888 850 3481 
Q 850 3069 1003 2837 
Q 1156 2606 1428 2606 
Q 1700 2606 1854 2837 
Q 2009 3069 2009 3481 
Q 2009 3884 1853 4118 
Q 1697 4353 1428 4353 
z
M 4250 4750 
L 4750 4750 
L 1831 -91 
L 1331 -91 
L 4250 4750 
z
M 1428 4750 
Q 1922 4750 2215 4408 
Q 2509 4066 2509 3481 
Q 2509 2891 2217 2550 
Q 1925 2209 1428 2209 
Q 931 2209 642 2551 
Q 353 2894 353 3481 
Q 353 4063 643 4406 
Q 934 4750 1428 4750 
z
" transform="scale(0.015625)"/>
      <path id="DejaVuSans-49" d="M 628 4666 
L 1259 4666 
L 1259 0 
L 628 0 
L 628 4666 
z
" transform="scale(0.015625)"/>
     </defs>
     <use xlink:href="#DejaVuSans-39"/>
     <use xlink:href="#DejaVuSans-35" transform="translate(63.623047 0)"/>
     <use xlink:href="#DejaVuSans-25" transform="translate(127.246094 0)"/>
     <use xlink:href="#DejaVuSans-20" transform="translate(222.265625 0)"/>
     <use xlink:href="#DejaVuSans-43" transform="translate(254.052734 0)"/>
     <use xlink:href="#DejaVuSans-49" transform="translate(323.876953 0)"/>
     <use xlink:href="#DejaVuSans-3a" transform="translate(353.369141 0)"/>
    </g>
    <!-- [5.96, 6.01] -->
    <g style="fill: #ffa500" transform="translate(102.216156 154.634109) scale(0.11 -0.11)">
     <defs>
      <path id="DejaVuSans-5b" d="M 550 4863 
L 1875 4863 
L 1875 4416 
L 1125 4416 
L 1125 -397 
L 1875 -397 
L 1875 -844 
L 550 -844 
L 550 4863 
z
" transform="scale(0.015625)"/>
      <path id="DejaVuSans-2c" d="M 750 794 
L 1409 794 
L 1409 256 
L 897 -744 
L 494 -744 
L 750 256 
L 750 794 
z
" transform="scale(0.015625)"/>
      <path id="DejaVuSans-5d" d="M 1947 4863 
L 1947 -844 
L 622 -844 
L 622 -397 
L 1369 -397 
L 1369 4416 
L 622 4416 
L 622 4863 
L 1947 4863 
z
" transform="scale(0.015625)"/>
     </defs>
     <use xlink:href="#DejaVuSans-5b"/>
     <use xlink:href="#DejaVuSans-35" transform="translate(39.013672 0)"/>
     <use xlink:href="#DejaVuSans-2e" transform="translate(102.636719 0)"/>
     <use xlink:href="#DejaVuSans-39" transform="translate(134.423828 0)"/>
     <use xlink:href="#DejaVuSans-36" transform="translate(198.046875 0)"/>
     <use xlink:href="#DejaVuSans-2c" transform="translate(261.669922 0)"/>
     <use xlink:href="#DejaVuSans-20" transform="translate(293.457031 0)"/>
     <use xlink:href="#DejaVuSans-36" transform="translate(325.244141 0)"/>
     <use xlink:href="#DejaVuSans-2e" transform="translate(388.867188 0)"/>
     <use xlink:href="#DejaVuSans-30" transform="translate(420.654297 0)"/>
     <use xlink:href="#DejaVuSans-31" transform="translate(484.277344 0)"/>
     <use xlink:href="#DejaVuSans-5d" transform="translate(547.900391 0)"/>
    </g>
   </g>
   <g id="text_19">
    <!-- Kernel Density Estimation of Cold Start Latency over 1000 iterations -->
    <g style="fill: #262626" transform="translate(130.8885 28.56) scale(0.096 -0.096)">
     <defs>
      <path id="DejaVuSans-4b" d="M 628 4666 
L 1259 4666 
L 1259 2694 
L 3353 4666 
L 4166 4666 
L 1850 2491 
L 4331 0 
L 3500 0 
L 1259 2247 
L 1259 0 
L 628 0 
L 628 4666 
z
" transform="scale(0.015625)"/>
      <path id="DejaVuSans-45" d="M 628 4666 
L 3578 4666 
L 3578 4134 
L 1259 4134 
L 1259 2753 
L 3481 2753 
L 3481 2222 
L 1259 2222 
L 1259 531 
L 3634 531 
L 3634 0 
L 628 0 
L 628 4666 
z
" transform="scale(0.015625)"/>
      <path id="DejaVuSans-66" d="M 2375 4863 
L 2375 4384 
L 1825 4384 
Q 1516 4384 1395 4259 
Q 1275 4134 1275 3809 
L 1275 3500 
L 2222 3500 
L 2222 3053 
L 1275 3053 
L 1275 0 
L 697 0 
L 697 3053 
L 147 3053 
L 147 3500 
L 697 3500 
L 697 3744 
Q 697 4328 969 4595 
Q 1241 4863 1831 4863 
L 2375 4863 
z
" transform="scale(0.015625)"/>
      <path id="DejaVuSans-76" d="M 191 3500 
L 800 3500 
L 1894 563 
L 2988 3500 
L 3597 3500 
L 2284 0 
L 1503 0 
L 191 3500 
z
" transform="scale(0.015625)"/>
     </defs>
     <use xlink:href="#DejaVuSans-4b"/>
     <use xlink:href="#DejaVuSans-65" transform="translate(60.576172 0)"/>
     <use xlink:href="#DejaVuSans-72" transform="translate(122.099609 0)"/>
     <use xlink:href="#DejaVuSans-6e" transform="translate(161.462891 0)"/>
     <use xlink:href="#DejaVuSans-65" transform="translate(224.841797 0)"/>
     <use xlink:href="#DejaVuSans-6c" transform="translate(286.365234 0)"/>
     <use xlink:href="#DejaVuSans-20" transform="translate(314.148438 0)"/>
     <use xlink:href="#DejaVuSans-44" transform="translate(345.935547 0)"/>
     <use xlink:href="#DejaVuSans-65" transform="translate(422.9375 0)"/>
     <use xlink:href="#DejaVuSans-6e" transform="translate(484.460938 0)"/>
     <use xlink:href="#DejaVuSans-73" transform="translate(547.839844 0)"/>
     <use xlink:href="#DejaVuSans-69" transform="translate(599.939453 0)"/>
     <use xlink:href="#DejaVuSans-74" transform="translate(627.722656 0)"/>
     <use xlink:href="#DejaVuSans-79" transform="translate(666.931641 0)"/>
     <use xlink:href="#DejaVuSans-20" transform="translate(726.111328 0)"/>
     <use xlink:href="#DejaVuSans-45" transform="translate(757.898438 0)"/>
     <use xlink:href="#DejaVuSans-73" transform="translate(821.082031 0)"/>
     <use xlink:href="#DejaVuSans-74" transform="translate(873.181641 0)"/>
     <use xlink:href="#DejaVuSans-69" transform="translate(912.390625 0)"/>
     <use xlink:href="#DejaVuSans-6d" transform="translate(940.173828 0)"/>
     <use xlink:href="#DejaVuSans-61" transform="translate(1037.585938 0)"/>
     <use xlink:href="#DejaVuSans-74" transform="translate(1098.865234 0)"/>
     <use xlink:href="#DejaVuSans-69" transform="translate(1138.074219 0)"/>
     <use xlink:href="#DejaVuSans-6f" transform="translate(1165.857422 0)"/>
     <use xlink:href="#DejaVuSans-6e" transform="translate(1227.039062 0)"/>
     <use xlink:href="#DejaVuSans-20" transform="translate(1290.417969 0)"/>
     <use xlink:href="#DejaVuSans-6f" transform="translate(1322.205078 0)"/>
     <use xlink:href="#DejaVuSans-66" transform="translate(1383.386719 0)"/>
     <use xlink:href="#DejaVuSans-20" transform="translate(1418.591797 0)"/>
     <use xlink:href="#DejaVuSans-43" transform="translate(1450.378906 0)"/>
     <use xlink:href="#DejaVuSans-6f" transform="translate(1520.203125 0)"/>
     <use xlink:href="#DejaVuSans-6c" transform="translate(1581.384766 0)"/>
     <use xlink:href="#DejaVuSans-64" transform="translate(1609.167969 0)"/>
     <use xlink:href="#DejaVuSans-20" transform="translate(1672.644531 0)"/>
     <use xlink:href="#DejaVuSans-53" transform="translate(1704.431641 0)"/>
     <use xlink:href="#DejaVuSans-74" transform="translate(1767.908203 0)"/>
     <use xlink:href="#DejaVuSans-61" transform="translate(1807.117188 0)"/>
     <use xlink:href="#DejaVuSans-72" transform="translate(1868.396484 0)"/>
     <use xlink:href="#DejaVuSans-74" transform="translate(1909.509766 0)"/>
     <use xlink:href="#DejaVuSans-20" transform="translate(1948.71875 0)"/>
     <use xlink:href="#DejaVuSans-4c" transform="translate(1980.505859 0)"/>
     <use xlink:href="#DejaVuSans-61" transform="translate(2036.21875 0)"/>
     <use xlink:href="#DejaVuSans-74" transform="translate(2097.498047 0)"/>
     <use xlink:href="#DejaVuSans-65" transform="translate(2136.707031 0)"/>
     <use xlink:href="#DejaVuSans-6e" transform="translate(2198.230469 0)"/>
     <use xlink:href="#DejaVuSans-63" transform="translate(2261.609375 0)"/>
     <use xlink:href="#DejaVuSans-79" transform="translate(2316.589844 0)"/>
     <use xlink:href="#DejaVuSans-20" transform="translate(2375.769531 0)"/>
     <use xlink:href="#DejaVuSans-6f" transform="translate(2407.556641 0)"/>
     <use xlink:href="#DejaVuSans-76" transform="translate(2468.738281 0)"/>
     <use xlink:href="#DejaVuSans-65" transform="translate(2527.917969 0)"/>
     <use xlink:href="#DejaVuSans-72" transform="translate(2589.441406 0)"/>
     <use xlink:href="#DejaVuSans-20" transform="translate(2630.554688 0)"/>
     <use xlink:href="#DejaVuSans-31" transform="translate(2662.341797 0)"/>
     <use xlink:href="#DejaVuSans-30" transform="translate(2725.964844 0)"/>
     <use xlink:href="#DejaVuSans-30" transform="translate(2789.587891 0)"/>
     <use xlink:href="#DejaVuSans-30" transform="translate(2853.210938 0)"/>
     <use xlink:href="#DejaVuSans-20" transform="translate(2916.833984 0)"/>
     <use xlink:href="#DejaVuSans-69" transform="translate(2948.621094 0)"/>
     <use xlink:href="#DejaVuSans-74" transform="translate(2976.404297 0)"/>
     <use xlink:href="#DejaVuSans-65" transform="translate(3015.613281 0)"/>
     <use xlink:href="#DejaVuSans-72" transform="translate(3077.136719 0)"/>
     <use xlink:href="#DejaVuSans-61" transform="translate(3118.25 0)"/>
     <use xlink:href="#DejaVuSans-74" transform="translate(3179.529297 0)"/>
     <use xlink:href="#DejaVuSans-69" transform="translate(3218.738281 0)"/>
     <use xlink:href="#DejaVuSans-6f" transform="translate(3246.521484 0)"/>
     <use xlink:href="#DejaVuSans-6e" transform="translate(3307.703125 0)"/>
     <use xlink:href="#DejaVuSans-73" transform="translate(3371.082031 0)"/>
    </g>
   </g>
  </g>
 </g>
 <defs>
  <clipPath id="p17cde4d5c5">
   <rect x="72" y="34.56" width="446.4" height="221.76"/>
  </clipPath>
 </defs>
</svg>
