<?xml version="1.0" encoding="utf-8" standalone="no"?>
<!DOCTYPE svg PUBLIC "-//W3C//DTD SVG 1.1//EN"
  "http://www.w3.org/Graphics/SVG/1.1/DTD/svg11.dtd">
<svg xmlns:xlink="http://www.w3.org/1999/xlink" width="576pt" height="432pt" viewBox="0 0 576 432" xmlns="http://www.w3.org/2000/svg" version="1.1">
 <metadata>
  <rdf:RDF xmlns:dc="http://purl.org/dc/elements/1.1/" xmlns:cc="http://creativecommons.org/ns#" xmlns:rdf="http://www.w3.org/1999/02/22-rdf-syntax-ns#">
   <cc:Work>
    <dc:type rdf:resource="http://purl.org/dc/dcmitype/StillImage"/>
    <dc:date>2025-05-21T16:02:25.153296</dc:date>
    <dc:format>image/svg+xml</dc:format>
    <dc:creator>
     <cc:Agent>
      <dc:title>Matplotlib v3.10.3, https://matplotlib.org/</dc:title>
     </cc:Agent>
    </dc:creator>
   </cc:Work>
  </rdf:RDF>
 </metadata>
 <defs>
  <style type="text/css">*{stroke-linejoin: round; stroke-linecap: butt}</style>
 </defs>
 <g id="figure_1">
  <g id="patch_1">
   <path d="M 0 432 
L 576 432 
L 576 0 
L 0 0 
z
" style="fill: #ffffff"/>
  </g>
  <g id="axes_1">
   <g id="patch_2">
    <path d="M 74.178 172.596 
L 554.247 172.596 
L 554.247 23.568 
L 74.178 23.568 
z
" style="fill: #ffffff"/>
   </g>
   <g id="matplotlib.axis_1">
    <g id="xtick_1">
     <g id="line2d_1">
      <path d="M 74.178 172.596 
L 74.178 23.568 
" clip-path="url(#pea81fbdefc)" style="fill: none; stroke-dasharray: 2.59,1.12; stroke-dashoffset: 0; stroke: #cccccc; stroke-opacity: 0.7; stroke-width: 0.7"/>
     </g>
     <g id="line2d_2">
      <defs>
       <path id="m535274d09e" d="M 0 0 
L 0 4.8 
" style="stroke: #262626"/>
      </defs>
      <g>
       <use xlink:href="#m535274d09e" x="74.178" y="172.596" style="fill: #262626; stroke: #262626"/>
      </g>
     </g>
     <g id="text_1">
      <!-- 690 -->
      <g transform="translate(62.7255 190.014125) scale(0.12 -0.12)">
       <defs>
        <path id="DejaVuSans-36" d="M 2113 2584 
Q 1688 2584 1439 2293 
Q 1191 2003 1191 1497 
Q 1191 994 1439 701 
Q 1688 409 2113 409 
Q 2538 409 2786 701 
Q 3034 994 3034 1497 
Q 3034 2003 2786 2293 
Q 2538 2584 2113 2584 
z
M 3366 4563 
L 3366 3988 
Q 3128 4100 2886 4159 
Q 2644 4219 2406 4219 
Q 1781 4219 1451 3797 
Q 1122 3375 1075 2522 
Q 1259 2794 1537 2939 
Q 1816 3084 2150 3084 
Q 2853 3084 3261 2657 
Q 3669 2231 3669 1497 
Q 3669 778 3244 343 
Q 2819 -91 2113 -91 
Q 1303 -91 875 529 
Q 447 1150 447 2328 
Q 447 3434 972 4092 
Q 1497 4750 2381 4750 
Q 2619 4750 2861 4703 
Q 3103 4656 3366 4563 
z
" transform="scale(0.015625)"/>
        <path id="DejaVuSans-39" d="M 703 97 
L 703 672 
Q 941 559 1184 500 
Q 1428 441 1663 441 
Q 2288 441 2617 861 
Q 2947 1281 2994 2138 
Q 2813 1869 2534 1725 
Q 2256 1581 1919 1581 
Q 1219 1581 811 2004 
Q 403 2428 403 3163 
Q 403 3881 828 4315 
Q 1253 4750 1959 4750 
Q 2769 4750 3195 4129 
Q 3622 3509 3622 2328 
Q 3622 1225 3098 567 
Q 2575 -91 1691 -91 
Q 1453 -91 1209 -44 
Q 966 3 703 97 
z
M 1959 2075 
Q 2384 2075 2632 2365 
Q 2881 2656 2881 3163 
Q 2881 3666 2632 3958 
Q 2384 4250 1959 4250 
Q 1534 4250 1286 3958 
Q 1038 3666 1038 3163 
Q 1038 2656 1286 2365 
Q 1534 2075 1959 2075 
z
" transform="scale(0.015625)"/>
        <path id="DejaVuSans-30" d="M 2034 4250 
Q 1547 4250 1301 3770 
Q 1056 3291 1056 2328 
Q 1056 1369 1301 889 
Q 1547 409 2034 409 
Q 2525 409 2770 889 
Q 3016 1369 3016 2328 
Q 3016 3291 2770 3770 
Q 2525 4250 2034 4250 
z
M 2034 4750 
Q 2819 4750 3233 4129 
Q 3647 3509 3647 2328 
Q 3647 1150 3233 529 
Q 2819 -91 2034 -91 
Q 1250 -91 836 529 
Q 422 1150 422 2328 
Q 422 3509 836 4129 
Q 1250 4750 2034 4750 
z
" transform="scale(0.015625)"/>
       </defs>
       <use xlink:href="#DejaVuSans-36"/>
       <use xlink:href="#DejaVuSans-39" transform="translate(63.623047 0)"/>
       <use xlink:href="#DejaVuSans-30" transform="translate(127.246094 0)"/>
      </g>
     </g>
    </g>
    <g id="xtick_2">
     <g id="line2d_3">
      <path d="M 154.1895 172.596 
L 154.1895 23.568 
" clip-path="url(#pea81fbdefc)" style="fill: none; stroke-dasharray: 2.59,1.12; stroke-dashoffset: 0; stroke: #cccccc; stroke-opacity: 0.7; stroke-width: 0.7"/>
     </g>
     <g id="line2d_4">
      <g>
       <use xlink:href="#m535274d09e" x="154.1895" y="172.596" style="fill: #262626; stroke: #262626"/>
      </g>
     </g>
     <g id="text_2">
      <!-- 700 -->
      <g transform="translate(142.737 190.014125) scale(0.12 -0.12)">
       <defs>
        <path id="DejaVuSans-37" d="M 525 4666 
L 3525 4666 
L 3525 4397 
L 1831 0 
L 1172 0 
L 2766 4134 
L 525 4134 
L 525 4666 
z
" transform="scale(0.015625)"/>
       </defs>
       <use xlink:href="#DejaVuSans-37"/>
       <use xlink:href="#DejaVuSans-30" transform="translate(63.623047 0)"/>
       <use xlink:href="#DejaVuSans-30" transform="translate(127.246094 0)"/>
      </g>
     </g>
    </g>
    <g id="xtick_3">
     <g id="line2d_5">
      <path d="M 234.201 172.596 
L 234.201 23.568 
" clip-path="url(#pea81fbdefc)" style="fill: none; stroke-dasharray: 2.59,1.12; stroke-dashoffset: 0; stroke: #cccccc; stroke-opacity: 0.7; stroke-width: 0.7"/>
     </g>
     <g id="line2d_6">
      <g>
       <use xlink:href="#m535274d09e" x="234.201" y="172.596" style="fill: #262626; stroke: #262626"/>
      </g>
     </g>
     <g id="text_3">
      <!-- 710 -->
      <g transform="translate(222.7485 190.014125) scale(0.12 -0.12)">
       <defs>
        <path id="DejaVuSans-31" d="M 794 531 
L 1825 531 
L 1825 4091 
L 703 3866 
L 703 4441 
L 1819 4666 
L 2450 4666 
L 2450 531 
L 3481 531 
L 3481 0 
L 794 0 
L 794 531 
z
" transform="scale(0.015625)"/>
       </defs>
       <use xlink:href="#DejaVuSans-37"/>
       <use xlink:href="#DejaVuSans-31" transform="translate(63.623047 0)"/>
       <use xlink:href="#DejaVuSans-30" transform="translate(127.246094 0)"/>
      </g>
     </g>
    </g>
    <g id="xtick_4">
     <g id="line2d_7">
      <path d="M 314.2125 172.596 
L 314.2125 23.568 
" clip-path="url(#pea81fbdefc)" style="fill: none; stroke-dasharray: 2.59,1.12; stroke-dashoffset: 0; stroke: #cccccc; stroke-opacity: 0.7; stroke-width: 0.7"/>
     </g>
     <g id="line2d_8">
      <g>
       <use xlink:href="#m535274d09e" x="314.2125" y="172.596" style="fill: #262626; stroke: #262626"/>
      </g>
     </g>
     <g id="text_4">
      <!-- 720 -->
      <g transform="translate(302.76 190.014125) scale(0.12 -0.12)">
       <defs>
        <path id="DejaVuSans-32" d="M 1228 531 
L 3431 531 
L 3431 0 
L 469 0 
L 469 531 
Q 828 903 1448 1529 
Q 2069 2156 2228 2338 
Q 2531 2678 2651 2914 
Q 2772 3150 2772 3378 
Q 2772 3750 2511 3984 
Q 2250 4219 1831 4219 
Q 1534 4219 1204 4116 
Q 875 4013 500 3803 
L 500 4441 
Q 881 4594 1212 4672 
Q 1544 4750 1819 4750 
Q 2544 4750 2975 4387 
Q 3406 4025 3406 3419 
Q 3406 3131 3298 2873 
Q 3191 2616 2906 2266 
Q 2828 2175 2409 1742 
Q 1991 1309 1228 531 
z
" transform="scale(0.015625)"/>
       </defs>
       <use xlink:href="#DejaVuSans-37"/>
       <use xlink:href="#DejaVuSans-32" transform="translate(63.623047 0)"/>
       <use xlink:href="#DejaVuSans-30" transform="translate(127.246094 0)"/>
      </g>
     </g>
    </g>
    <g id="xtick_5">
     <g id="line2d_9">
      <path d="M 394.224 172.596 
L 394.224 23.568 
" clip-path="url(#pea81fbdefc)" style="fill: none; stroke-dasharray: 2.59,1.12; stroke-dashoffset: 0; stroke: #cccccc; stroke-opacity: 0.7; stroke-width: 0.7"/>
     </g>
     <g id="line2d_10">
      <g>
       <use xlink:href="#m535274d09e" x="394.224" y="172.596" style="fill: #262626; stroke: #262626"/>
      </g>
     </g>
     <g id="text_5">
      <!-- 730 -->
      <g transform="translate(382.7715 190.014125) scale(0.12 -0.12)">
       <defs>
        <path id="DejaVuSans-33" d="M 2597 2516 
Q 3050 2419 3304 2112 
Q 3559 1806 3559 1356 
Q 3559 666 3084 287 
Q 2609 -91 1734 -91 
Q 1441 -91 1130 -33 
Q 819 25 488 141 
L 488 750 
Q 750 597 1062 519 
Q 1375 441 1716 441 
Q 2309 441 2620 675 
Q 2931 909 2931 1356 
Q 2931 1769 2642 2001 
Q 2353 2234 1838 2234 
L 1294 2234 
L 1294 2753 
L 1863 2753 
Q 2328 2753 2575 2939 
Q 2822 3125 2822 3475 
Q 2822 3834 2567 4026 
Q 2313 4219 1838 4219 
Q 1578 4219 1281 4162 
Q 984 4106 628 3988 
L 628 4550 
Q 988 4650 1302 4700 
Q 1616 4750 1894 4750 
Q 2613 4750 3031 4423 
Q 3450 4097 3450 3541 
Q 3450 3153 3228 2886 
Q 3006 2619 2597 2516 
z
" transform="scale(0.015625)"/>
       </defs>
       <use xlink:href="#DejaVuSans-37"/>
       <use xlink:href="#DejaVuSans-33" transform="translate(63.623047 0)"/>
       <use xlink:href="#DejaVuSans-30" transform="translate(127.246094 0)"/>
      </g>
     </g>
    </g>
    <g id="xtick_6">
     <g id="line2d_11">
      <path d="M 474.2355 172.596 
L 474.2355 23.568 
" clip-path="url(#pea81fbdefc)" style="fill: none; stroke-dasharray: 2.59,1.12; stroke-dashoffset: 0; stroke: #cccccc; stroke-opacity: 0.7; stroke-width: 0.7"/>
     </g>
     <g id="line2d_12">
      <g>
       <use xlink:href="#m535274d09e" x="474.2355" y="172.596" style="fill: #262626; stroke: #262626"/>
      </g>
     </g>
     <g id="text_6">
      <!-- 740 -->
      <g transform="translate(462.783 190.014125) scale(0.12 -0.12)">
       <defs>
        <path id="DejaVuSans-34" d="M 2419 4116 
L 825 1625 
L 2419 1625 
L 2419 4116 
z
M 2253 4666 
L 3047 4666 
L 3047 1625 
L 3713 1625 
L 3713 1100 
L 3047 1100 
L 3047 0 
L 2419 0 
L 2419 1100 
L 313 1100 
L 313 1709 
L 2253 4666 
z
" transform="scale(0.015625)"/>
       </defs>
       <use xlink:href="#DejaVuSans-37"/>
       <use xlink:href="#DejaVuSans-34" transform="translate(63.623047 0)"/>
       <use xlink:href="#DejaVuSans-30" transform="translate(127.246094 0)"/>
      </g>
     </g>
    </g>
    <g id="xtick_7">
     <g id="line2d_13">
      <path d="M 554.247 172.596 
L 554.247 23.568 
" clip-path="url(#pea81fbdefc)" style="fill: none; stroke-dasharray: 2.59,1.12; stroke-dashoffset: 0; stroke: #cccccc; stroke-opacity: 0.7; stroke-width: 0.7"/>
     </g>
     <g id="line2d_14">
      <g>
       <use xlink:href="#m535274d09e" x="554.247" y="172.596" style="fill: #262626; stroke: #262626"/>
      </g>
     </g>
     <g id="text_7">
      <!-- 750 -->
      <g transform="translate(542.7945 190.014125) scale(0.12 -0.12)">
       <defs>
        <path id="DejaVuSans-35" d="M 691 4666 
L 3169 4666 
L 3169 4134 
L 1269 4134 
L 1269 2991 
Q 1406 3038 1543 3061 
Q 1681 3084 1819 3084 
Q 2600 3084 3056 2656 
Q 3513 2228 3513 1497 
Q 3513 744 3044 326 
Q 2575 -91 1722 -91 
Q 1428 -91 1123 -41 
Q 819 9 494 109 
L 494 744 
Q 775 591 1075 516 
Q 1375 441 1709 441 
Q 2250 441 2565 725 
Q 2881 1009 2881 1497 
Q 2881 1984 2565 2268 
Q 2250 2553 1709 2553 
Q 1456 2553 1204 2497 
Q 953 2441 691 2322 
L 691 4666 
z
" transform="scale(0.015625)"/>
       </defs>
       <use xlink:href="#DejaVuSans-37"/>
       <use xlink:href="#DejaVuSans-35" transform="translate(63.623047 0)"/>
       <use xlink:href="#DejaVuSans-30" transform="translate(127.246094 0)"/>
      </g>
     </g>
    </g>
    <g id="text_8">
     <!-- Execution Time (ms) -->
     <g transform="translate(252.625312 205.627875) scale(0.12 -0.12)">
      <defs>
       <path id="DejaVuSans-45" d="M 628 4666 
L 3578 4666 
L 3578 4134 
L 1259 4134 
L 1259 2753 
L 3481 2753 
L 3481 2222 
L 1259 2222 
L 1259 531 
L 3634 531 
L 3634 0 
L 628 0 
L 628 4666 
z
" transform="scale(0.015625)"/>
       <path id="DejaVuSans-78" d="M 3513 3500 
L 2247 1797 
L 3578 0 
L 2900 0 
L 1881 1375 
L 863 0 
L 184 0 
L 1544 1831 
L 300 3500 
L 978 3500 
L 1906 2253 
L 2834 3500 
L 3513 3500 
z
" transform="scale(0.015625)"/>
       <path id="DejaVuSans-65" d="M 3597 1894 
L 3597 1613 
L 953 1613 
Q 991 1019 1311 708 
Q 1631 397 2203 397 
Q 2534 397 2845 478 
Q 3156 559 3463 722 
L 3463 178 
Q 3153 47 2828 -22 
Q 2503 -91 2169 -91 
Q 1331 -91 842 396 
Q 353 884 353 1716 
Q 353 2575 817 3079 
Q 1281 3584 2069 3584 
Q 2775 3584 3186 3129 
Q 3597 2675 3597 1894 
z
M 3022 2063 
Q 3016 2534 2758 2815 
Q 2500 3097 2075 3097 
Q 1594 3097 1305 2825 
Q 1016 2553 972 2059 
L 3022 2063 
z
" transform="scale(0.015625)"/>
       <path id="DejaVuSans-63" d="M 3122 3366 
L 3122 2828 
Q 2878 2963 2633 3030 
Q 2388 3097 2138 3097 
Q 1578 3097 1268 2742 
Q 959 2388 959 1747 
Q 959 1106 1268 751 
Q 1578 397 2138 397 
Q 2388 397 2633 464 
Q 2878 531 3122 666 
L 3122 134 
Q 2881 22 2623 -34 
Q 2366 -91 2075 -91 
Q 1284 -91 818 406 
Q 353 903 353 1747 
Q 353 2603 823 3093 
Q 1294 3584 2113 3584 
Q 2378 3584 2631 3529 
Q 2884 3475 3122 3366 
z
" transform="scale(0.015625)"/>
       <path id="DejaVuSans-75" d="M 544 1381 
L 544 3500 
L 1119 3500 
L 1119 1403 
Q 1119 906 1312 657 
Q 1506 409 1894 409 
Q 2359 409 2629 706 
Q 2900 1003 2900 1516 
L 2900 3500 
L 3475 3500 
L 3475 0 
L 2900 0 
L 2900 538 
Q 2691 219 2414 64 
Q 2138 -91 1772 -91 
Q 1169 -91 856 284 
Q 544 659 544 1381 
z
M 1991 3584 
L 1991 3584 
z
" transform="scale(0.015625)"/>
       <path id="DejaVuSans-74" d="M 1172 4494 
L 1172 3500 
L 2356 3500 
L 2356 3053 
L 1172 3053 
L 1172 1153 
Q 1172 725 1289 603 
Q 1406 481 1766 481 
L 2356 481 
L 2356 0 
L 1766 0 
Q 1100 0 847 248 
Q 594 497 594 1153 
L 594 3053 
L 172 3053 
L 172 3500 
L 594 3500 
L 594 4494 
L 1172 4494 
z
" transform="scale(0.015625)"/>
       <path id="DejaVuSans-69" d="M 603 3500 
L 1178 3500 
L 1178 0 
L 603 0 
L 603 3500 
z
M 603 4863 
L 1178 4863 
L 1178 4134 
L 603 4134 
L 603 4863 
z
" transform="scale(0.015625)"/>
       <path id="DejaVuSans-6f" d="M 1959 3097 
Q 1497 3097 1228 2736 
Q 959 2375 959 1747 
Q 959 1119 1226 758 
Q 1494 397 1959 397 
Q 2419 397 2687 759 
Q 2956 1122 2956 1747 
Q 2956 2369 2687 2733 
Q 2419 3097 1959 3097 
z
M 1959 3584 
Q 2709 3584 3137 3096 
Q 3566 2609 3566 1747 
Q 3566 888 3137 398 
Q 2709 -91 1959 -91 
Q 1206 -91 779 398 
Q 353 888 353 1747 
Q 353 2609 779 3096 
Q 1206 3584 1959 3584 
z
" transform="scale(0.015625)"/>
       <path id="DejaVuSans-6e" d="M 3513 2113 
L 3513 0 
L 2938 0 
L 2938 2094 
Q 2938 2591 2744 2837 
Q 2550 3084 2163 3084 
Q 1697 3084 1428 2787 
Q 1159 2491 1159 1978 
L 1159 0 
L 581 0 
L 581 3500 
L 1159 3500 
L 1159 2956 
Q 1366 3272 1645 3428 
Q 1925 3584 2291 3584 
Q 2894 3584 3203 3211 
Q 3513 2838 3513 2113 
z
" transform="scale(0.015625)"/>
       <path id="DejaVuSans-20" transform="scale(0.015625)"/>
       <path id="DejaVuSans-54" d="M -19 4666 
L 3928 4666 
L 3928 4134 
L 2272 4134 
L 2272 0 
L 1638 0 
L 1638 4134 
L -19 4134 
L -19 4666 
z
" transform="scale(0.015625)"/>
       <path id="DejaVuSans-6d" d="M 3328 2828 
Q 3544 3216 3844 3400 
Q 4144 3584 4550 3584 
Q 5097 3584 5394 3201 
Q 5691 2819 5691 2113 
L 5691 0 
L 5113 0 
L 5113 2094 
Q 5113 2597 4934 2840 
Q 4756 3084 4391 3084 
Q 3944 3084 3684 2787 
Q 3425 2491 3425 1978 
L 3425 0 
L 2847 0 
L 2847 2094 
Q 2847 2600 2669 2842 
Q 2491 3084 2119 3084 
Q 1678 3084 1418 2786 
Q 1159 2488 1159 1978 
L 1159 0 
L 581 0 
L 581 3500 
L 1159 3500 
L 1159 2956 
Q 1356 3278 1631 3431 
Q 1906 3584 2284 3584 
Q 2666 3584 2933 3390 
Q 3200 3197 3328 2828 
z
" transform="scale(0.015625)"/>
       <path id="DejaVuSans-28" d="M 1984 4856 
Q 1566 4138 1362 3434 
Q 1159 2731 1159 2009 
Q 1159 1288 1364 580 
Q 1569 -128 1984 -844 
L 1484 -844 
Q 1016 -109 783 600 
Q 550 1309 550 2009 
Q 550 2706 781 3412 
Q 1013 4119 1484 4856 
L 1984 4856 
z
" transform="scale(0.015625)"/>
       <path id="DejaVuSans-73" d="M 2834 3397 
L 2834 2853 
Q 2591 2978 2328 3040 
Q 2066 3103 1784 3103 
Q 1356 3103 1142 2972 
Q 928 2841 928 2578 
Q 928 2378 1081 2264 
Q 1234 2150 1697 2047 
L 1894 2003 
Q 2506 1872 2764 1633 
Q 3022 1394 3022 966 
Q 3022 478 2636 193 
Q 2250 -91 1575 -91 
Q 1294 -91 989 -36 
Q 684 19 347 128 
L 347 722 
Q 666 556 975 473 
Q 1284 391 1588 391 
Q 1994 391 2212 530 
Q 2431 669 2431 922 
Q 2431 1156 2273 1281 
Q 2116 1406 1581 1522 
L 1381 1569 
Q 847 1681 609 1914 
Q 372 2147 372 2553 
Q 372 3047 722 3315 
Q 1072 3584 1716 3584 
Q 2034 3584 2315 3537 
Q 2597 3491 2834 3397 
z
" transform="scale(0.015625)"/>
       <path id="DejaVuSans-29" d="M 513 4856 
L 1013 4856 
Q 1481 4119 1714 3412 
Q 1947 2706 1947 2009 
Q 1947 1309 1714 600 
Q 1481 -109 1013 -844 
L 513 -844 
Q 928 -128 1133 580 
Q 1338 1288 1338 2009 
Q 1338 2731 1133 3434 
Q 928 4138 513 4856 
z
" transform="scale(0.015625)"/>
      </defs>
      <use xlink:href="#DejaVuSans-45"/>
      <use xlink:href="#DejaVuSans-78" transform="translate(63.183594 0)"/>
      <use xlink:href="#DejaVuSans-65" transform="translate(119.238281 0)"/>
      <use xlink:href="#DejaVuSans-63" transform="translate(180.761719 0)"/>
      <use xlink:href="#DejaVuSans-75" transform="translate(235.742188 0)"/>
      <use xlink:href="#DejaVuSans-74" transform="translate(299.121094 0)"/>
      <use xlink:href="#DejaVuSans-69" transform="translate(338.330078 0)"/>
      <use xlink:href="#DejaVuSans-6f" transform="translate(366.113281 0)"/>
      <use xlink:href="#DejaVuSans-6e" transform="translate(427.294922 0)"/>
      <use xlink:href="#DejaVuSans-20" transform="translate(490.673828 0)"/>
      <use xlink:href="#DejaVuSans-54" transform="translate(522.460938 0)"/>
      <use xlink:href="#DejaVuSans-69" transform="translate(580.419922 0)"/>
      <use xlink:href="#DejaVuSans-6d" transform="translate(608.203125 0)"/>
      <use xlink:href="#DejaVuSans-65" transform="translate(705.615234 0)"/>
      <use xlink:href="#DejaVuSans-20" transform="translate(767.138672 0)"/>
      <use xlink:href="#DejaVuSans-28" transform="translate(798.925781 0)"/>
      <use xlink:href="#DejaVuSans-6d" transform="translate(837.939453 0)"/>
      <use xlink:href="#DejaVuSans-73" transform="translate(935.351562 0)"/>
      <use xlink:href="#DejaVuSans-29" transform="translate(987.451172 0)"/>
     </g>
    </g>
   </g>
   <g id="matplotlib.axis_2">
    <g id="ytick_1">
     <g id="line2d_15">
      <path d="M 74.178 172.596 
L 554.247 172.596 
" clip-path="url(#pea81fbdefc)" style="fill: none; stroke-dasharray: 2.59,1.12; stroke-dashoffset: 0; stroke: #cccccc; stroke-opacity: 0.7; stroke-width: 0.7"/>
     </g>
     <g id="line2d_16">
      <defs>
       <path id="me4cf934d6b" d="M 0 0 
L -4.8 0 
" style="stroke: #262626"/>
      </defs>
      <g>
       <use xlink:href="#me4cf934d6b" x="74.178" y="172.596" style="fill: #262626; stroke: #262626"/>
      </g>
     </g>
     <g id="text_9">
      <!-- 0.00 -->
      <g transform="translate(39.15925 177.155062) scale(0.12 -0.12)">
       <defs>
        <path id="DejaVuSans-2e" d="M 684 794 
L 1344 794 
L 1344 0 
L 684 0 
L 684 794 
z
" transform="scale(0.015625)"/>
       </defs>
       <use xlink:href="#DejaVuSans-30"/>
       <use xlink:href="#DejaVuSans-2e" transform="translate(63.623047 0)"/>
       <use xlink:href="#DejaVuSans-30" transform="translate(95.410156 0)"/>
       <use xlink:href="#DejaVuSans-30" transform="translate(159.033203 0)"/>
      </g>
     </g>
    </g>
    <g id="ytick_2">
     <g id="line2d_17">
      <path d="M 74.178 142.7904 
L 554.247 142.7904 
" clip-path="url(#pea81fbdefc)" style="fill: none; stroke-dasharray: 2.59,1.12; stroke-dashoffset: 0; stroke: #cccccc; stroke-opacity: 0.7; stroke-width: 0.7"/>
     </g>
     <g id="line2d_18">
      <g>
       <use xlink:href="#me4cf934d6b" x="74.178" y="142.7904" style="fill: #262626; stroke: #262626"/>
      </g>
     </g>
     <g id="text_10">
      <!-- 0.01 -->
      <g transform="translate(39.15925 147.349462) scale(0.12 -0.12)">
       <use xlink:href="#DejaVuSans-30"/>
       <use xlink:href="#DejaVuSans-2e" transform="translate(63.623047 0)"/>
       <use xlink:href="#DejaVuSans-30" transform="translate(95.410156 0)"/>
       <use xlink:href="#DejaVuSans-31" transform="translate(159.033203 0)"/>
      </g>
     </g>
    </g>
    <g id="ytick_3">
     <g id="line2d_19">
      <path d="M 74.178 112.9848 
L 554.247 112.9848 
" clip-path="url(#pea81fbdefc)" style="fill: none; stroke-dasharray: 2.59,1.12; stroke-dashoffset: 0; stroke: #cccccc; stroke-opacity: 0.7; stroke-width: 0.7"/>
     </g>
     <g id="line2d_20">
      <g>
       <use xlink:href="#me4cf934d6b" x="74.178" y="112.9848" style="fill: #262626; stroke: #262626"/>
      </g>
     </g>
     <g id="text_11">
      <!-- 0.02 -->
      <g transform="translate(39.15925 117.543862) scale(0.12 -0.12)">
       <use xlink:href="#DejaVuSans-30"/>
       <use xlink:href="#DejaVuSans-2e" transform="translate(63.623047 0)"/>
       <use xlink:href="#DejaVuSans-30" transform="translate(95.410156 0)"/>
       <use xlink:href="#DejaVuSans-32" transform="translate(159.033203 0)"/>
      </g>
     </g>
    </g>
    <g id="ytick_4">
     <g id="line2d_21">
      <path d="M 74.178 83.1792 
L 554.247 83.1792 
" clip-path="url(#pea81fbdefc)" style="fill: none; stroke-dasharray: 2.59,1.12; stroke-dashoffset: 0; stroke: #cccccc; stroke-opacity: 0.7; stroke-width: 0.7"/>
     </g>
     <g id="line2d_22">
      <g>
       <use xlink:href="#me4cf934d6b" x="74.178" y="83.1792" style="fill: #262626; stroke: #262626"/>
      </g>
     </g>
     <g id="text_12">
      <!-- 0.03 -->
      <g transform="translate(39.15925 87.738262) scale(0.12 -0.12)">
       <use xlink:href="#DejaVuSans-30"/>
       <use xlink:href="#DejaVuSans-2e" transform="translate(63.623047 0)"/>
       <use xlink:href="#DejaVuSans-30" transform="translate(95.410156 0)"/>
       <use xlink:href="#DejaVuSans-33" transform="translate(159.033203 0)"/>
      </g>
     </g>
    </g>
    <g id="ytick_5">
     <g id="line2d_23">
      <path d="M 74.178 53.3736 
L 554.247 53.3736 
" clip-path="url(#pea81fbdefc)" style="fill: none; stroke-dasharray: 2.59,1.12; stroke-dashoffset: 0; stroke: #cccccc; stroke-opacity: 0.7; stroke-width: 0.7"/>
     </g>
     <g id="line2d_24">
      <g>
       <use xlink:href="#me4cf934d6b" x="74.178" y="53.3736" style="fill: #262626; stroke: #262626"/>
      </g>
     </g>
     <g id="text_13">
      <!-- 0.04 -->
      <g transform="translate(39.15925 57.932662) scale(0.12 -0.12)">
       <use xlink:href="#DejaVuSans-30"/>
       <use xlink:href="#DejaVuSans-2e" transform="translate(63.623047 0)"/>
       <use xlink:href="#DejaVuSans-30" transform="translate(95.410156 0)"/>
       <use xlink:href="#DejaVuSans-34" transform="translate(159.033203 0)"/>
      </g>
     </g>
    </g>
    <g id="ytick_6">
     <g id="line2d_25">
      <path d="M 74.178 23.568 
L 554.247 23.568 
" clip-path="url(#pea81fbdefc)" style="fill: none; stroke-dasharray: 2.59,1.12; stroke-dashoffset: 0; stroke: #cccccc; stroke-opacity: 0.7; stroke-width: 0.7"/>
     </g>
     <g id="line2d_26">
      <g>
       <use xlink:href="#me4cf934d6b" x="74.178" y="23.568" style="fill: #262626; stroke: #262626"/>
      </g>
     </g>
     <g id="text_14">
      <!-- 0.05 -->
      <g transform="translate(39.15925 28.127062) scale(0.12 -0.12)">
       <use xlink:href="#DejaVuSans-30"/>
       <use xlink:href="#DejaVuSans-2e" transform="translate(63.623047 0)"/>
       <use xlink:href="#DejaVuSans-30" transform="translate(95.410156 0)"/>
       <use xlink:href="#DejaVuSans-35" transform="translate(159.033203 0)"/>
      </g>
     </g>
    </g>
    <g id="text_15">
     <!-- Density -->
     <g transform="translate(20.663625 120.892313) rotate(-90) scale(0.12 -0.12)">
      <defs>
       <path id="DejaVuSans-44" d="M 1259 4147 
L 1259 519 
L 2022 519 
Q 2988 519 3436 956 
Q 3884 1394 3884 2338 
Q 3884 3275 3436 3711 
Q 2988 4147 2022 4147 
L 1259 4147 
z
M 628 4666 
L 1925 4666 
Q 3281 4666 3915 4102 
Q 4550 3538 4550 2338 
Q 4550 1131 3912 565 
Q 3275 0 1925 0 
L 628 0 
L 628 4666 
z
" transform="scale(0.015625)"/>
       <path id="DejaVuSans-79" d="M 2059 -325 
Q 1816 -950 1584 -1140 
Q 1353 -1331 966 -1331 
L 506 -1331 
L 506 -850 
L 844 -850 
Q 1081 -850 1212 -737 
Q 1344 -625 1503 -206 
L 1606 56 
L 191 3500 
L 800 3500 
L 1894 763 
L 2988 3500 
L 3597 3500 
L 2059 -325 
z
" transform="scale(0.015625)"/>
      </defs>
      <use xlink:href="#DejaVuSans-44"/>
      <use xlink:href="#DejaVuSans-65" transform="translate(77.001953 0)"/>
      <use xlink:href="#DejaVuSans-6e" transform="translate(138.525391 0)"/>
      <use xlink:href="#DejaVuSans-73" transform="translate(201.904297 0)"/>
      <use xlink:href="#DejaVuSans-69" transform="translate(254.003906 0)"/>
      <use xlink:href="#DejaVuSans-74" transform="translate(281.787109 0)"/>
      <use xlink:href="#DejaVuSans-79" transform="translate(320.996094 0)"/>
     </g>
    </g>
   </g>
   <g id="FillBetweenPolyCollection_1">
    <path d="M -223.080728 172.591071 
L -223.080728 172.596 
L -218.004968 172.596 
L -212.929209 172.596 
L -207.853449 172.596 
L -202.777689 172.596 
L -197.701929 172.596 
L -192.626169 172.596 
L -187.55041 172.596 
L -182.47465 172.596 
L -177.39889 172.596 
L -172.32313 172.596 
L -167.247371 172.596 
L -162.171611 172.596 
L -157.095851 172.596 
L -152.020091 172.596 
L -146.944332 172.596 
L -141.868572 172.596 
L -136.792812 172.596 
L -131.717052 172.596 
L -126.641293 172.596 
L -121.565533 172.596 
L -116.489773 172.596 
L -111.414013 172.596 
L -106.338254 172.596 
L -101.262494 172.596 
L -96.186734 172.596 
L -91.110974 172.596 
L -86.035215 172.596 
L -80.959455 172.596 
L -75.883695 172.596 
L -70.807935 172.596 
L -65.732176 172.596 
L -60.656416 172.596 
L -55.580656 172.596 
L -50.504896 172.596 
L -45.429136 172.596 
L -40.353377 172.596 
L -35.277617 172.596 
L -30.201857 172.596 
L -25.126097 172.596 
L -20.050338 172.596 
L -14.974578 172.596 
L -9.898818 172.596 
L -4.823058 172.596 
L 0.252701 172.596 
L 5.328461 172.596 
L 10.404221 172.596 
L 15.479981 172.596 
L 20.55574 172.596 
L 25.6315 172.596 
L 30.70726 172.596 
L 35.78302 172.596 
L 40.858779 172.596 
L 45.934539 172.596 
L 51.010299 172.596 
L 56.086059 172.596 
L 61.161818 172.596 
L 66.237578 172.596 
L 71.313338 172.596 
L 76.389098 172.596 
L 81.464858 172.596 
L 86.540617 172.596 
L 91.616377 172.596 
L 96.692137 172.596 
L 101.767897 172.596 
L 106.843656 172.596 
L 111.919416 172.596 
L 116.995176 172.596 
L 122.070936 172.596 
L 127.146695 172.596 
L 132.222455 172.596 
L 137.298215 172.596 
L 142.373975 172.596 
L 147.449734 172.596 
L 152.525494 172.596 
L 157.601254 172.596 
L 162.677014 172.596 
L 167.752773 172.596 
L 172.828533 172.596 
L 177.904293 172.596 
L 182.980053 172.596 
L 188.055812 172.596 
L 193.131572 172.596 
L 198.207332 172.596 
L 203.283092 172.596 
L 208.358851 172.596 
L 213.434611 172.596 
L 218.510371 172.596 
L 223.586131 172.596 
L 228.661891 172.596 
L 233.73765 172.596 
L 238.81341 172.596 
L 243.88917 172.596 
L 248.96493 172.596 
L 254.040689 172.596 
L 259.116449 172.596 
L 264.192209 172.596 
L 269.267969 172.596 
L 274.343728 172.596 
L 279.419488 172.596 
L 284.495248 172.596 
L 289.571008 172.596 
L 294.646767 172.596 
L 299.722527 172.596 
L 304.798287 172.596 
L 309.874047 172.596 
L 314.949806 172.596 
L 320.025566 172.596 
L 325.101326 172.596 
L 330.177086 172.596 
L 335.252845 172.596 
L 340.328605 172.596 
L 345.404365 172.596 
L 350.480125 172.596 
L 355.555885 172.596 
L 360.631644 172.596 
L 365.707404 172.596 
L 370.783164 172.596 
L 375.858924 172.596 
L 380.934683 172.596 
L 386.010443 172.596 
L 391.086203 172.596 
L 396.161963 172.596 
L 401.237722 172.596 
L 406.313482 172.596 
L 411.389242 172.596 
L 416.465002 172.596 
L 421.540761 172.596 
L 426.616521 172.596 
L 431.692281 172.596 
L 436.768041 172.596 
L 441.8438 172.596 
L 446.91956 172.596 
L 451.99532 172.596 
L 457.07108 172.596 
L 462.146839 172.596 
L 467.222599 172.596 
L 472.298359 172.596 
L 477.374119 172.596 
L 482.449878 172.596 
L 487.525638 172.596 
L 492.601398 172.596 
L 497.677158 172.596 
L 502.752918 172.596 
L 507.828677 172.596 
L 512.904437 172.596 
L 517.980197 172.596 
L 523.055957 172.596 
L 528.131716 172.596 
L 533.207476 172.596 
L 538.283236 172.596 
L 543.358996 172.596 
L 548.434755 172.596 
L 553.510515 172.596 
L 558.586275 172.596 
L 563.662035 172.596 
L 568.737794 172.596 
L 573.813554 172.596 
L 578.889314 172.596 
L 583.965074 172.596 
L 589.040833 172.596 
L 594.116593 172.596 
L 599.192353 172.596 
L 604.268113 172.596 
L 609.343872 172.596 
L 614.419632 172.596 
L 619.495392 172.596 
L 624.571152 172.596 
L 629.646912 172.596 
L 634.722671 172.596 
L 639.798431 172.596 
L 644.874191 172.596 
L 649.949951 172.596 
L 655.02571 172.596 
L 660.10147 172.596 
L 665.17723 172.596 
L 670.25299 172.596 
L 675.328749 172.596 
L 680.404509 172.596 
L 685.480269 172.596 
L 690.556029 172.596 
L 695.631788 172.596 
L 700.707548 172.596 
L 705.783308 172.596 
L 710.859068 172.596 
L 715.934827 172.596 
L 721.010587 172.596 
L 726.086347 172.596 
L 731.162107 172.596 
L 736.237866 172.596 
L 741.313626 172.596 
L 746.389386 172.596 
L 751.465146 172.596 
L 756.540905 172.596 
L 761.616665 172.596 
L 766.692425 172.596 
L 771.768185 172.596 
L 776.843945 172.596 
L 781.919704 172.596 
L 786.995464 172.596 
L 786.995464 172.591447 
L 786.995464 172.591447 
L 781.919704 172.588174 
L 776.843945 172.582918 
L 771.768185 172.574724 
L 766.692425 172.562326 
L 761.616665 172.544117 
L 756.540905 172.518154 
L 751.465146 172.482217 
L 746.389386 172.433933 
L 741.313626 172.370968 
L 736.237866 172.291299 
L 731.162107 172.193526 
L 726.086347 172.07721 
L 721.010587 171.943176 
L 715.934827 171.793718 
L 710.859068 171.632669 
L 705.783308 171.465256 
L 700.707548 171.297754 
L 695.631788 171.13692 
L 690.556029 170.989287 
L 685.480269 170.86038 
L 680.404509 170.753968 
L 675.328749 170.671471 
L 670.25299 170.611589 
L 665.17723 170.570219 
L 660.10147 170.540652 
L 655.02571 170.514008 
L 649.949951 170.479807 
L 644.874191 170.426599 
L 639.798431 170.342548 
L 634.722671 170.215921 
L 629.646912 170.035474 
L 624.571152 169.790783 
L 619.495392 169.47258 
L 614.419632 169.073178 
L 609.343872 168.587026 
L 604.268113 168.01137 
L 599.192353 167.346951 
L 594.116593 166.598569 
L 589.040833 165.775362 
L 583.965074 164.890623 
L 578.889314 163.961071 
L 573.813554 163.005597 
L 568.737794 162.043591 
L 563.662035 161.09308 
L 558.586275 160.168936 
L 553.510515 159.281419 
L 548.434755 158.435282 
L 543.358996 157.629547 
L 538.283236 156.858022 
L 533.207476 156.11048 
L 528.131716 155.374411 
L 523.055957 154.63714 
L 517.980197 153.88809 
L 512.904437 153.120907 
L 507.828677 152.335122 
L 502.752918 151.537027 
L 497.677158 150.739492 
L 492.601398 149.960586 
L 487.525638 149.221039 
L 482.449878 148.540833 
L 477.374119 147.935433 
L 472.298359 147.412278 
L 467.222599 146.96819 
L 462.146839 146.588187 
L 457.07108 146.245919 
L 451.99532 145.905636 
L 446.91956 145.525259 
L 441.8438 145.059962 
L 436.768041 144.465618 
L 431.692281 143.70156 
L 426.616521 142.73233 
L 421.540761 141.528374 
L 416.465002 140.065849 
L 411.389242 138.325892 
L 406.313482 136.293783 
L 401.237722 133.958364 
L 396.161963 131.312006 
L 391.086203 128.351228 
L 386.010443 125.077919 
L 380.934683 121.500951 
L 375.858924 117.637872 
L 370.783164 113.516332 
L 365.707404 109.174953 
L 360.631644 104.663457 
L 355.555885 100.042016 
L 350.480125 95.379962 
L 345.404365 90.754038 
L 340.328605 86.246429 
L 335.252845 81.942691 
L 330.177086 77.929595 
L 325.101326 74.292734 
L 320.025566 71.113724 
L 314.949806 68.466831 
L 309.874047 66.415062 
L 304.798287 65.005992 
L 299.722527 64.267832 
L 294.646767 64.206453 
L 289.571008 64.80405 
L 284.495248 66.019956 
L 279.419488 67.793777 
L 274.343728 70.050575 
L 269.267969 72.707394 
L 264.192209 75.680192 
L 259.116449 78.890122 
L 254.040689 82.26832 
L 248.96493 85.758684 
L 243.88917 89.3186 
L 238.81341 92.917961 
L 233.73765 96.53711 
L 228.661891 100.164373 
L 223.586131 103.793728 
L 218.510371 107.42287 
L 213.434611 111.051623 
L 208.358851 114.68049 
L 203.283092 118.309044 
L 198.207332 121.934039 
L 193.131572 125.547315 
L 188.055812 129.133877 
L 182.980053 132.67064 
L 177.904293 136.126362 
L 172.828533 139.463095 
L 167.752773 142.639148 
L 162.677014 145.613226 
L 157.601254 148.349068 
L 152.525494 150.819768 
L 147.449734 153.010981 
L 142.373975 154.922428 
L 137.298215 156.567474 
L 132.222455 157.970907 
L 127.146695 159.165423 
L 122.070936 160.18751 
L 116.995176 161.073466 
L 111.919416 161.856193 
L 106.843656 162.563113 
L 101.767897 163.215326 
L 96.692137 163.827791 
L 91.616377 164.410217 
L 86.540617 164.968238 
L 81.464858 165.504559 
L 76.389098 166.01987 
L 71.313338 166.513479 
L 66.237578 166.983751 
L 61.161818 167.42843 
L 56.086059 167.844974 
L 51.010299 168.230906 
L 45.934539 168.584176 
L 40.858779 168.903447 
L 35.78302 169.188272 
L 30.70726 169.439106 
L 25.6315 169.657194 
L 20.55574 169.844382 
L 15.479981 170.002923 
L 10.404221 170.135329 
L 5.328461 170.244291 
L 0.252701 170.332656 
L -4.823058 170.403424 
L -9.898818 170.459721 
L -14.974578 170.50472 
L -20.050338 170.541504 
L -25.126097 170.572867 
L -30.201857 170.601096 
L -35.277617 170.627756 
L -40.353377 170.653521 
L -45.429136 170.678096 
L -50.504896 170.700263 
L -55.580656 170.718075 
L -60.656416 170.729216 
L -65.732176 170.731491 
L -70.807935 170.723399 
L -75.883695 170.704698 
L -80.959455 170.676841 
L -86.035215 170.643195 
L -91.110974 170.608938 
L -96.186734 170.58063 
L -101.262494 170.565492 
L -106.338254 170.570492 
L -111.414013 170.601391 
L -116.489773 170.661923 
L -121.565533 170.753236 
L -126.641293 170.873696 
L -131.717052 171.01908 
L -136.792812 171.18311 
L -141.868572 171.358227 
L -146.944332 171.536458 
L -152.020091 171.710267 
L -157.095851 171.873232 
L -162.171611 172.020512 
L -167.247371 172.149045 
L -172.32313 172.257512 
L -177.39889 172.346114 
L -182.47465 172.416223 
L -187.55041 172.469992 
L -192.626169 172.509979 
L -197.701929 172.53882 
L -202.777689 172.559001 
L -207.853449 172.572702 
L -212.929209 172.581727 
L -218.004968 172.587494 
L -223.080728 172.591071 
z
" clip-path="url(#pea81fbdefc)" style="fill: #0feda5; fill-opacity: 0.25; stroke: #0feda5; stroke-width: 0.8"/>
   </g>
   <g id="FillBetweenPolyCollection_2">
    <defs>
     <path id="m9b57996caf" d="M 307.201844 -259.404 
L 294.953192 -259.404 
L 294.953192 -557.46 
L 307.201844 -557.46 
L 307.201844 -557.46 
L 307.201844 -259.404 
z
" style="stroke: #ffa500; stroke-opacity: 0.3; stroke-width: 0.8"/>
    </defs>
    <g clip-path="url(#pea81fbdefc)">
     <use xlink:href="#m9b57996caf" x="0" y="432" style="fill: #ffa500; fill-opacity: 0.3; stroke: #ffa500; stroke-opacity: 0.3; stroke-width: 0.8"/>
    </g>
   </g>
   <g id="line2d_27">
    <path d="M 308.996172 172.596 
L 308.996172 23.568 
" clip-path="url(#pea81fbdefc)" style="fill: none; stroke-dasharray: 4.44,1.92; stroke-dashoffset: 0; stroke: #ff0000; stroke-width: 1.2"/>
   </g>
   <g id="line2d_28">
    <path d="M 299.912053 172.596 
L 299.912053 23.568 
" clip-path="url(#pea81fbdefc)" style="fill: none; stroke-dasharray: 7.68,1.92,1.2,1.92; stroke-dashoffset: 0; stroke: #008000; stroke-width: 1.2"/>
   </g>
   <g id="patch_3">
    <path d="M 74.178 172.596 
L 74.178 23.568 
" style="fill: none; stroke: #262626; stroke-linejoin: miter; stroke-linecap: square"/>
   </g>
   <g id="patch_4">
    <path d="M 554.247 172.596 
L 554.247 23.568 
" style="fill: none; stroke: #262626; stroke-linejoin: miter; stroke-linecap: square"/>
   </g>
   <g id="patch_5">
    <path d="M 74.178 172.596 
L 554.247 172.596 
" style="fill: none; stroke: #262626; stroke-linejoin: miter; stroke-linecap: square"/>
   </g>
   <g id="patch_6">
    <path d="M 74.178 23.568 
L 554.247 23.568 
" style="fill: none; stroke: #262626; stroke-linejoin: miter; stroke-linecap: square"/>
   </g>
   <g id="text_16">
    <!-- Mean: 719.348 -->
    <g style="fill: #ff0000" transform="translate(316.997322 41.506112) scale(0.11 -0.11)">
     <defs>
      <path id="DejaVuSans-4d" d="M 628 4666 
L 1569 4666 
L 2759 1491 
L 3956 4666 
L 4897 4666 
L 4897 0 
L 4281 0 
L 4281 4097 
L 3078 897 
L 2444 897 
L 1241 4097 
L 1241 0 
L 628 0 
L 628 4666 
z
" transform="scale(0.015625)"/>
      <path id="DejaVuSans-61" d="M 2194 1759 
Q 1497 1759 1228 1600 
Q 959 1441 959 1056 
Q 959 750 1161 570 
Q 1363 391 1709 391 
Q 2188 391 2477 730 
Q 2766 1069 2766 1631 
L 2766 1759 
L 2194 1759 
z
M 3341 1997 
L 3341 0 
L 2766 0 
L 2766 531 
Q 2569 213 2275 61 
Q 1981 -91 1556 -91 
Q 1019 -91 701 211 
Q 384 513 384 1019 
Q 384 1609 779 1909 
Q 1175 2209 1959 2209 
L 2766 2209 
L 2766 2266 
Q 2766 2663 2505 2880 
Q 2244 3097 1772 3097 
Q 1472 3097 1187 3025 
Q 903 2953 641 2809 
L 641 3341 
Q 956 3463 1253 3523 
Q 1550 3584 1831 3584 
Q 2591 3584 2966 3190 
Q 3341 2797 3341 1997 
z
" transform="scale(0.015625)"/>
      <path id="DejaVuSans-3a" d="M 750 794 
L 1409 794 
L 1409 0 
L 750 0 
L 750 794 
z
M 750 3309 
L 1409 3309 
L 1409 2516 
L 750 2516 
L 750 3309 
z
" transform="scale(0.015625)"/>
      <path id="DejaVuSans-38" d="M 2034 2216 
Q 1584 2216 1326 1975 
Q 1069 1734 1069 1313 
Q 1069 891 1326 650 
Q 1584 409 2034 409 
Q 2484 409 2743 651 
Q 3003 894 3003 1313 
Q 3003 1734 2745 1975 
Q 2488 2216 2034 2216 
z
M 1403 2484 
Q 997 2584 770 2862 
Q 544 3141 544 3541 
Q 544 4100 942 4425 
Q 1341 4750 2034 4750 
Q 2731 4750 3128 4425 
Q 3525 4100 3525 3541 
Q 3525 3141 3298 2862 
Q 3072 2584 2669 2484 
Q 3125 2378 3379 2068 
Q 3634 1759 3634 1313 
Q 3634 634 3220 271 
Q 2806 -91 2034 -91 
Q 1263 -91 848 271 
Q 434 634 434 1313 
Q 434 1759 690 2068 
Q 947 2378 1403 2484 
z
M 1172 3481 
Q 1172 3119 1398 2916 
Q 1625 2713 2034 2713 
Q 2441 2713 2670 2916 
Q 2900 3119 2900 3481 
Q 2900 3844 2670 4047 
Q 2441 4250 2034 4250 
Q 1625 4250 1398 4047 
Q 1172 3844 1172 3481 
z
" transform="scale(0.015625)"/>
     </defs>
     <use xlink:href="#DejaVuSans-4d"/>
     <use xlink:href="#DejaVuSans-65" transform="translate(86.279297 0)"/>
     <use xlink:href="#DejaVuSans-61" transform="translate(147.802734 0)"/>
     <use xlink:href="#DejaVuSans-6e" transform="translate(209.082031 0)"/>
     <use xlink:href="#DejaVuSans-3a" transform="translate(272.460938 0)"/>
     <use xlink:href="#DejaVuSans-20" transform="translate(306.152344 0)"/>
     <use xlink:href="#DejaVuSans-37" transform="translate(337.939453 0)"/>
     <use xlink:href="#DejaVuSans-31" transform="translate(401.5625 0)"/>
     <use xlink:href="#DejaVuSans-39" transform="translate(465.185547 0)"/>
     <use xlink:href="#DejaVuSans-2e" transform="translate(528.808594 0)"/>
     <use xlink:href="#DejaVuSans-33" transform="translate(560.595703 0)"/>
     <use xlink:href="#DejaVuSans-34" transform="translate(624.21875 0)"/>
     <use xlink:href="#DejaVuSans-38" transform="translate(687.841797 0)"/>
    </g>
   </g>
   <g id="text_17">
    <!-- Median: 718.21 -->
    <g style="fill: #008000" transform="translate(197.052412 38.525552) scale(0.11 -0.11)">
     <defs>
      <path id="DejaVuSans-64" d="M 2906 2969 
L 2906 4863 
L 3481 4863 
L 3481 0 
L 2906 0 
L 2906 525 
Q 2725 213 2448 61 
Q 2172 -91 1784 -91 
Q 1150 -91 751 415 
Q 353 922 353 1747 
Q 353 2572 751 3078 
Q 1150 3584 1784 3584 
Q 2172 3584 2448 3432 
Q 2725 3281 2906 2969 
z
M 947 1747 
Q 947 1113 1208 752 
Q 1469 391 1925 391 
Q 2381 391 2643 752 
Q 2906 1113 2906 1747 
Q 2906 2381 2643 2742 
Q 2381 3103 1925 3103 
Q 1469 3103 1208 2742 
Q 947 2381 947 1747 
z
" transform="scale(0.015625)"/>
     </defs>
     <use xlink:href="#DejaVuSans-4d"/>
     <use xlink:href="#DejaVuSans-65" transform="translate(86.279297 0)"/>
     <use xlink:href="#DejaVuSans-64" transform="translate(147.802734 0)"/>
     <use xlink:href="#DejaVuSans-69" transform="translate(211.279297 0)"/>
     <use xlink:href="#DejaVuSans-61" transform="translate(239.0625 0)"/>
     <use xlink:href="#DejaVuSans-6e" transform="translate(300.341797 0)"/>
     <use xlink:href="#DejaVuSans-3a" transform="translate(363.720703 0)"/>
     <use xlink:href="#DejaVuSans-20" transform="translate(397.412109 0)"/>
     <use xlink:href="#DejaVuSans-37" transform="translate(429.199219 0)"/>
     <use xlink:href="#DejaVuSans-31" transform="translate(492.822266 0)"/>
     <use xlink:href="#DejaVuSans-38" transform="translate(556.445312 0)"/>
     <use xlink:href="#DejaVuSans-2e" transform="translate(620.068359 0)"/>
     <use xlink:href="#DejaVuSans-32" transform="translate(651.855469 0)"/>
     <use xlink:href="#DejaVuSans-31" transform="translate(715.478516 0)"/>
    </g>
   </g>
   <g id="text_18">
    <!-- 95% CI: -->
    <g style="fill: #ffa500" transform="translate(412.941312 94.958516) scale(0.11 -0.11)">
     <defs>
      <path id="DejaVuSans-25" d="M 4653 2053 
Q 4381 2053 4226 1822 
Q 4072 1591 4072 1178 
Q 4072 772 4226 539 
Q 4381 306 4653 306 
Q 4919 306 5073 539 
Q 5228 772 5228 1178 
Q 5228 1588 5073 1820 
Q 4919 2053 4653 2053 
z
M 4653 2450 
Q 5147 2450 5437 2106 
Q 5728 1763 5728 1178 
Q 5728 594 5436 251 
Q 5144 -91 4653 -91 
Q 4153 -91 3862 251 
Q 3572 594 3572 1178 
Q 3572 1766 3864 2108 
Q 4156 2450 4653 2450 
z
M 1428 4353 
Q 1159 4353 1004 4120 
Q 850 3888 850 3481 
Q 850 3069 1003 2837 
Q 1156 2606 1428 2606 
Q 1700 2606 1854 2837 
Q 2009 3069 2009 3481 
Q 2009 3884 1853 4118 
Q 1697 4353 1428 4353 
z
M 4250 4750 
L 4750 4750 
L 1831 -91 
L 1331 -91 
L 4250 4750 
z
M 1428 4750 
Q 1922 4750 2215 4408 
Q 2509 4066 2509 3481 
Q 2509 2891 2217 2550 
Q 1925 2209 1428 2209 
Q 931 2209 642 2551 
Q 353 2894 353 3481 
Q 353 4063 643 4406 
Q 934 4750 1428 4750 
z
" transform="scale(0.015625)"/>
      <path id="DejaVuSans-43" d="M 4122 4306 
L 4122 3641 
Q 3803 3938 3442 4084 
Q 3081 4231 2675 4231 
Q 1875 4231 1450 3742 
Q 1025 3253 1025 2328 
Q 1025 1406 1450 917 
Q 1875 428 2675 428 
Q 3081 428 3442 575 
Q 3803 722 4122 1019 
L 4122 359 
Q 3791 134 3420 21 
Q 3050 -91 2638 -91 
Q 1578 -91 968 557 
Q 359 1206 359 2328 
Q 359 3453 968 4101 
Q 1578 4750 2638 4750 
Q 3056 4750 3426 4639 
Q 3797 4528 4122 4306 
z
" transform="scale(0.015625)"/>
      <path id="DejaVuSans-49" d="M 628 4666 
L 1259 4666 
L 1259 0 
L 628 0 
L 628 4666 
z
" transform="scale(0.015625)"/>
     </defs>
     <use xlink:href="#DejaVuSans-39"/>
     <use xlink:href="#DejaVuSans-35" transform="translate(63.623047 0)"/>
     <use xlink:href="#DejaVuSans-25" transform="translate(127.246094 0)"/>
     <use xlink:href="#DejaVuSans-20" transform="translate(222.265625 0)"/>
     <use xlink:href="#DejaVuSans-43" transform="translate(254.052734 0)"/>
     <use xlink:href="#DejaVuSans-49" transform="translate(323.876953 0)"/>
     <use xlink:href="#DejaVuSans-3a" transform="translate(353.369141 0)"/>
    </g>
    <!-- [717.59, 719.12] -->
    <g style="fill: #ffa500" transform="translate(387.952406 107.276109) scale(0.11 -0.11)">
     <defs>
      <path id="DejaVuSans-5b" d="M 550 4863 
L 1875 4863 
L 1875 4416 
L 1125 4416 
L 1125 -397 
L 1875 -397 
L 1875 -844 
L 550 -844 
L 550 4863 
z
" transform="scale(0.015625)"/>
      <path id="DejaVuSans-2c" d="M 750 794 
L 1409 794 
L 1409 256 
L 897 -744 
L 494 -744 
L 750 256 
L 750 794 
z
" transform="scale(0.015625)"/>
      <path id="DejaVuSans-5d" d="M 1947 4863 
L 1947 -844 
L 622 -844 
L 622 -397 
L 1369 -397 
L 1369 4416 
L 622 4416 
L 622 4863 
L 1947 4863 
z
" transform="scale(0.015625)"/>
     </defs>
     <use xlink:href="#DejaVuSans-5b"/>
     <use xlink:href="#DejaVuSans-37" transform="translate(39.013672 0)"/>
     <use xlink:href="#DejaVuSans-31" transform="translate(102.636719 0)"/>
     <use xlink:href="#DejaVuSans-37" transform="translate(166.259766 0)"/>
     <use xlink:href="#DejaVuSans-2e" transform="translate(229.882812 0)"/>
     <use xlink:href="#DejaVuSans-35" transform="translate(261.669922 0)"/>
     <use xlink:href="#DejaVuSans-39" transform="translate(325.292969 0)"/>
     <use xlink:href="#DejaVuSans-2c" transform="translate(388.916016 0)"/>
     <use xlink:href="#DejaVuSans-20" transform="translate(420.703125 0)"/>
     <use xlink:href="#DejaVuSans-37" transform="translate(452.490234 0)"/>
     <use xlink:href="#DejaVuSans-31" transform="translate(516.113281 0)"/>
     <use xlink:href="#DejaVuSans-39" transform="translate(579.736328 0)"/>
     <use xlink:href="#DejaVuSans-2e" transform="translate(643.359375 0)"/>
     <use xlink:href="#DejaVuSans-31" transform="translate(675.146484 0)"/>
     <use xlink:href="#DejaVuSans-32" transform="translate(738.769531 0)"/>
     <use xlink:href="#DejaVuSans-5d" transform="translate(802.392578 0)"/>
    </g>
   </g>
   <g id="text_19">
    <!-- Kernel Density Estimation of Execution Time of Image Proc with IO over 1000 iterations -->
    <g style="fill: #262626" transform="translate(104.58075 17.568) scale(0.096 -0.096)">
     <defs>
      <path id="DejaVuSans-4b" d="M 628 4666 
L 1259 4666 
L 1259 2694 
L 3353 4666 
L 4166 4666 
L 1850 2491 
L 4331 0 
L 3500 0 
L 1259 2247 
L 1259 0 
L 628 0 
L 628 4666 
z
" transform="scale(0.015625)"/>
      <path id="DejaVuSans-72" d="M 2631 2963 
Q 2534 3019 2420 3045 
Q 2306 3072 2169 3072 
Q 1681 3072 1420 2755 
Q 1159 2438 1159 1844 
L 1159 0 
L 581 0 
L 581 3500 
L 1159 3500 
L 1159 2956 
Q 1341 3275 1631 3429 
Q 1922 3584 2338 3584 
Q 2397 3584 2469 3576 
Q 2541 3569 2628 3553 
L 2631 2963 
z
" transform="scale(0.015625)"/>
      <path id="DejaVuSans-6c" d="M 603 4863 
L 1178 4863 
L 1178 0 
L 603 0 
L 603 4863 
z
" transform="scale(0.015625)"/>
      <path id="DejaVuSans-66" d="M 2375 4863 
L 2375 4384 
L 1825 4384 
Q 1516 4384 1395 4259 
Q 1275 4134 1275 3809 
L 1275 3500 
L 2222 3500 
L 2222 3053 
L 1275 3053 
L 1275 0 
L 697 0 
L 697 3053 
L 147 3053 
L 147 3500 
L 697 3500 
L 697 3744 
Q 697 4328 969 4595 
Q 1241 4863 1831 4863 
L 2375 4863 
z
" transform="scale(0.015625)"/>
      <path id="DejaVuSans-67" d="M 2906 1791 
Q 2906 2416 2648 2759 
Q 2391 3103 1925 3103 
Q 1463 3103 1205 2759 
Q 947 2416 947 1791 
Q 947 1169 1205 825 
Q 1463 481 1925 481 
Q 2391 481 2648 825 
Q 2906 1169 2906 1791 
z
M 3481 434 
Q 3481 -459 3084 -895 
Q 2688 -1331 1869 -1331 
Q 1566 -1331 1297 -1286 
Q 1028 -1241 775 -1147 
L 775 -588 
Q 1028 -725 1275 -790 
Q 1522 -856 1778 -856 
Q 2344 -856 2625 -561 
Q 2906 -266 2906 331 
L 2906 616 
Q 2728 306 2450 153 
Q 2172 0 1784 0 
Q 1141 0 747 490 
Q 353 981 353 1791 
Q 353 2603 747 3093 
Q 1141 3584 1784 3584 
Q 2172 3584 2450 3431 
Q 2728 3278 2906 2969 
L 2906 3500 
L 3481 3500 
L 3481 434 
z
" transform="scale(0.015625)"/>
      <path id="DejaVuSans-50" d="M 1259 4147 
L 1259 2394 
L 2053 2394 
Q 2494 2394 2734 2622 
Q 2975 2850 2975 3272 
Q 2975 3691 2734 3919 
Q 2494 4147 2053 4147 
L 1259 4147 
z
M 628 4666 
L 2053 4666 
Q 2838 4666 3239 4311 
Q 3641 3956 3641 3272 
Q 3641 2581 3239 2228 
Q 2838 1875 2053 1875 
L 1259 1875 
L 1259 0 
L 628 0 
L 628 4666 
z
" transform="scale(0.015625)"/>
      <path id="DejaVuSans-77" d="M 269 3500 
L 844 3500 
L 1563 769 
L 2278 3500 
L 2956 3500 
L 3675 769 
L 4391 3500 
L 4966 3500 
L 4050 0 
L 3372 0 
L 2619 2869 
L 1863 0 
L 1184 0 
L 269 3500 
z
" transform="scale(0.015625)"/>
      <path id="DejaVuSans-68" d="M 3513 2113 
L 3513 0 
L 2938 0 
L 2938 2094 
Q 2938 2591 2744 2837 
Q 2550 3084 2163 3084 
Q 1697 3084 1428 2787 
Q 1159 2491 1159 1978 
L 1159 0 
L 581 0 
L 581 4863 
L 1159 4863 
L 1159 2956 
Q 1366 3272 1645 3428 
Q 1925 3584 2291 3584 
Q 2894 3584 3203 3211 
Q 3513 2838 3513 2113 
z
" transform="scale(0.015625)"/>
      <path id="DejaVuSans-4f" d="M 2522 4238 
Q 1834 4238 1429 3725 
Q 1025 3213 1025 2328 
Q 1025 1447 1429 934 
Q 1834 422 2522 422 
Q 3209 422 3611 934 
Q 4013 1447 4013 2328 
Q 4013 3213 3611 3725 
Q 3209 4238 2522 4238 
z
M 2522 4750 
Q 3503 4750 4090 4092 
Q 4678 3434 4678 2328 
Q 4678 1225 4090 567 
Q 3503 -91 2522 -91 
Q 1538 -91 948 565 
Q 359 1222 359 2328 
Q 359 3434 948 4092 
Q 1538 4750 2522 4750 
z
" transform="scale(0.015625)"/>
      <path id="DejaVuSans-76" d="M 191 3500 
L 800 3500 
L 1894 563 
L 2988 3500 
L 3597 3500 
L 2284 0 
L 1503 0 
L 191 3500 
z
" transform="scale(0.015625)"/>
     </defs>
     <use xlink:href="#DejaVuSans-4b"/>
     <use xlink:href="#DejaVuSans-65" transform="translate(60.576172 0)"/>
     <use xlink:href="#DejaVuSans-72" transform="translate(122.099609 0)"/>
     <use xlink:href="#DejaVuSans-6e" transform="translate(161.462891 0)"/>
     <use xlink:href="#DejaVuSans-65" transform="translate(224.841797 0)"/>
     <use xlink:href="#DejaVuSans-6c" transform="translate(286.365234 0)"/>
     <use xlink:href="#DejaVuSans-20" transform="translate(314.148438 0)"/>
     <use xlink:href="#DejaVuSans-44" transform="translate(345.935547 0)"/>
     <use xlink:href="#DejaVuSans-65" transform="translate(422.9375 0)"/>
     <use xlink:href="#DejaVuSans-6e" transform="translate(484.460938 0)"/>
     <use xlink:href="#DejaVuSans-73" transform="translate(547.839844 0)"/>
     <use xlink:href="#DejaVuSans-69" transform="translate(599.939453 0)"/>
     <use xlink:href="#DejaVuSans-74" transform="translate(627.722656 0)"/>
     <use xlink:href="#DejaVuSans-79" transform="translate(666.931641 0)"/>
     <use xlink:href="#DejaVuSans-20" transform="translate(726.111328 0)"/>
     <use xlink:href="#DejaVuSans-45" transform="translate(757.898438 0)"/>
     <use xlink:href="#DejaVuSans-73" transform="translate(821.082031 0)"/>
     <use xlink:href="#DejaVuSans-74" transform="translate(873.181641 0)"/>
     <use xlink:href="#DejaVuSans-69" transform="translate(912.390625 0)"/>
     <use xlink:href="#DejaVuSans-6d" transform="translate(940.173828 0)"/>
     <use xlink:href="#DejaVuSans-61" transform="translate(1037.585938 0)"/>
     <use xlink:href="#DejaVuSans-74" transform="translate(1098.865234 0)"/>
     <use xlink:href="#DejaVuSans-69" transform="translate(1138.074219 0)"/>
     <use xlink:href="#DejaVuSans-6f" transform="translate(1165.857422 0)"/>
     <use xlink:href="#DejaVuSans-6e" transform="translate(1227.039062 0)"/>
     <use xlink:href="#DejaVuSans-20" transform="translate(1290.417969 0)"/>
     <use xlink:href="#DejaVuSans-6f" transform="translate(1322.205078 0)"/>
     <use xlink:href="#DejaVuSans-66" transform="translate(1383.386719 0)"/>
     <use xlink:href="#DejaVuSans-20" transform="translate(1418.591797 0)"/>
     <use xlink:href="#DejaVuSans-45" transform="translate(1450.378906 0)"/>
     <use xlink:href="#DejaVuSans-78" transform="translate(1513.5625 0)"/>
     <use xlink:href="#DejaVuSans-65" transform="translate(1569.617188 0)"/>
     <use xlink:href="#DejaVuSans-63" transform="translate(1631.140625 0)"/>
     <use xlink:href="#DejaVuSans-75" transform="translate(1686.121094 0)"/>
     <use xlink:href="#DejaVuSans-74" transform="translate(1749.5 0)"/>
     <use xlink:href="#DejaVuSans-69" transform="translate(1788.708984 0)"/>
     <use xlink:href="#DejaVuSans-6f" transform="translate(1816.492188 0)"/>
     <use xlink:href="#DejaVuSans-6e" transform="translate(1877.673828 0)"/>
     <use xlink:href="#DejaVuSans-20" transform="translate(1941.052734 0)"/>
     <use xlink:href="#DejaVuSans-54" transform="translate(1972.839844 0)"/>
     <use xlink:href="#DejaVuSans-69" transform="translate(2030.798828 0)"/>
     <use xlink:href="#DejaVuSans-6d" transform="translate(2058.582031 0)"/>
     <use xlink:href="#DejaVuSans-65" transform="translate(2155.994141 0)"/>
     <use xlink:href="#DejaVuSans-20" transform="translate(2217.517578 0)"/>
     <use xlink:href="#DejaVuSans-6f" transform="translate(2249.304688 0)"/>
     <use xlink:href="#DejaVuSans-66" transform="translate(2310.486328 0)"/>
     <use xlink:href="#DejaVuSans-20" transform="translate(2345.691406 0)"/>
     <use xlink:href="#DejaVuSans-49" transform="translate(2377.478516 0)"/>
     <use xlink:href="#DejaVuSans-6d" transform="translate(2406.970703 0)"/>
     <use xlink:href="#DejaVuSans-61" transform="translate(2504.382812 0)"/>
     <use xlink:href="#DejaVuSans-67" transform="translate(2565.662109 0)"/>
     <use xlink:href="#DejaVuSans-65" transform="translate(2629.138672 0)"/>
     <use xlink:href="#DejaVuSans-20" transform="translate(2690.662109 0)"/>
     <use xlink:href="#DejaVuSans-50" transform="translate(2722.449219 0)"/>
     <use xlink:href="#DejaVuSans-72" transform="translate(2781.001953 0)"/>
     <use xlink:href="#DejaVuSans-6f" transform="translate(2819.865234 0)"/>
     <use xlink:href="#DejaVuSans-63" transform="translate(2881.046875 0)"/>
     <use xlink:href="#DejaVuSans-20" transform="translate(2936.027344 0)"/>
     <use xlink:href="#DejaVuSans-77" transform="translate(2967.814453 0)"/>
     <use xlink:href="#DejaVuSans-69" transform="translate(3049.601562 0)"/>
     <use xlink:href="#DejaVuSans-74" transform="translate(3077.384766 0)"/>
     <use xlink:href="#DejaVuSans-68" transform="translate(3116.59375 0)"/>
     <use xlink:href="#DejaVuSans-20" transform="translate(3179.972656 0)"/>
     <use xlink:href="#DejaVuSans-49" transform="translate(3211.759766 0)"/>
     <use xlink:href="#DejaVuSans-4f" transform="translate(3241.251953 0)"/>
     <use xlink:href="#DejaVuSans-20" transform="translate(3319.962891 0)"/>
     <use xlink:href="#DejaVuSans-6f" transform="translate(3351.75 0)"/>
     <use xlink:href="#DejaVuSans-76" transform="translate(3412.931641 0)"/>
     <use xlink:href="#DejaVuSans-65" transform="translate(3472.111328 0)"/>
     <use xlink:href="#DejaVuSans-72" transform="translate(3533.634766 0)"/>
     <use xlink:href="#DejaVuSans-20" transform="translate(3574.748047 0)"/>
     <use xlink:href="#DejaVuSans-31" transform="translate(3606.535156 0)"/>
     <use xlink:href="#DejaVuSans-30" transform="translate(3670.158203 0)"/>
     <use xlink:href="#DejaVuSans-30" transform="translate(3733.78125 0)"/>
     <use xlink:href="#DejaVuSans-30" transform="translate(3797.404297 0)"/>
     <use xlink:href="#DejaVuSans-20" transform="translate(3861.027344 0)"/>
     <use xlink:href="#DejaVuSans-69" transform="translate(3892.814453 0)"/>
     <use xlink:href="#DejaVuSans-74" transform="translate(3920.597656 0)"/>
     <use xlink:href="#DejaVuSans-65" transform="translate(3959.806641 0)"/>
     <use xlink:href="#DejaVuSans-72" transform="translate(4021.330078 0)"/>
     <use xlink:href="#DejaVuSans-61" transform="translate(4062.443359 0)"/>
     <use xlink:href="#DejaVuSans-74" transform="translate(4123.722656 0)"/>
     <use xlink:href="#DejaVuSans-69" transform="translate(4162.931641 0)"/>
     <use xlink:href="#DejaVuSans-6f" transform="translate(4190.714844 0)"/>
     <use xlink:href="#DejaVuSans-6e" transform="translate(4251.896484 0)"/>
     <use xlink:href="#DejaVuSans-73" transform="translate(4315.275391 0)"/>
    </g>
   </g>
  </g>
  <g id="axes_2">
   <g id="patch_7">
    <path d="M 74.178 383.412 
L 554.247 383.412 
L 554.247 234.384 
L 74.178 234.384 
z
" style="fill: #ffffff"/>
   </g>
   <g id="matplotlib.axis_3">
    <g id="xtick_8">
     <g id="line2d_29">
      <path d="M 74.178 383.412 
L 74.178 234.384 
" clip-path="url(#pcaf034b2cf)" style="fill: none; stroke-dasharray: 2.59,1.12; stroke-dashoffset: 0; stroke: #cccccc; stroke-opacity: 0.7; stroke-width: 0.7"/>
     </g>
     <g id="line2d_30">
      <g>
       <use xlink:href="#m535274d09e" x="74.178" y="383.412" style="fill: #262626; stroke: #262626"/>
      </g>
     </g>
     <g id="text_20">
      <!-- 370 -->
      <g transform="translate(62.7255 400.830125) scale(0.12 -0.12)">
       <use xlink:href="#DejaVuSans-33"/>
       <use xlink:href="#DejaVuSans-37" transform="translate(63.623047 0)"/>
       <use xlink:href="#DejaVuSans-30" transform="translate(127.246094 0)"/>
      </g>
     </g>
    </g>
    <g id="xtick_9">
     <g id="line2d_31">
      <path d="M 170.1918 383.412 
L 170.1918 234.384 
" clip-path="url(#pcaf034b2cf)" style="fill: none; stroke-dasharray: 2.59,1.12; stroke-dashoffset: 0; stroke: #cccccc; stroke-opacity: 0.7; stroke-width: 0.7"/>
     </g>
     <g id="line2d_32">
      <g>
       <use xlink:href="#m535274d09e" x="170.1918" y="383.412" style="fill: #262626; stroke: #262626"/>
      </g>
     </g>
     <g id="text_21">
      <!-- 380 -->
      <g transform="translate(158.7393 400.830125) scale(0.12 -0.12)">
       <use xlink:href="#DejaVuSans-33"/>
       <use xlink:href="#DejaVuSans-38" transform="translate(63.623047 0)"/>
       <use xlink:href="#DejaVuSans-30" transform="translate(127.246094 0)"/>
      </g>
     </g>
    </g>
    <g id="xtick_10">
     <g id="line2d_33">
      <path d="M 266.2056 383.412 
L 266.2056 234.384 
" clip-path="url(#pcaf034b2cf)" style="fill: none; stroke-dasharray: 2.59,1.12; stroke-dashoffset: 0; stroke: #cccccc; stroke-opacity: 0.7; stroke-width: 0.7"/>
     </g>
     <g id="line2d_34">
      <g>
       <use xlink:href="#m535274d09e" x="266.2056" y="383.412" style="fill: #262626; stroke: #262626"/>
      </g>
     </g>
     <g id="text_22">
      <!-- 390 -->
      <g transform="translate(254.7531 400.830125) scale(0.12 -0.12)">
       <use xlink:href="#DejaVuSans-33"/>
       <use xlink:href="#DejaVuSans-39" transform="translate(63.623047 0)"/>
       <use xlink:href="#DejaVuSans-30" transform="translate(127.246094 0)"/>
      </g>
     </g>
    </g>
    <g id="xtick_11">
     <g id="line2d_35">
      <path d="M 362.2194 383.412 
L 362.2194 234.384 
" clip-path="url(#pcaf034b2cf)" style="fill: none; stroke-dasharray: 2.59,1.12; stroke-dashoffset: 0; stroke: #cccccc; stroke-opacity: 0.7; stroke-width: 0.7"/>
     </g>
     <g id="line2d_36">
      <g>
       <use xlink:href="#m535274d09e" x="362.2194" y="383.412" style="fill: #262626; stroke: #262626"/>
      </g>
     </g>
     <g id="text_23">
      <!-- 400 -->
      <g transform="translate(350.7669 400.830125) scale(0.12 -0.12)">
       <use xlink:href="#DejaVuSans-34"/>
       <use xlink:href="#DejaVuSans-30" transform="translate(63.623047 0)"/>
       <use xlink:href="#DejaVuSans-30" transform="translate(127.246094 0)"/>
      </g>
     </g>
    </g>
    <g id="xtick_12">
     <g id="line2d_37">
      <path d="M 458.2332 383.412 
L 458.2332 234.384 
" clip-path="url(#pcaf034b2cf)" style="fill: none; stroke-dasharray: 2.59,1.12; stroke-dashoffset: 0; stroke: #cccccc; stroke-opacity: 0.7; stroke-width: 0.7"/>
     </g>
     <g id="line2d_38">
      <g>
       <use xlink:href="#m535274d09e" x="458.2332" y="383.412" style="fill: #262626; stroke: #262626"/>
      </g>
     </g>
     <g id="text_24">
      <!-- 410 -->
      <g transform="translate(446.7807 400.830125) scale(0.12 -0.12)">
       <use xlink:href="#DejaVuSans-34"/>
       <use xlink:href="#DejaVuSans-31" transform="translate(63.623047 0)"/>
       <use xlink:href="#DejaVuSans-30" transform="translate(127.246094 0)"/>
      </g>
     </g>
    </g>
    <g id="xtick_13">
     <g id="line2d_39">
      <path d="M 554.247 383.412 
L 554.247 234.384 
" clip-path="url(#pcaf034b2cf)" style="fill: none; stroke-dasharray: 2.59,1.12; stroke-dashoffset: 0; stroke: #cccccc; stroke-opacity: 0.7; stroke-width: 0.7"/>
     </g>
     <g id="line2d_40">
      <g>
       <use xlink:href="#m535274d09e" x="554.247" y="383.412" style="fill: #262626; stroke: #262626"/>
      </g>
     </g>
     <g id="text_25">
      <!-- 420 -->
      <g transform="translate(542.7945 400.830125) scale(0.12 -0.12)">
       <use xlink:href="#DejaVuSans-34"/>
       <use xlink:href="#DejaVuSans-32" transform="translate(63.623047 0)"/>
       <use xlink:href="#DejaVuSans-30" transform="translate(127.246094 0)"/>
      </g>
     </g>
    </g>
    <g id="text_26">
     <!-- Execution Time (ms) -->
     <g transform="translate(252.625312 416.443875) scale(0.12 -0.12)">
      <use xlink:href="#DejaVuSans-45"/>
      <use xlink:href="#DejaVuSans-78" transform="translate(63.183594 0)"/>
      <use xlink:href="#DejaVuSans-65" transform="translate(119.238281 0)"/>
      <use xlink:href="#DejaVuSans-63" transform="translate(180.761719 0)"/>
      <use xlink:href="#DejaVuSans-75" transform="translate(235.742188 0)"/>
      <use xlink:href="#DejaVuSans-74" transform="translate(299.121094 0)"/>
      <use xlink:href="#DejaVuSans-69" transform="translate(338.330078 0)"/>
      <use xlink:href="#DejaVuSans-6f" transform="translate(366.113281 0)"/>
      <use xlink:href="#DejaVuSans-6e" transform="translate(427.294922 0)"/>
      <use xlink:href="#DejaVuSans-20" transform="translate(490.673828 0)"/>
      <use xlink:href="#DejaVuSans-54" transform="translate(522.460938 0)"/>
      <use xlink:href="#DejaVuSans-69" transform="translate(580.419922 0)"/>
      <use xlink:href="#DejaVuSans-6d" transform="translate(608.203125 0)"/>
      <use xlink:href="#DejaVuSans-65" transform="translate(705.615234 0)"/>
      <use xlink:href="#DejaVuSans-20" transform="translate(767.138672 0)"/>
      <use xlink:href="#DejaVuSans-28" transform="translate(798.925781 0)"/>
      <use xlink:href="#DejaVuSans-6d" transform="translate(837.939453 0)"/>
      <use xlink:href="#DejaVuSans-73" transform="translate(935.351562 0)"/>
      <use xlink:href="#DejaVuSans-29" transform="translate(987.451172 0)"/>
     </g>
    </g>
   </g>
   <g id="matplotlib.axis_4">
    <g id="ytick_7">
     <g id="line2d_41">
      <path d="M 74.178 383.412 
L 554.247 383.412 
" clip-path="url(#pcaf034b2cf)" style="fill: none; stroke-dasharray: 2.59,1.12; stroke-dashoffset: 0; stroke: #cccccc; stroke-opacity: 0.7; stroke-width: 0.7"/>
     </g>
     <g id="line2d_42">
      <g>
       <use xlink:href="#me4cf934d6b" x="74.178" y="383.412" style="fill: #262626; stroke: #262626"/>
      </g>
     </g>
     <g id="text_27">
      <!-- 0.00 -->
      <g transform="translate(39.15925 387.971063) scale(0.12 -0.12)">
       <use xlink:href="#DejaVuSans-30"/>
       <use xlink:href="#DejaVuSans-2e" transform="translate(63.623047 0)"/>
       <use xlink:href="#DejaVuSans-30" transform="translate(95.410156 0)"/>
       <use xlink:href="#DejaVuSans-30" transform="translate(159.033203 0)"/>
      </g>
     </g>
    </g>
    <g id="ytick_8">
     <g id="line2d_43">
      <path d="M 74.178 353.6064 
L 554.247 353.6064 
" clip-path="url(#pcaf034b2cf)" style="fill: none; stroke-dasharray: 2.59,1.12; stroke-dashoffset: 0; stroke: #cccccc; stroke-opacity: 0.7; stroke-width: 0.7"/>
     </g>
     <g id="line2d_44">
      <g>
       <use xlink:href="#me4cf934d6b" x="74.178" y="353.6064" style="fill: #262626; stroke: #262626"/>
      </g>
     </g>
     <g id="text_28">
      <!-- 0.01 -->
      <g transform="translate(39.15925 358.165462) scale(0.12 -0.12)">
       <use xlink:href="#DejaVuSans-30"/>
       <use xlink:href="#DejaVuSans-2e" transform="translate(63.623047 0)"/>
       <use xlink:href="#DejaVuSans-30" transform="translate(95.410156 0)"/>
       <use xlink:href="#DejaVuSans-31" transform="translate(159.033203 0)"/>
      </g>
     </g>
    </g>
    <g id="ytick_9">
     <g id="line2d_45">
      <path d="M 74.178 323.8008 
L 554.247 323.8008 
" clip-path="url(#pcaf034b2cf)" style="fill: none; stroke-dasharray: 2.59,1.12; stroke-dashoffset: 0; stroke: #cccccc; stroke-opacity: 0.7; stroke-width: 0.7"/>
     </g>
     <g id="line2d_46">
      <g>
       <use xlink:href="#me4cf934d6b" x="74.178" y="323.8008" style="fill: #262626; stroke: #262626"/>
      </g>
     </g>
     <g id="text_29">
      <!-- 0.02 -->
      <g transform="translate(39.15925 328.359863) scale(0.12 -0.12)">
       <use xlink:href="#DejaVuSans-30"/>
       <use xlink:href="#DejaVuSans-2e" transform="translate(63.623047 0)"/>
       <use xlink:href="#DejaVuSans-30" transform="translate(95.410156 0)"/>
       <use xlink:href="#DejaVuSans-32" transform="translate(159.033203 0)"/>
      </g>
     </g>
    </g>
    <g id="ytick_10">
     <g id="line2d_47">
      <path d="M 74.178 293.9952 
L 554.247 293.9952 
" clip-path="url(#pcaf034b2cf)" style="fill: none; stroke-dasharray: 2.59,1.12; stroke-dashoffset: 0; stroke: #cccccc; stroke-opacity: 0.7; stroke-width: 0.7"/>
     </g>
     <g id="line2d_48">
      <g>
       <use xlink:href="#me4cf934d6b" x="74.178" y="293.9952" style="fill: #262626; stroke: #262626"/>
      </g>
     </g>
     <g id="text_30">
      <!-- 0.03 -->
      <g transform="translate(39.15925 298.554263) scale(0.12 -0.12)">
       <use xlink:href="#DejaVuSans-30"/>
       <use xlink:href="#DejaVuSans-2e" transform="translate(63.623047 0)"/>
       <use xlink:href="#DejaVuSans-30" transform="translate(95.410156 0)"/>
       <use xlink:href="#DejaVuSans-33" transform="translate(159.033203 0)"/>
      </g>
     </g>
    </g>
    <g id="ytick_11">
     <g id="line2d_49">
      <path d="M 74.178 264.1896 
L 554.247 264.1896 
" clip-path="url(#pcaf034b2cf)" style="fill: none; stroke-dasharray: 2.59,1.12; stroke-dashoffset: 0; stroke: #cccccc; stroke-opacity: 0.7; stroke-width: 0.7"/>
     </g>
     <g id="line2d_50">
      <g>
       <use xlink:href="#me4cf934d6b" x="74.178" y="264.1896" style="fill: #262626; stroke: #262626"/>
      </g>
     </g>
     <g id="text_31">
      <!-- 0.04 -->
      <g transform="translate(39.15925 268.748663) scale(0.12 -0.12)">
       <use xlink:href="#DejaVuSans-30"/>
       <use xlink:href="#DejaVuSans-2e" transform="translate(63.623047 0)"/>
       <use xlink:href="#DejaVuSans-30" transform="translate(95.410156 0)"/>
       <use xlink:href="#DejaVuSans-34" transform="translate(159.033203 0)"/>
      </g>
     </g>
    </g>
    <g id="ytick_12">
     <g id="line2d_51">
      <path d="M 74.178 234.384 
L 554.247 234.384 
" clip-path="url(#pcaf034b2cf)" style="fill: none; stroke-dasharray: 2.59,1.12; stroke-dashoffset: 0; stroke: #cccccc; stroke-opacity: 0.7; stroke-width: 0.7"/>
     </g>
     <g id="line2d_52">
      <g>
       <use xlink:href="#me4cf934d6b" x="74.178" y="234.384" style="fill: #262626; stroke: #262626"/>
      </g>
     </g>
     <g id="text_32">
      <!-- 0.05 -->
      <g transform="translate(39.15925 238.943062) scale(0.12 -0.12)">
       <use xlink:href="#DejaVuSans-30"/>
       <use xlink:href="#DejaVuSans-2e" transform="translate(63.623047 0)"/>
       <use xlink:href="#DejaVuSans-30" transform="translate(95.410156 0)"/>
       <use xlink:href="#DejaVuSans-35" transform="translate(159.033203 0)"/>
      </g>
     </g>
    </g>
    <g id="text_33">
     <!-- Density -->
     <g transform="translate(20.663625 331.708312) rotate(-90) scale(0.12 -0.12)">
      <use xlink:href="#DejaVuSans-44"/>
      <use xlink:href="#DejaVuSans-65" transform="translate(77.001953 0)"/>
      <use xlink:href="#DejaVuSans-6e" transform="translate(138.525391 0)"/>
      <use xlink:href="#DejaVuSans-73" transform="translate(201.904297 0)"/>
      <use xlink:href="#DejaVuSans-69" transform="translate(254.003906 0)"/>
      <use xlink:href="#DejaVuSans-74" transform="translate(281.787109 0)"/>
      <use xlink:href="#DejaVuSans-79" transform="translate(320.996094 0)"/>
     </g>
    </g>
   </g>
   <g id="FillBetweenPolyCollection_3">
    <path d="M 0.676006 383.405458 
L 0.676006 383.412 
L 5.348564 383.412 
L 10.021123 383.412 
L 14.693681 383.412 
L 19.366239 383.412 
L 24.038797 383.412 
L 28.711356 383.412 
L 33.383914 383.412 
L 38.056472 383.412 
L 42.72903 383.412 
L 47.401589 383.412 
L 52.074147 383.412 
L 56.746705 383.412 
L 61.419263 383.412 
L 66.091822 383.412 
L 70.76438 383.412 
L 75.436938 383.412 
L 80.109496 383.412 
L 84.782055 383.412 
L 89.454613 383.412 
L 94.127171 383.412 
L 98.79973 383.412 
L 103.472288 383.412 
L 108.144846 383.412 
L 112.817404 383.412 
L 117.489963 383.412 
L 122.162521 383.412 
L 126.835079 383.412 
L 131.507637 383.412 
L 136.180196 383.412 
L 140.852754 383.412 
L 145.525312 383.412 
L 150.19787 383.412 
L 154.870429 383.412 
L 159.542987 383.412 
L 164.215545 383.412 
L 168.888103 383.412 
L 173.560662 383.412 
L 178.23322 383.412 
L 182.905778 383.412 
L 187.578336 383.412 
L 192.250895 383.412 
L 196.923453 383.412 
L 201.596011 383.412 
L 206.268569 383.412 
L 210.941128 383.412 
L 215.613686 383.412 
L 220.286244 383.412 
L 224.958802 383.412 
L 229.631361 383.412 
L 234.303919 383.412 
L 238.976477 383.412 
L 243.649035 383.412 
L 248.321594 383.412 
L 252.994152 383.412 
L 257.66671 383.412 
L 262.339268 383.412 
L 267.011827 383.412 
L 271.684385 383.412 
L 276.356943 383.412 
L 281.029501 383.412 
L 285.70206 383.412 
L 290.374618 383.412 
L 295.047176 383.412 
L 299.719735 383.412 
L 304.392293 383.412 
L 309.064851 383.412 
L 313.737409 383.412 
L 318.409968 383.412 
L 323.082526 383.412 
L 327.755084 383.412 
L 332.427642 383.412 
L 337.100201 383.412 
L 341.772759 383.412 
L 346.445317 383.412 
L 351.117875 383.412 
L 355.790434 383.412 
L 360.462992 383.412 
L 365.13555 383.412 
L 369.808108 383.412 
L 374.480667 383.412 
L 379.153225 383.412 
L 383.825783 383.412 
L 388.498341 383.412 
L 393.1709 383.412 
L 397.843458 383.412 
L 402.516016 383.412 
L 407.188574 383.412 
L 411.861133 383.412 
L 416.533691 383.412 
L 421.206249 383.412 
L 425.878807 383.412 
L 430.551366 383.412 
L 435.223924 383.412 
L 439.896482 383.412 
L 444.56904 383.412 
L 449.241599 383.412 
L 453.914157 383.412 
L 458.586715 383.412 
L 463.259273 383.412 
L 467.931832 383.412 
L 472.60439 383.412 
L 477.276948 383.412 
L 481.949506 383.412 
L 486.622065 383.412 
L 491.294623 383.412 
L 495.967181 383.412 
L 500.63974 383.412 
L 505.312298 383.412 
L 509.984856 383.412 
L 514.657414 383.412 
L 519.329973 383.412 
L 524.002531 383.412 
L 528.675089 383.412 
L 533.347647 383.412 
L 538.020206 383.412 
L 542.692764 383.412 
L 547.365322 383.412 
L 552.03788 383.412 
L 556.710439 383.412 
L 561.382997 383.412 
L 566.055555 383.412 
L 570.728113 383.412 
L 575.400672 383.412 
L 580.07323 383.412 
L 584.745788 383.412 
L 589.418346 383.412 
L 594.090905 383.412 
L 598.763463 383.412 
L 603.436021 383.412 
L 608.108579 383.412 
L 612.781138 383.412 
L 617.453696 383.412 
L 622.126254 383.412 
L 626.798812 383.412 
L 631.471371 383.412 
L 636.143929 383.412 
L 640.816487 383.412 
L 645.489045 383.412 
L 650.161604 383.412 
L 654.834162 383.412 
L 659.50672 383.412 
L 664.179278 383.412 
L 668.851837 383.412 
L 673.524395 383.412 
L 678.196953 383.412 
L 682.869511 383.412 
L 687.54207 383.412 
L 692.214628 383.412 
L 696.887186 383.412 
L 701.559745 383.412 
L 706.232303 383.412 
L 710.904861 383.412 
L 715.577419 383.412 
L 720.249978 383.412 
L 724.922536 383.412 
L 729.595094 383.412 
L 734.267652 383.412 
L 738.940211 383.412 
L 743.612769 383.412 
L 748.285327 383.412 
L 752.957885 383.412 
L 757.630444 383.412 
L 762.303002 383.412 
L 766.97556 383.412 
L 771.648118 383.412 
L 776.320677 383.412 
L 780.993235 383.412 
L 785.665793 383.412 
L 790.338351 383.412 
L 795.01091 383.412 
L 799.683468 383.412 
L 804.356026 383.412 
L 809.028584 383.412 
L 813.701143 383.412 
L 818.373701 383.412 
L 823.046259 383.412 
L 827.718817 383.412 
L 832.391376 383.412 
L 837.063934 383.412 
L 841.736492 383.412 
L 846.40905 383.412 
L 851.081609 383.412 
L 855.754167 383.412 
L 860.426725 383.412 
L 865.099283 383.412 
L 869.771842 383.412 
L 874.4444 383.412 
L 879.116958 383.412 
L 883.789516 383.412 
L 888.462075 383.412 
L 893.134633 383.412 
L 897.807191 383.412 
L 902.47975 383.412 
L 907.152308 383.412 
L 911.824866 383.412 
L 916.497424 383.412 
L 921.169983 383.412 
L 925.842541 383.412 
L 930.515099 383.412 
L 930.515099 383.407326 
L 930.515099 383.407326 
L 925.842541 383.404643 
L 921.169983 383.400661 
L 916.497424 383.394883 
L 911.824866 383.386687 
L 907.152308 383.375325 
L 902.47975 383.359923 
L 897.807191 383.339512 
L 893.134633 383.313063 
L 888.462075 383.279545 
L 883.789516 383.237997 
L 879.116958 383.18761 
L 874.4444 383.1278 
L 869.771842 383.058278 
L 865.099283 382.979089 
L 860.426725 382.89061 
L 855.754167 382.793503 
L 851.081609 382.688622 
L 846.40905 382.576872 
L 841.736492 382.459033 
L 837.063934 382.335588 
L 832.391376 382.206563 
L 827.718817 382.071426 
L 823.046259 381.929069 
L 818.373701 381.777898 
L 813.701143 381.616034 
L 809.028584 381.441622 
L 804.356026 381.253213 
L 799.683468 381.050161 
L 795.01091 380.832991 
L 790.338351 380.603652 
L 785.665793 380.3656 
L 780.993235 380.123684 
L 776.320677 379.883802 
L 771.648118 379.65238 
L 766.97556 379.435715 
L 762.303002 379.239281 
L 757.630444 379.067094 
L 752.957885 378.921235 
L 748.285327 378.801589 
L 743.612769 378.705864 
L 738.940211 378.629851 
L 734.267652 378.567905 
L 729.595094 378.513562 
L 724.922536 378.460207 
L 720.249978 378.401699 
L 715.577419 378.3329 
L 710.904861 378.250049 
L 706.232303 378.150962 
L 701.559745 378.035087 
L 696.887186 377.903402 
L 692.214628 377.75822 
L 687.54207 377.602903 
L 682.869511 377.441531 
L 678.196953 377.278551 
L 673.524395 377.118416 
L 668.851837 376.965257 
L 664.179278 376.822612 
L 659.50672 376.693218 
L 654.834162 376.578908 
L 650.161604 376.480606 
L 645.489045 376.398401 
L 640.816487 376.3317 
L 636.143929 376.279403 
L 631.471371 376.240077 
L 626.798812 376.212087 
L 622.126254 376.193676 
L 617.453696 376.182979 
L 612.781138 376.177986 
L 608.108579 376.176454 
L 603.436021 376.175819 
L 598.763463 376.173082 
L 594.090905 376.164713 
L 589.418346 376.146551 
L 584.745788 376.113733 
L 580.07323 376.060643 
L 575.400672 375.980922 
L 570.728113 375.867572 
L 566.055555 375.713205 
L 561.382997 375.510459 
L 556.710439 375.252605 
L 552.03788 374.93432 
L 547.365322 374.552548 
L 542.692764 374.107345 
L 538.020206 373.602555 
L 533.347647 373.046169 
L 528.675089 372.450244 
L 524.002531 371.830302 
L 519.329973 371.204223 
L 514.657414 370.590729 
L 509.984856 370.007627 
L 505.312298 369.470057 
L 500.63974 368.988986 
L 495.967181 368.570172 
L 491.294623 368.213745 
L 486.622065 367.914451 
L 481.949506 367.662496 
L 477.276948 367.444827 
L 472.60439 367.246611 
L 467.931832 367.052666 
L 463.259273 366.848621 
L 458.586715 366.621646 
L 453.914157 366.360694 
L 449.241599 366.056302 
L 444.56904 365.700057 
L 439.896482 365.2839 
L 435.223924 364.79942 
L 430.551366 364.237273 
L 425.878807 363.586784 
L 421.206249 362.835747 
L 416.533691 361.970355 
L 411.861133 360.975206 
L 407.188574 359.833329 
L 402.516016 358.526196 
L 397.843458 357.033794 
L 393.1709 355.334807 
L 388.498341 353.407058 
L 383.825783 351.228291 
L 379.153225 348.777378 
L 374.480667 346.035919 
L 369.808108 342.990159 
L 365.13555 339.633031 
L 360.462992 335.966109 
L 355.790434 332.001214 
L 351.117875 327.761462 
L 346.445317 323.28157 
L 341.772759 318.607346 
L 337.100201 313.794332 
L 332.427642 308.905689 
L 327.755084 304.009439 
L 323.082526 299.175243 
L 318.409968 294.470932 
L 313.737409 289.95901 
L 309.064851 285.693392 
L 304.392293 281.716628 
L 299.719735 278.057887 
L 295.047176 274.731926 
L 290.374618 271.739248 
L 285.70206 269.067513 
L 281.029501 266.694183 
L 276.356943 264.590192 
L 271.684385 262.724288 
L 267.011827 261.067583 
L 262.339268 259.59779 
L 257.66671 258.30262 
L 252.994152 257.181965 
L 248.321594 256.248613 
L 243.649035 255.527499 
L 238.976477 255.053661 
L 234.303919 254.869247 
L 229.631361 255.020014 
L 224.958802 255.551733 
L 220.286244 256.506877 
L 215.613686 257.921824 
L 210.941128 259.824688 
L 206.268569 262.233768 
L 201.596011 265.156547 
L 196.923453 268.589125 
L 192.250895 272.516025 
L 187.578336 276.910319 
L 182.905778 281.734086 
L 178.23322 286.939236 
L 173.560662 292.468706 
L 168.888103 298.258041 
L 164.215545 304.237285 
L 159.542987 310.333081 
L 154.870429 316.470852 
L 150.19787 322.576922 
L 145.525312 328.580466 
L 140.852754 334.415216 
L 136.180196 340.02091 
L 131.507637 345.34448 
L 126.835079 350.341026 
L 122.162521 354.974583 
L 117.489963 359.218696 
L 112.817404 363.056757 
L 108.144846 366.482068 
L 103.472288 369.497564 
L 98.79973 372.11516 
L 94.127171 374.354719 
L 89.454613 376.242681 
L 84.782055 377.810436 
L 80.109496 379.092569 
L 75.436938 380.12511 
L 70.76438 380.94392 
L 66.091822 381.583318 
L 61.419263 382.075032 
L 56.746705 382.447479 
L 52.074147 382.725385 
L 47.401589 382.929696 
L 42.72903 383.077716 
L 38.056472 383.183408 
L 33.383914 383.257795 
L 28.711356 383.309401 
L 24.038797 383.34469 
L 19.366239 383.368471 
L 14.693681 383.384262 
L 10.021123 383.39459 
L 5.348564 383.401242 
L 0.676006 383.405458 
z
" clip-path="url(#pcaf034b2cf)" style="fill: #245db2; fill-opacity: 0.25; stroke: #245db2; stroke-width: 0.8"/>
   </g>
   <g id="FillBetweenPolyCollection_4">
    <defs>
     <path id="mba6aa2fc56" d="M 269.572775 -48.588 
L 252.182559 -48.588 
L 252.182559 -346.644 
L 269.572775 -346.644 
L 269.572775 -346.644 
L 269.572775 -48.588 
z
" style="stroke: #ffa500; stroke-opacity: 0.3; stroke-width: 0.8"/>
    </defs>
    <g clip-path="url(#pcaf034b2cf)">
     <use xlink:href="#mba6aa2fc56" x="0" y="432" style="fill: #ffa500; fill-opacity: 0.3; stroke: #ffa500; stroke-opacity: 0.3; stroke-width: 0.8"/>
    </g>
   </g>
   <g id="line2d_53">
    <path d="M 289.192821 383.412 
L 289.192821 234.384 
" clip-path="url(#pcaf034b2cf)" style="fill: none; stroke-dasharray: 4.44,1.92; stroke-dashoffset: 0; stroke: #ff0000; stroke-width: 1.2"/>
   </g>
   <g id="line2d_54">
    <path d="M 262.484451 383.412 
L 262.484451 234.384 
" clip-path="url(#pcaf034b2cf)" style="fill: none; stroke-dasharray: 7.68,1.92,1.2,1.92; stroke-dashoffset: 0; stroke: #008000; stroke-width: 1.2"/>
   </g>
   <g id="patch_8">
    <path d="M 74.178 383.412 
L 74.178 234.384 
" style="fill: none; stroke: #262626; stroke-linejoin: miter; stroke-linecap: square"/>
   </g>
   <g id="patch_9">
    <path d="M 554.247 383.412 
L 554.247 234.384 
" style="fill: none; stroke: #262626; stroke-linejoin: miter; stroke-linecap: square"/>
   </g>
   <g id="patch_10">
    <path d="M 74.178 383.412 
L 554.247 383.412 
" style="fill: none; stroke: #262626; stroke-linejoin: miter; stroke-linecap: square"/>
   </g>
   <g id="patch_11">
    <path d="M 74.178 234.384 
L 554.247 234.384 
" style="fill: none; stroke: #262626; stroke-linejoin: miter; stroke-linecap: square"/>
   </g>
   <g id="text_34">
    <!-- Mean: 392.394 -->
    <g style="fill: #ff0000" transform="translate(296.873925 252.322112) scale(0.11 -0.11)">
     <use xlink:href="#DejaVuSans-4d"/>
     <use xlink:href="#DejaVuSans-65" transform="translate(86.279297 0)"/>
     <use xlink:href="#DejaVuSans-61" transform="translate(147.802734 0)"/>
     <use xlink:href="#DejaVuSans-6e" transform="translate(209.082031 0)"/>
     <use xlink:href="#DejaVuSans-3a" transform="translate(272.460938 0)"/>
     <use xlink:href="#DejaVuSans-20" transform="translate(306.152344 0)"/>
     <use xlink:href="#DejaVuSans-33" transform="translate(337.939453 0)"/>
     <use xlink:href="#DejaVuSans-39" transform="translate(401.5625 0)"/>
     <use xlink:href="#DejaVuSans-32" transform="translate(465.185547 0)"/>
     <use xlink:href="#DejaVuSans-2e" transform="translate(528.808594 0)"/>
     <use xlink:href="#DejaVuSans-33" transform="translate(560.595703 0)"/>
     <use xlink:href="#DejaVuSans-39" transform="translate(624.21875 0)"/>
     <use xlink:href="#DejaVuSans-34" transform="translate(687.841797 0)"/>
    </g>
   </g>
   <g id="text_35">
    <!-- Median: 389.61 -->
    <g style="fill: #008000" transform="translate(147.623085 249.341552) scale(0.11 -0.11)">
     <use xlink:href="#DejaVuSans-4d"/>
     <use xlink:href="#DejaVuSans-65" transform="translate(86.279297 0)"/>
     <use xlink:href="#DejaVuSans-64" transform="translate(147.802734 0)"/>
     <use xlink:href="#DejaVuSans-69" transform="translate(211.279297 0)"/>
     <use xlink:href="#DejaVuSans-61" transform="translate(239.0625 0)"/>
     <use xlink:href="#DejaVuSans-6e" transform="translate(300.341797 0)"/>
     <use xlink:href="#DejaVuSans-3a" transform="translate(363.720703 0)"/>
     <use xlink:href="#DejaVuSans-20" transform="translate(397.412109 0)"/>
     <use xlink:href="#DejaVuSans-33" transform="translate(429.199219 0)"/>
     <use xlink:href="#DejaVuSans-38" transform="translate(492.822266 0)"/>
     <use xlink:href="#DejaVuSans-39" transform="translate(556.445312 0)"/>
     <use xlink:href="#DejaVuSans-2e" transform="translate(620.068359 0)"/>
     <use xlink:href="#DejaVuSans-36" transform="translate(651.855469 0)"/>
     <use xlink:href="#DejaVuSans-31" transform="translate(715.478516 0)"/>
    </g>
   </g>
   <g id="text_36">
    <!-- 95% CI: -->
    <g style="fill: #ffa500" transform="translate(388.937862 305.774516) scale(0.11 -0.11)">
     <use xlink:href="#DejaVuSans-39"/>
     <use xlink:href="#DejaVuSans-35" transform="translate(63.623047 0)"/>
     <use xlink:href="#DejaVuSans-25" transform="translate(127.246094 0)"/>
     <use xlink:href="#DejaVuSans-20" transform="translate(222.265625 0)"/>
     <use xlink:href="#DejaVuSans-43" transform="translate(254.052734 0)"/>
     <use xlink:href="#DejaVuSans-49" transform="translate(323.876953 0)"/>
     <use xlink:href="#DejaVuSans-3a" transform="translate(353.369141 0)"/>
    </g>
    <!-- [388.54, 390.35] -->
    <g style="fill: #ffa500" transform="translate(363.948956 318.092109) scale(0.11 -0.11)">
     <use xlink:href="#DejaVuSans-5b"/>
     <use xlink:href="#DejaVuSans-33" transform="translate(39.013672 0)"/>
     <use xlink:href="#DejaVuSans-38" transform="translate(102.636719 0)"/>
     <use xlink:href="#DejaVuSans-38" transform="translate(166.259766 0)"/>
     <use xlink:href="#DejaVuSans-2e" transform="translate(229.882812 0)"/>
     <use xlink:href="#DejaVuSans-35" transform="translate(261.669922 0)"/>
     <use xlink:href="#DejaVuSans-34" transform="translate(325.292969 0)"/>
     <use xlink:href="#DejaVuSans-2c" transform="translate(388.916016 0)"/>
     <use xlink:href="#DejaVuSans-20" transform="translate(420.703125 0)"/>
     <use xlink:href="#DejaVuSans-33" transform="translate(452.490234 0)"/>
     <use xlink:href="#DejaVuSans-39" transform="translate(516.113281 0)"/>
     <use xlink:href="#DejaVuSans-30" transform="translate(579.736328 0)"/>
     <use xlink:href="#DejaVuSans-2e" transform="translate(643.359375 0)"/>
     <use xlink:href="#DejaVuSans-33" transform="translate(675.146484 0)"/>
     <use xlink:href="#DejaVuSans-35" transform="translate(738.769531 0)"/>
     <use xlink:href="#DejaVuSans-5d" transform="translate(802.392578 0)"/>
    </g>
   </g>
   <g id="text_37">
    <!-- Kernel Density Estimation of Execution Time of Image Proc without IO over 1000 iterations -->
    <g style="fill: #262626" transform="translate(96.72 228.384) scale(0.096 -0.096)">
     <use xlink:href="#DejaVuSans-4b"/>
     <use xlink:href="#DejaVuSans-65" transform="translate(60.576172 0)"/>
     <use xlink:href="#DejaVuSans-72" transform="translate(122.099609 0)"/>
     <use xlink:href="#DejaVuSans-6e" transform="translate(161.462891 0)"/>
     <use xlink:href="#DejaVuSans-65" transform="translate(224.841797 0)"/>
     <use xlink:href="#DejaVuSans-6c" transform="translate(286.365234 0)"/>
     <use xlink:href="#DejaVuSans-20" transform="translate(314.148438 0)"/>
     <use xlink:href="#DejaVuSans-44" transform="translate(345.935547 0)"/>
     <use xlink:href="#DejaVuSans-65" transform="translate(422.9375 0)"/>
     <use xlink:href="#DejaVuSans-6e" transform="translate(484.460938 0)"/>
     <use xlink:href="#DejaVuSans-73" transform="translate(547.839844 0)"/>
     <use xlink:href="#DejaVuSans-69" transform="translate(599.939453 0)"/>
     <use xlink:href="#DejaVuSans-74" transform="translate(627.722656 0)"/>
     <use xlink:href="#DejaVuSans-79" transform="translate(666.931641 0)"/>
     <use xlink:href="#DejaVuSans-20" transform="translate(726.111328 0)"/>
     <use xlink:href="#DejaVuSans-45" transform="translate(757.898438 0)"/>
     <use xlink:href="#DejaVuSans-73" transform="translate(821.082031 0)"/>
     <use xlink:href="#DejaVuSans-74" transform="translate(873.181641 0)"/>
     <use xlink:href="#DejaVuSans-69" transform="translate(912.390625 0)"/>
     <use xlink:href="#DejaVuSans-6d" transform="translate(940.173828 0)"/>
     <use xlink:href="#DejaVuSans-61" transform="translate(1037.585938 0)"/>
     <use xlink:href="#DejaVuSans-74" transform="translate(1098.865234 0)"/>
     <use xlink:href="#DejaVuSans-69" transform="translate(1138.074219 0)"/>
     <use xlink:href="#DejaVuSans-6f" transform="translate(1165.857422 0)"/>
     <use xlink:href="#DejaVuSans-6e" transform="translate(1227.039062 0)"/>
     <use xlink:href="#DejaVuSans-20" transform="translate(1290.417969 0)"/>
     <use xlink:href="#DejaVuSans-6f" transform="translate(1322.205078 0)"/>
     <use xlink:href="#DejaVuSans-66" transform="translate(1383.386719 0)"/>
     <use xlink:href="#DejaVuSans-20" transform="translate(1418.591797 0)"/>
     <use xlink:href="#DejaVuSans-45" transform="translate(1450.378906 0)"/>
     <use xlink:href="#DejaVuSans-78" transform="translate(1513.5625 0)"/>
     <use xlink:href="#DejaVuSans-65" transform="translate(1569.617188 0)"/>
     <use xlink:href="#DejaVuSans-63" transform="translate(1631.140625 0)"/>
     <use xlink:href="#DejaVuSans-75" transform="translate(1686.121094 0)"/>
     <use xlink:href="#DejaVuSans-74" transform="translate(1749.5 0)"/>
     <use xlink:href="#DejaVuSans-69" transform="translate(1788.708984 0)"/>
     <use xlink:href="#DejaVuSans-6f" transform="translate(1816.492188 0)"/>
     <use xlink:href="#DejaVuSans-6e" transform="translate(1877.673828 0)"/>
     <use xlink:href="#DejaVuSans-20" transform="translate(1941.052734 0)"/>
     <use xlink:href="#DejaVuSans-54" transform="translate(1972.839844 0)"/>
     <use xlink:href="#DejaVuSans-69" transform="translate(2030.798828 0)"/>
     <use xlink:href="#DejaVuSans-6d" transform="translate(2058.582031 0)"/>
     <use xlink:href="#DejaVuSans-65" transform="translate(2155.994141 0)"/>
     <use xlink:href="#DejaVuSans-20" transform="translate(2217.517578 0)"/>
     <use xlink:href="#DejaVuSans-6f" transform="translate(2249.304688 0)"/>
     <use xlink:href="#DejaVuSans-66" transform="translate(2310.486328 0)"/>
     <use xlink:href="#DejaVuSans-20" transform="translate(2345.691406 0)"/>
     <use xlink:href="#DejaVuSans-49" transform="translate(2377.478516 0)"/>
     <use xlink:href="#DejaVuSans-6d" transform="translate(2406.970703 0)"/>
     <use xlink:href="#DejaVuSans-61" transform="translate(2504.382812 0)"/>
     <use xlink:href="#DejaVuSans-67" transform="translate(2565.662109 0)"/>
     <use xlink:href="#DejaVuSans-65" transform="translate(2629.138672 0)"/>
     <use xlink:href="#DejaVuSans-20" transform="translate(2690.662109 0)"/>
     <use xlink:href="#DejaVuSans-50" transform="translate(2722.449219 0)"/>
     <use xlink:href="#DejaVuSans-72" transform="translate(2781.001953 0)"/>
     <use xlink:href="#DejaVuSans-6f" transform="translate(2819.865234 0)"/>
     <use xlink:href="#DejaVuSans-63" transform="translate(2881.046875 0)"/>
     <use xlink:href="#DejaVuSans-20" transform="translate(2936.027344 0)"/>
     <use xlink:href="#DejaVuSans-77" transform="translate(2967.814453 0)"/>
     <use xlink:href="#DejaVuSans-69" transform="translate(3049.601562 0)"/>
     <use xlink:href="#DejaVuSans-74" transform="translate(3077.384766 0)"/>
     <use xlink:href="#DejaVuSans-68" transform="translate(3116.59375 0)"/>
     <use xlink:href="#DejaVuSans-6f" transform="translate(3179.972656 0)"/>
     <use xlink:href="#DejaVuSans-75" transform="translate(3241.154297 0)"/>
     <use xlink:href="#DejaVuSans-74" transform="translate(3304.533203 0)"/>
     <use xlink:href="#DejaVuSans-20" transform="translate(3343.742188 0)"/>
     <use xlink:href="#DejaVuSans-49" transform="translate(3375.529297 0)"/>
     <use xlink:href="#DejaVuSans-4f" transform="translate(3405.021484 0)"/>
     <use xlink:href="#DejaVuSans-20" transform="translate(3483.732422 0)"/>
     <use xlink:href="#DejaVuSans-6f" transform="translate(3515.519531 0)"/>
     <use xlink:href="#DejaVuSans-76" transform="translate(3576.701172 0)"/>
     <use xlink:href="#DejaVuSans-65" transform="translate(3635.880859 0)"/>
     <use xlink:href="#DejaVuSans-72" transform="translate(3697.404297 0)"/>
     <use xlink:href="#DejaVuSans-20" transform="translate(3738.517578 0)"/>
     <use xlink:href="#DejaVuSans-31" transform="translate(3770.304688 0)"/>
     <use xlink:href="#DejaVuSans-30" transform="translate(3833.927734 0)"/>
     <use xlink:href="#DejaVuSans-30" transform="translate(3897.550781 0)"/>
     <use xlink:href="#DejaVuSans-30" transform="translate(3961.173828 0)"/>
     <use xlink:href="#DejaVuSans-20" transform="translate(4024.796875 0)"/>
     <use xlink:href="#DejaVuSans-69" transform="translate(4056.583984 0)"/>
     <use xlink:href="#DejaVuSans-74" transform="translate(4084.367188 0)"/>
     <use xlink:href="#DejaVuSans-65" transform="translate(4123.576172 0)"/>
     <use xlink:href="#DejaVuSans-72" transform="translate(4185.099609 0)"/>
     <use xlink:href="#DejaVuSans-61" transform="translate(4226.212891 0)"/>
     <use xlink:href="#DejaVuSans-74" transform="translate(4287.492188 0)"/>
     <use xlink:href="#DejaVuSans-69" transform="translate(4326.701172 0)"/>
     <use xlink:href="#DejaVuSans-6f" transform="translate(4354.484375 0)"/>
     <use xlink:href="#DejaVuSans-6e" transform="translate(4415.666016 0)"/>
     <use xlink:href="#DejaVuSans-73" transform="translate(4479.044922 0)"/>
    </g>
   </g>
  </g>
 </g>
 <defs>
  <clipPath id="pea81fbdefc">
   <rect x="74.178" y="23.568" width="480.069" height="149.028"/>
  </clipPath>
  <clipPath id="pcaf034b2cf">
   <rect x="74.178" y="234.384" width="480.069" height="149.028"/>
  </clipPath>
 </defs>
</svg>
