<?xml version="1.0" encoding="utf-8" standalone="no"?>
<!DOCTYPE svg PUBLIC "-//W3C//DTD SVG 1.1//EN"
  "http://www.w3.org/Graphics/SVG/1.1/DTD/svg11.dtd">
<svg xmlns:xlink="http://www.w3.org/1999/xlink" width="576pt" height="432pt" viewBox="0 0 576 432" xmlns="http://www.w3.org/2000/svg" version="1.1">
 <metadata>
  <rdf:RDF xmlns:dc="http://purl.org/dc/elements/1.1/" xmlns:cc="http://creativecommons.org/ns#" xmlns:rdf="http://www.w3.org/1999/02/22-rdf-syntax-ns#">
   <cc:Work>
    <dc:type rdf:resource="http://purl.org/dc/dcmitype/StillImage"/>
    <dc:date>2025-05-21T16:10:25.747688</dc:date>
    <dc:format>image/svg+xml</dc:format>
    <dc:creator>
     <cc:Agent>
      <dc:title>Matplotlib v3.10.3, https://matplotlib.org/</dc:title>
     </cc:Agent>
    </dc:creator>
   </cc:Work>
  </rdf:RDF>
 </metadata>
 <defs>
  <style type="text/css">*{stroke-linejoin: round; stroke-linecap: butt}</style>
 </defs>
 <g id="figure_1">
  <g id="patch_1">
   <path d="M 0 432 
L 576 432 
L 576 0 
L 0 0 
z
" style="fill: #ffffff"/>
  </g>
  <g id="axes_1">
   <g id="patch_2">
    <path d="M 74.268 172.596 
L 548.577 172.596 
L 548.577 23.568 
L 74.268 23.568 
z
" style="fill: #ffffff"/>
   </g>
   <g id="matplotlib.axis_1">
    <g id="xtick_1">
     <g id="line2d_1">
      <path d="M 74.268 172.596 
L 74.268 23.568 
" clip-path="url(#p1966847a7c)" style="fill: none; stroke-dasharray: 2.59,1.12; stroke-dashoffset: 0; stroke: #cccccc; stroke-opacity: 0.7; stroke-width: 0.7"/>
     </g>
     <g id="line2d_2">
      <defs>
       <path id="mc438ba15f5" d="M 0 0 
L 0 4.8 
" style="stroke: #262626"/>
      </defs>
      <g>
       <use xlink:href="#mc438ba15f5" x="74.268" y="172.596" style="fill: #262626; stroke: #262626"/>
      </g>
     </g>
     <g id="text_1">
      <!-- 540 -->
      <g transform="translate(62.8155 190.014125) scale(0.12 -0.12)">
       <defs>
        <path id="DejaVuSans-35" d="M 691 4666 
L 3169 4666 
L 3169 4134 
L 1269 4134 
L 1269 2991 
Q 1406 3038 1543 3061 
Q 1681 3084 1819 3084 
Q 2600 3084 3056 2656 
Q 3513 2228 3513 1497 
Q 3513 744 3044 326 
Q 2575 -91 1722 -91 
Q 1428 -91 1123 -41 
Q 819 9 494 109 
L 494 744 
Q 775 591 1075 516 
Q 1375 441 1709 441 
Q 2250 441 2565 725 
Q 2881 1009 2881 1497 
Q 2881 1984 2565 2268 
Q 2250 2553 1709 2553 
Q 1456 2553 1204 2497 
Q 953 2441 691 2322 
L 691 4666 
z
" transform="scale(0.015625)"/>
        <path id="DejaVuSans-34" d="M 2419 4116 
L 825 1625 
L 2419 1625 
L 2419 4116 
z
M 2253 4666 
L 3047 4666 
L 3047 1625 
L 3713 1625 
L 3713 1100 
L 3047 1100 
L 3047 0 
L 2419 0 
L 2419 1100 
L 313 1100 
L 313 1709 
L 2253 4666 
z
" transform="scale(0.015625)"/>
        <path id="DejaVuSans-30" d="M 2034 4250 
Q 1547 4250 1301 3770 
Q 1056 3291 1056 2328 
Q 1056 1369 1301 889 
Q 1547 409 2034 409 
Q 2525 409 2770 889 
Q 3016 1369 3016 2328 
Q 3016 3291 2770 3770 
Q 2525 4250 2034 4250 
z
M 2034 4750 
Q 2819 4750 3233 4129 
Q 3647 3509 3647 2328 
Q 3647 1150 3233 529 
Q 2819 -91 2034 -91 
Q 1250 -91 836 529 
Q 422 1150 422 2328 
Q 422 3509 836 4129 
Q 1250 4750 2034 4750 
z
" transform="scale(0.015625)"/>
       </defs>
       <use xlink:href="#DejaVuSans-35"/>
       <use xlink:href="#DejaVuSans-34" transform="translate(63.623047 0)"/>
       <use xlink:href="#DejaVuSans-30" transform="translate(127.246094 0)"/>
      </g>
     </g>
    </g>
    <g id="xtick_2">
     <g id="line2d_3">
      <path d="M 153.3195 172.596 
L 153.3195 23.568 
" clip-path="url(#p1966847a7c)" style="fill: none; stroke-dasharray: 2.59,1.12; stroke-dashoffset: 0; stroke: #cccccc; stroke-opacity: 0.7; stroke-width: 0.7"/>
     </g>
     <g id="line2d_4">
      <g>
       <use xlink:href="#mc438ba15f5" x="153.3195" y="172.596" style="fill: #262626; stroke: #262626"/>
      </g>
     </g>
     <g id="text_2">
      <!-- 550 -->
      <g transform="translate(141.867 190.014125) scale(0.12 -0.12)">
       <use xlink:href="#DejaVuSans-35"/>
       <use xlink:href="#DejaVuSans-35" transform="translate(63.623047 0)"/>
       <use xlink:href="#DejaVuSans-30" transform="translate(127.246094 0)"/>
      </g>
     </g>
    </g>
    <g id="xtick_3">
     <g id="line2d_5">
      <path d="M 232.371 172.596 
L 232.371 23.568 
" clip-path="url(#p1966847a7c)" style="fill: none; stroke-dasharray: 2.59,1.12; stroke-dashoffset: 0; stroke: #cccccc; stroke-opacity: 0.7; stroke-width: 0.7"/>
     </g>
     <g id="line2d_6">
      <g>
       <use xlink:href="#mc438ba15f5" x="232.371" y="172.596" style="fill: #262626; stroke: #262626"/>
      </g>
     </g>
     <g id="text_3">
      <!-- 560 -->
      <g transform="translate(220.9185 190.014125) scale(0.12 -0.12)">
       <defs>
        <path id="DejaVuSans-36" d="M 2113 2584 
Q 1688 2584 1439 2293 
Q 1191 2003 1191 1497 
Q 1191 994 1439 701 
Q 1688 409 2113 409 
Q 2538 409 2786 701 
Q 3034 994 3034 1497 
Q 3034 2003 2786 2293 
Q 2538 2584 2113 2584 
z
M 3366 4563 
L 3366 3988 
Q 3128 4100 2886 4159 
Q 2644 4219 2406 4219 
Q 1781 4219 1451 3797 
Q 1122 3375 1075 2522 
Q 1259 2794 1537 2939 
Q 1816 3084 2150 3084 
Q 2853 3084 3261 2657 
Q 3669 2231 3669 1497 
Q 3669 778 3244 343 
Q 2819 -91 2113 -91 
Q 1303 -91 875 529 
Q 447 1150 447 2328 
Q 447 3434 972 4092 
Q 1497 4750 2381 4750 
Q 2619 4750 2861 4703 
Q 3103 4656 3366 4563 
z
" transform="scale(0.015625)"/>
       </defs>
       <use xlink:href="#DejaVuSans-35"/>
       <use xlink:href="#DejaVuSans-36" transform="translate(63.623047 0)"/>
       <use xlink:href="#DejaVuSans-30" transform="translate(127.246094 0)"/>
      </g>
     </g>
    </g>
    <g id="xtick_4">
     <g id="line2d_7">
      <path d="M 311.4225 172.596 
L 311.4225 23.568 
" clip-path="url(#p1966847a7c)" style="fill: none; stroke-dasharray: 2.59,1.12; stroke-dashoffset: 0; stroke: #cccccc; stroke-opacity: 0.7; stroke-width: 0.7"/>
     </g>
     <g id="line2d_8">
      <g>
       <use xlink:href="#mc438ba15f5" x="311.4225" y="172.596" style="fill: #262626; stroke: #262626"/>
      </g>
     </g>
     <g id="text_4">
      <!-- 570 -->
      <g transform="translate(299.97 190.014125) scale(0.12 -0.12)">
       <defs>
        <path id="DejaVuSans-37" d="M 525 4666 
L 3525 4666 
L 3525 4397 
L 1831 0 
L 1172 0 
L 2766 4134 
L 525 4134 
L 525 4666 
z
" transform="scale(0.015625)"/>
       </defs>
       <use xlink:href="#DejaVuSans-35"/>
       <use xlink:href="#DejaVuSans-37" transform="translate(63.623047 0)"/>
       <use xlink:href="#DejaVuSans-30" transform="translate(127.246094 0)"/>
      </g>
     </g>
    </g>
    <g id="xtick_5">
     <g id="line2d_9">
      <path d="M 390.474 172.596 
L 390.474 23.568 
" clip-path="url(#p1966847a7c)" style="fill: none; stroke-dasharray: 2.59,1.12; stroke-dashoffset: 0; stroke: #cccccc; stroke-opacity: 0.7; stroke-width: 0.7"/>
     </g>
     <g id="line2d_10">
      <g>
       <use xlink:href="#mc438ba15f5" x="390.474" y="172.596" style="fill: #262626; stroke: #262626"/>
      </g>
     </g>
     <g id="text_5">
      <!-- 580 -->
      <g transform="translate(379.0215 190.014125) scale(0.12 -0.12)">
       <defs>
        <path id="DejaVuSans-38" d="M 2034 2216 
Q 1584 2216 1326 1975 
Q 1069 1734 1069 1313 
Q 1069 891 1326 650 
Q 1584 409 2034 409 
Q 2484 409 2743 651 
Q 3003 894 3003 1313 
Q 3003 1734 2745 1975 
Q 2488 2216 2034 2216 
z
M 1403 2484 
Q 997 2584 770 2862 
Q 544 3141 544 3541 
Q 544 4100 942 4425 
Q 1341 4750 2034 4750 
Q 2731 4750 3128 4425 
Q 3525 4100 3525 3541 
Q 3525 3141 3298 2862 
Q 3072 2584 2669 2484 
Q 3125 2378 3379 2068 
Q 3634 1759 3634 1313 
Q 3634 634 3220 271 
Q 2806 -91 2034 -91 
Q 1263 -91 848 271 
Q 434 634 434 1313 
Q 434 1759 690 2068 
Q 947 2378 1403 2484 
z
M 1172 3481 
Q 1172 3119 1398 2916 
Q 1625 2713 2034 2713 
Q 2441 2713 2670 2916 
Q 2900 3119 2900 3481 
Q 2900 3844 2670 4047 
Q 2441 4250 2034 4250 
Q 1625 4250 1398 4047 
Q 1172 3844 1172 3481 
z
" transform="scale(0.015625)"/>
       </defs>
       <use xlink:href="#DejaVuSans-35"/>
       <use xlink:href="#DejaVuSans-38" transform="translate(63.623047 0)"/>
       <use xlink:href="#DejaVuSans-30" transform="translate(127.246094 0)"/>
      </g>
     </g>
    </g>
    <g id="xtick_6">
     <g id="line2d_11">
      <path d="M 469.5255 172.596 
L 469.5255 23.568 
" clip-path="url(#p1966847a7c)" style="fill: none; stroke-dasharray: 2.59,1.12; stroke-dashoffset: 0; stroke: #cccccc; stroke-opacity: 0.7; stroke-width: 0.7"/>
     </g>
     <g id="line2d_12">
      <g>
       <use xlink:href="#mc438ba15f5" x="469.5255" y="172.596" style="fill: #262626; stroke: #262626"/>
      </g>
     </g>
     <g id="text_6">
      <!-- 590 -->
      <g transform="translate(458.073 190.014125) scale(0.12 -0.12)">
       <defs>
        <path id="DejaVuSans-39" d="M 703 97 
L 703 672 
Q 941 559 1184 500 
Q 1428 441 1663 441 
Q 2288 441 2617 861 
Q 2947 1281 2994 2138 
Q 2813 1869 2534 1725 
Q 2256 1581 1919 1581 
Q 1219 1581 811 2004 
Q 403 2428 403 3163 
Q 403 3881 828 4315 
Q 1253 4750 1959 4750 
Q 2769 4750 3195 4129 
Q 3622 3509 3622 2328 
Q 3622 1225 3098 567 
Q 2575 -91 1691 -91 
Q 1453 -91 1209 -44 
Q 966 3 703 97 
z
M 1959 2075 
Q 2384 2075 2632 2365 
Q 2881 2656 2881 3163 
Q 2881 3666 2632 3958 
Q 2384 4250 1959 4250 
Q 1534 4250 1286 3958 
Q 1038 3666 1038 3163 
Q 1038 2656 1286 2365 
Q 1534 2075 1959 2075 
z
" transform="scale(0.015625)"/>
       </defs>
       <use xlink:href="#DejaVuSans-35"/>
       <use xlink:href="#DejaVuSans-39" transform="translate(63.623047 0)"/>
       <use xlink:href="#DejaVuSans-30" transform="translate(127.246094 0)"/>
      </g>
     </g>
    </g>
    <g id="xtick_7">
     <g id="line2d_13">
      <path d="M 548.577 172.596 
L 548.577 23.568 
" clip-path="url(#p1966847a7c)" style="fill: none; stroke-dasharray: 2.59,1.12; stroke-dashoffset: 0; stroke: #cccccc; stroke-opacity: 0.7; stroke-width: 0.7"/>
     </g>
     <g id="line2d_14">
      <g>
       <use xlink:href="#mc438ba15f5" x="548.577" y="172.596" style="fill: #262626; stroke: #262626"/>
      </g>
     </g>
     <g id="text_7">
      <!-- 600 -->
      <g transform="translate(537.1245 190.014125) scale(0.12 -0.12)">
       <use xlink:href="#DejaVuSans-36"/>
       <use xlink:href="#DejaVuSans-30" transform="translate(63.623047 0)"/>
       <use xlink:href="#DejaVuSans-30" transform="translate(127.246094 0)"/>
      </g>
     </g>
    </g>
    <g id="text_8">
     <!-- Execution Time (ms) -->
     <g transform="translate(249.835313 205.627875) scale(0.12 -0.12)">
      <defs>
       <path id="DejaVuSans-45" d="M 628 4666 
L 3578 4666 
L 3578 4134 
L 1259 4134 
L 1259 2753 
L 3481 2753 
L 3481 2222 
L 1259 2222 
L 1259 531 
L 3634 531 
L 3634 0 
L 628 0 
L 628 4666 
z
" transform="scale(0.015625)"/>
       <path id="DejaVuSans-78" d="M 3513 3500 
L 2247 1797 
L 3578 0 
L 2900 0 
L 1881 1375 
L 863 0 
L 184 0 
L 1544 1831 
L 300 3500 
L 978 3500 
L 1906 2253 
L 2834 3500 
L 3513 3500 
z
" transform="scale(0.015625)"/>
       <path id="DejaVuSans-65" d="M 3597 1894 
L 3597 1613 
L 953 1613 
Q 991 1019 1311 708 
Q 1631 397 2203 397 
Q 2534 397 2845 478 
Q 3156 559 3463 722 
L 3463 178 
Q 3153 47 2828 -22 
Q 2503 -91 2169 -91 
Q 1331 -91 842 396 
Q 353 884 353 1716 
Q 353 2575 817 3079 
Q 1281 3584 2069 3584 
Q 2775 3584 3186 3129 
Q 3597 2675 3597 1894 
z
M 3022 2063 
Q 3016 2534 2758 2815 
Q 2500 3097 2075 3097 
Q 1594 3097 1305 2825 
Q 1016 2553 972 2059 
L 3022 2063 
z
" transform="scale(0.015625)"/>
       <path id="DejaVuSans-63" d="M 3122 3366 
L 3122 2828 
Q 2878 2963 2633 3030 
Q 2388 3097 2138 3097 
Q 1578 3097 1268 2742 
Q 959 2388 959 1747 
Q 959 1106 1268 751 
Q 1578 397 2138 397 
Q 2388 397 2633 464 
Q 2878 531 3122 666 
L 3122 134 
Q 2881 22 2623 -34 
Q 2366 -91 2075 -91 
Q 1284 -91 818 406 
Q 353 903 353 1747 
Q 353 2603 823 3093 
Q 1294 3584 2113 3584 
Q 2378 3584 2631 3529 
Q 2884 3475 3122 3366 
z
" transform="scale(0.015625)"/>
       <path id="DejaVuSans-75" d="M 544 1381 
L 544 3500 
L 1119 3500 
L 1119 1403 
Q 1119 906 1312 657 
Q 1506 409 1894 409 
Q 2359 409 2629 706 
Q 2900 1003 2900 1516 
L 2900 3500 
L 3475 3500 
L 3475 0 
L 2900 0 
L 2900 538 
Q 2691 219 2414 64 
Q 2138 -91 1772 -91 
Q 1169 -91 856 284 
Q 544 659 544 1381 
z
M 1991 3584 
L 1991 3584 
z
" transform="scale(0.015625)"/>
       <path id="DejaVuSans-74" d="M 1172 4494 
L 1172 3500 
L 2356 3500 
L 2356 3053 
L 1172 3053 
L 1172 1153 
Q 1172 725 1289 603 
Q 1406 481 1766 481 
L 2356 481 
L 2356 0 
L 1766 0 
Q 1100 0 847 248 
Q 594 497 594 1153 
L 594 3053 
L 172 3053 
L 172 3500 
L 594 3500 
L 594 4494 
L 1172 4494 
z
" transform="scale(0.015625)"/>
       <path id="DejaVuSans-69" d="M 603 3500 
L 1178 3500 
L 1178 0 
L 603 0 
L 603 3500 
z
M 603 4863 
L 1178 4863 
L 1178 4134 
L 603 4134 
L 603 4863 
z
" transform="scale(0.015625)"/>
       <path id="DejaVuSans-6f" d="M 1959 3097 
Q 1497 3097 1228 2736 
Q 959 2375 959 1747 
Q 959 1119 1226 758 
Q 1494 397 1959 397 
Q 2419 397 2687 759 
Q 2956 1122 2956 1747 
Q 2956 2369 2687 2733 
Q 2419 3097 1959 3097 
z
M 1959 3584 
Q 2709 3584 3137 3096 
Q 3566 2609 3566 1747 
Q 3566 888 3137 398 
Q 2709 -91 1959 -91 
Q 1206 -91 779 398 
Q 353 888 353 1747 
Q 353 2609 779 3096 
Q 1206 3584 1959 3584 
z
" transform="scale(0.015625)"/>
       <path id="DejaVuSans-6e" d="M 3513 2113 
L 3513 0 
L 2938 0 
L 2938 2094 
Q 2938 2591 2744 2837 
Q 2550 3084 2163 3084 
Q 1697 3084 1428 2787 
Q 1159 2491 1159 1978 
L 1159 0 
L 581 0 
L 581 3500 
L 1159 3500 
L 1159 2956 
Q 1366 3272 1645 3428 
Q 1925 3584 2291 3584 
Q 2894 3584 3203 3211 
Q 3513 2838 3513 2113 
z
" transform="scale(0.015625)"/>
       <path id="DejaVuSans-20" transform="scale(0.015625)"/>
       <path id="DejaVuSans-54" d="M -19 4666 
L 3928 4666 
L 3928 4134 
L 2272 4134 
L 2272 0 
L 1638 0 
L 1638 4134 
L -19 4134 
L -19 4666 
z
" transform="scale(0.015625)"/>
       <path id="DejaVuSans-6d" d="M 3328 2828 
Q 3544 3216 3844 3400 
Q 4144 3584 4550 3584 
Q 5097 3584 5394 3201 
Q 5691 2819 5691 2113 
L 5691 0 
L 5113 0 
L 5113 2094 
Q 5113 2597 4934 2840 
Q 4756 3084 4391 3084 
Q 3944 3084 3684 2787 
Q 3425 2491 3425 1978 
L 3425 0 
L 2847 0 
L 2847 2094 
Q 2847 2600 2669 2842 
Q 2491 3084 2119 3084 
Q 1678 3084 1418 2786 
Q 1159 2488 1159 1978 
L 1159 0 
L 581 0 
L 581 3500 
L 1159 3500 
L 1159 2956 
Q 1356 3278 1631 3431 
Q 1906 3584 2284 3584 
Q 2666 3584 2933 3390 
Q 3200 3197 3328 2828 
z
" transform="scale(0.015625)"/>
       <path id="DejaVuSans-28" d="M 1984 4856 
Q 1566 4138 1362 3434 
Q 1159 2731 1159 2009 
Q 1159 1288 1364 580 
Q 1569 -128 1984 -844 
L 1484 -844 
Q 1016 -109 783 600 
Q 550 1309 550 2009 
Q 550 2706 781 3412 
Q 1013 4119 1484 4856 
L 1984 4856 
z
" transform="scale(0.015625)"/>
       <path id="DejaVuSans-73" d="M 2834 3397 
L 2834 2853 
Q 2591 2978 2328 3040 
Q 2066 3103 1784 3103 
Q 1356 3103 1142 2972 
Q 928 2841 928 2578 
Q 928 2378 1081 2264 
Q 1234 2150 1697 2047 
L 1894 2003 
Q 2506 1872 2764 1633 
Q 3022 1394 3022 966 
Q 3022 478 2636 193 
Q 2250 -91 1575 -91 
Q 1294 -91 989 -36 
Q 684 19 347 128 
L 347 722 
Q 666 556 975 473 
Q 1284 391 1588 391 
Q 1994 391 2212 530 
Q 2431 669 2431 922 
Q 2431 1156 2273 1281 
Q 2116 1406 1581 1522 
L 1381 1569 
Q 847 1681 609 1914 
Q 372 2147 372 2553 
Q 372 3047 722 3315 
Q 1072 3584 1716 3584 
Q 2034 3584 2315 3537 
Q 2597 3491 2834 3397 
z
" transform="scale(0.015625)"/>
       <path id="DejaVuSans-29" d="M 513 4856 
L 1013 4856 
Q 1481 4119 1714 3412 
Q 1947 2706 1947 2009 
Q 1947 1309 1714 600 
Q 1481 -109 1013 -844 
L 513 -844 
Q 928 -128 1133 580 
Q 1338 1288 1338 2009 
Q 1338 2731 1133 3434 
Q 928 4138 513 4856 
z
" transform="scale(0.015625)"/>
      </defs>
      <use xlink:href="#DejaVuSans-45"/>
      <use xlink:href="#DejaVuSans-78" transform="translate(63.183594 0)"/>
      <use xlink:href="#DejaVuSans-65" transform="translate(119.238281 0)"/>
      <use xlink:href="#DejaVuSans-63" transform="translate(180.761719 0)"/>
      <use xlink:href="#DejaVuSans-75" transform="translate(235.742188 0)"/>
      <use xlink:href="#DejaVuSans-74" transform="translate(299.121094 0)"/>
      <use xlink:href="#DejaVuSans-69" transform="translate(338.330078 0)"/>
      <use xlink:href="#DejaVuSans-6f" transform="translate(366.113281 0)"/>
      <use xlink:href="#DejaVuSans-6e" transform="translate(427.294922 0)"/>
      <use xlink:href="#DejaVuSans-20" transform="translate(490.673828 0)"/>
      <use xlink:href="#DejaVuSans-54" transform="translate(522.460938 0)"/>
      <use xlink:href="#DejaVuSans-69" transform="translate(580.419922 0)"/>
      <use xlink:href="#DejaVuSans-6d" transform="translate(608.203125 0)"/>
      <use xlink:href="#DejaVuSans-65" transform="translate(705.615234 0)"/>
      <use xlink:href="#DejaVuSans-20" transform="translate(767.138672 0)"/>
      <use xlink:href="#DejaVuSans-28" transform="translate(798.925781 0)"/>
      <use xlink:href="#DejaVuSans-6d" transform="translate(837.939453 0)"/>
      <use xlink:href="#DejaVuSans-73" transform="translate(935.351562 0)"/>
      <use xlink:href="#DejaVuSans-29" transform="translate(987.451172 0)"/>
     </g>
    </g>
   </g>
   <g id="matplotlib.axis_2">
    <g id="ytick_1">
     <g id="line2d_15">
      <path d="M 74.268 172.596 
L 548.577 172.596 
" clip-path="url(#p1966847a7c)" style="fill: none; stroke-dasharray: 2.59,1.12; stroke-dashoffset: 0; stroke: #cccccc; stroke-opacity: 0.7; stroke-width: 0.7"/>
     </g>
     <g id="line2d_16">
      <defs>
       <path id="m50d38dc3b4" d="M 0 0 
L -4.8 0 
" style="stroke: #262626"/>
      </defs>
      <g>
       <use xlink:href="#m50d38dc3b4" x="74.268" y="172.596" style="fill: #262626; stroke: #262626"/>
      </g>
     </g>
     <g id="text_9">
      <!-- 0.00 -->
      <g transform="translate(39.24925 177.155062) scale(0.12 -0.12)">
       <defs>
        <path id="DejaVuSans-2e" d="M 684 794 
L 1344 794 
L 1344 0 
L 684 0 
L 684 794 
z
" transform="scale(0.015625)"/>
       </defs>
       <use xlink:href="#DejaVuSans-30"/>
       <use xlink:href="#DejaVuSans-2e" transform="translate(63.623047 0)"/>
       <use xlink:href="#DejaVuSans-30" transform="translate(95.410156 0)"/>
       <use xlink:href="#DejaVuSans-30" transform="translate(159.033203 0)"/>
      </g>
     </g>
    </g>
    <g id="ytick_2">
     <g id="line2d_17">
      <path d="M 74.268 151.306286 
L 548.577 151.306286 
" clip-path="url(#p1966847a7c)" style="fill: none; stroke-dasharray: 2.59,1.12; stroke-dashoffset: 0; stroke: #cccccc; stroke-opacity: 0.7; stroke-width: 0.7"/>
     </g>
     <g id="line2d_18">
      <g>
       <use xlink:href="#m50d38dc3b4" x="74.268" y="151.306286" style="fill: #262626; stroke: #262626"/>
      </g>
     </g>
     <g id="text_10">
      <!-- 0.01 -->
      <g transform="translate(39.24925 155.865348) scale(0.12 -0.12)">
       <defs>
        <path id="DejaVuSans-31" d="M 794 531 
L 1825 531 
L 1825 4091 
L 703 3866 
L 703 4441 
L 1819 4666 
L 2450 4666 
L 2450 531 
L 3481 531 
L 3481 0 
L 794 0 
L 794 531 
z
" transform="scale(0.015625)"/>
       </defs>
       <use xlink:href="#DejaVuSans-30"/>
       <use xlink:href="#DejaVuSans-2e" transform="translate(63.623047 0)"/>
       <use xlink:href="#DejaVuSans-30" transform="translate(95.410156 0)"/>
       <use xlink:href="#DejaVuSans-31" transform="translate(159.033203 0)"/>
      </g>
     </g>
    </g>
    <g id="ytick_3">
     <g id="line2d_19">
      <path d="M 74.268 130.016571 
L 548.577 130.016571 
" clip-path="url(#p1966847a7c)" style="fill: none; stroke-dasharray: 2.59,1.12; stroke-dashoffset: 0; stroke: #cccccc; stroke-opacity: 0.7; stroke-width: 0.7"/>
     </g>
     <g id="line2d_20">
      <g>
       <use xlink:href="#m50d38dc3b4" x="74.268" y="130.016571" style="fill: #262626; stroke: #262626"/>
      </g>
     </g>
     <g id="text_11">
      <!-- 0.02 -->
      <g transform="translate(39.24925 134.575634) scale(0.12 -0.12)">
       <defs>
        <path id="DejaVuSans-32" d="M 1228 531 
L 3431 531 
L 3431 0 
L 469 0 
L 469 531 
Q 828 903 1448 1529 
Q 2069 2156 2228 2338 
Q 2531 2678 2651 2914 
Q 2772 3150 2772 3378 
Q 2772 3750 2511 3984 
Q 2250 4219 1831 4219 
Q 1534 4219 1204 4116 
Q 875 4013 500 3803 
L 500 4441 
Q 881 4594 1212 4672 
Q 1544 4750 1819 4750 
Q 2544 4750 2975 4387 
Q 3406 4025 3406 3419 
Q 3406 3131 3298 2873 
Q 3191 2616 2906 2266 
Q 2828 2175 2409 1742 
Q 1991 1309 1228 531 
z
" transform="scale(0.015625)"/>
       </defs>
       <use xlink:href="#DejaVuSans-30"/>
       <use xlink:href="#DejaVuSans-2e" transform="translate(63.623047 0)"/>
       <use xlink:href="#DejaVuSans-30" transform="translate(95.410156 0)"/>
       <use xlink:href="#DejaVuSans-32" transform="translate(159.033203 0)"/>
      </g>
     </g>
    </g>
    <g id="ytick_4">
     <g id="line2d_21">
      <path d="M 74.268 108.726857 
L 548.577 108.726857 
" clip-path="url(#p1966847a7c)" style="fill: none; stroke-dasharray: 2.59,1.12; stroke-dashoffset: 0; stroke: #cccccc; stroke-opacity: 0.7; stroke-width: 0.7"/>
     </g>
     <g id="line2d_22">
      <g>
       <use xlink:href="#m50d38dc3b4" x="74.268" y="108.726857" style="fill: #262626; stroke: #262626"/>
      </g>
     </g>
     <g id="text_12">
      <!-- 0.03 -->
      <g transform="translate(39.24925 113.28592) scale(0.12 -0.12)">
       <defs>
        <path id="DejaVuSans-33" d="M 2597 2516 
Q 3050 2419 3304 2112 
Q 3559 1806 3559 1356 
Q 3559 666 3084 287 
Q 2609 -91 1734 -91 
Q 1441 -91 1130 -33 
Q 819 25 488 141 
L 488 750 
Q 750 597 1062 519 
Q 1375 441 1716 441 
Q 2309 441 2620 675 
Q 2931 909 2931 1356 
Q 2931 1769 2642 2001 
Q 2353 2234 1838 2234 
L 1294 2234 
L 1294 2753 
L 1863 2753 
Q 2328 2753 2575 2939 
Q 2822 3125 2822 3475 
Q 2822 3834 2567 4026 
Q 2313 4219 1838 4219 
Q 1578 4219 1281 4162 
Q 984 4106 628 3988 
L 628 4550 
Q 988 4650 1302 4700 
Q 1616 4750 1894 4750 
Q 2613 4750 3031 4423 
Q 3450 4097 3450 3541 
Q 3450 3153 3228 2886 
Q 3006 2619 2597 2516 
z
" transform="scale(0.015625)"/>
       </defs>
       <use xlink:href="#DejaVuSans-30"/>
       <use xlink:href="#DejaVuSans-2e" transform="translate(63.623047 0)"/>
       <use xlink:href="#DejaVuSans-30" transform="translate(95.410156 0)"/>
       <use xlink:href="#DejaVuSans-33" transform="translate(159.033203 0)"/>
      </g>
     </g>
    </g>
    <g id="ytick_5">
     <g id="line2d_23">
      <path d="M 74.268 87.437143 
L 548.577 87.437143 
" clip-path="url(#p1966847a7c)" style="fill: none; stroke-dasharray: 2.59,1.12; stroke-dashoffset: 0; stroke: #cccccc; stroke-opacity: 0.7; stroke-width: 0.7"/>
     </g>
     <g id="line2d_24">
      <g>
       <use xlink:href="#m50d38dc3b4" x="74.268" y="87.437143" style="fill: #262626; stroke: #262626"/>
      </g>
     </g>
     <g id="text_13">
      <!-- 0.04 -->
      <g transform="translate(39.24925 91.996205) scale(0.12 -0.12)">
       <use xlink:href="#DejaVuSans-30"/>
       <use xlink:href="#DejaVuSans-2e" transform="translate(63.623047 0)"/>
       <use xlink:href="#DejaVuSans-30" transform="translate(95.410156 0)"/>
       <use xlink:href="#DejaVuSans-34" transform="translate(159.033203 0)"/>
      </g>
     </g>
    </g>
    <g id="ytick_6">
     <g id="line2d_25">
      <path d="M 74.268 66.147429 
L 548.577 66.147429 
" clip-path="url(#p1966847a7c)" style="fill: none; stroke-dasharray: 2.59,1.12; stroke-dashoffset: 0; stroke: #cccccc; stroke-opacity: 0.7; stroke-width: 0.7"/>
     </g>
     <g id="line2d_26">
      <g>
       <use xlink:href="#m50d38dc3b4" x="74.268" y="66.147429" style="fill: #262626; stroke: #262626"/>
      </g>
     </g>
     <g id="text_14">
      <!-- 0.05 -->
      <g transform="translate(39.24925 70.706491) scale(0.12 -0.12)">
       <use xlink:href="#DejaVuSans-30"/>
       <use xlink:href="#DejaVuSans-2e" transform="translate(63.623047 0)"/>
       <use xlink:href="#DejaVuSans-30" transform="translate(95.410156 0)"/>
       <use xlink:href="#DejaVuSans-35" transform="translate(159.033203 0)"/>
      </g>
     </g>
    </g>
    <g id="ytick_7">
     <g id="line2d_27">
      <path d="M 74.268 44.857714 
L 548.577 44.857714 
" clip-path="url(#p1966847a7c)" style="fill: none; stroke-dasharray: 2.59,1.12; stroke-dashoffset: 0; stroke: #cccccc; stroke-opacity: 0.7; stroke-width: 0.7"/>
     </g>
     <g id="line2d_28">
      <g>
       <use xlink:href="#m50d38dc3b4" x="74.268" y="44.857714" style="fill: #262626; stroke: #262626"/>
      </g>
     </g>
     <g id="text_15">
      <!-- 0.06 -->
      <g transform="translate(39.24925 49.416777) scale(0.12 -0.12)">
       <use xlink:href="#DejaVuSans-30"/>
       <use xlink:href="#DejaVuSans-2e" transform="translate(63.623047 0)"/>
       <use xlink:href="#DejaVuSans-30" transform="translate(95.410156 0)"/>
       <use xlink:href="#DejaVuSans-36" transform="translate(159.033203 0)"/>
      </g>
     </g>
    </g>
    <g id="ytick_8">
     <g id="line2d_29">
      <path d="M 74.268 23.568 
L 548.577 23.568 
" clip-path="url(#p1966847a7c)" style="fill: none; stroke-dasharray: 2.59,1.12; stroke-dashoffset: 0; stroke: #cccccc; stroke-opacity: 0.7; stroke-width: 0.7"/>
     </g>
     <g id="line2d_30">
      <g>
       <use xlink:href="#m50d38dc3b4" x="74.268" y="23.568" style="fill: #262626; stroke: #262626"/>
      </g>
     </g>
     <g id="text_16">
      <!-- 0.07 -->
      <g transform="translate(39.24925 28.127062) scale(0.12 -0.12)">
       <use xlink:href="#DejaVuSans-30"/>
       <use xlink:href="#DejaVuSans-2e" transform="translate(63.623047 0)"/>
       <use xlink:href="#DejaVuSans-30" transform="translate(95.410156 0)"/>
       <use xlink:href="#DejaVuSans-37" transform="translate(159.033203 0)"/>
      </g>
     </g>
    </g>
    <g id="text_17">
     <!-- Density -->
     <g transform="translate(20.753625 120.892313) rotate(-90) scale(0.12 -0.12)">
      <defs>
       <path id="DejaVuSans-44" d="M 1259 4147 
L 1259 519 
L 2022 519 
Q 2988 519 3436 956 
Q 3884 1394 3884 2338 
Q 3884 3275 3436 3711 
Q 2988 4147 2022 4147 
L 1259 4147 
z
M 628 4666 
L 1925 4666 
Q 3281 4666 3915 4102 
Q 4550 3538 4550 2338 
Q 4550 1131 3912 565 
Q 3275 0 1925 0 
L 628 0 
L 628 4666 
z
" transform="scale(0.015625)"/>
       <path id="DejaVuSans-79" d="M 2059 -325 
Q 1816 -950 1584 -1140 
Q 1353 -1331 966 -1331 
L 506 -1331 
L 506 -850 
L 844 -850 
Q 1081 -850 1212 -737 
Q 1344 -625 1503 -206 
L 1606 56 
L 191 3500 
L 800 3500 
L 1894 763 
L 2988 3500 
L 3597 3500 
L 2059 -325 
z
" transform="scale(0.015625)"/>
      </defs>
      <use xlink:href="#DejaVuSans-44"/>
      <use xlink:href="#DejaVuSans-65" transform="translate(77.001953 0)"/>
      <use xlink:href="#DejaVuSans-6e" transform="translate(138.525391 0)"/>
      <use xlink:href="#DejaVuSans-73" transform="translate(201.904297 0)"/>
      <use xlink:href="#DejaVuSans-69" transform="translate(254.003906 0)"/>
      <use xlink:href="#DejaVuSans-74" transform="translate(281.787109 0)"/>
      <use xlink:href="#DejaVuSans-79" transform="translate(320.996094 0)"/>
     </g>
    </g>
   </g>
   <g id="FillBetweenPolyCollection_1">
    <path d="M 18.148824 172.582539 
L 18.148824 172.596 
L 21.79855 172.596 
L 25.448276 172.596 
L 29.098002 172.596 
L 32.747728 172.596 
L 36.397453 172.596 
L 40.047179 172.596 
L 43.696905 172.596 
L 47.346631 172.596 
L 50.996356 172.596 
L 54.646082 172.596 
L 58.295808 172.596 
L 61.945534 172.596 
L 65.59526 172.596 
L 69.244985 172.596 
L 72.894711 172.596 
L 76.544437 172.596 
L 80.194163 172.596 
L 83.843889 172.596 
L 87.493614 172.596 
L 91.14334 172.596 
L 94.793066 172.596 
L 98.442792 172.596 
L 102.092517 172.596 
L 105.742243 172.596 
L 109.391969 172.596 
L 113.041695 172.596 
L 116.691421 172.596 
L 120.341146 172.596 
L 123.990872 172.596 
L 127.640598 172.596 
L 131.290324 172.596 
L 134.940049 172.596 
L 138.589775 172.596 
L 142.239501 172.596 
L 145.889227 172.596 
L 149.538953 172.596 
L 153.188678 172.596 
L 156.838404 172.596 
L 160.48813 172.596 
L 164.137856 172.596 
L 167.787582 172.596 
L 171.437307 172.596 
L 175.087033 172.596 
L 178.736759 172.596 
L 182.386485 172.596 
L 186.03621 172.596 
L 189.685936 172.596 
L 193.335662 172.596 
L 196.985388 172.596 
L 200.635114 172.596 
L 204.284839 172.596 
L 207.934565 172.596 
L 211.584291 172.596 
L 215.234017 172.596 
L 218.883742 172.596 
L 222.533468 172.596 
L 226.183194 172.596 
L 229.83292 172.596 
L 233.482646 172.596 
L 237.132371 172.596 
L 240.782097 172.596 
L 244.431823 172.596 
L 248.081549 172.596 
L 251.731275 172.596 
L 255.381 172.596 
L 259.030726 172.596 
L 262.680452 172.596 
L 266.330178 172.596 
L 269.979903 172.596 
L 273.629629 172.596 
L 277.279355 172.596 
L 280.929081 172.596 
L 284.578807 172.596 
L 288.228532 172.596 
L 291.878258 172.596 
L 295.527984 172.596 
L 299.17771 172.596 
L 302.827435 172.596 
L 306.477161 172.596 
L 310.126887 172.596 
L 313.776613 172.596 
L 317.426339 172.596 
L 321.076064 172.596 
L 324.72579 172.596 
L 328.375516 172.596 
L 332.025242 172.596 
L 335.674968 172.596 
L 339.324693 172.596 
L 342.974419 172.596 
L 346.624145 172.596 
L 350.273871 172.596 
L 353.923596 172.596 
L 357.573322 172.596 
L 361.223048 172.596 
L 364.872774 172.596 
L 368.5225 172.596 
L 372.172225 172.596 
L 375.821951 172.596 
L 379.471677 172.596 
L 383.121403 172.596 
L 386.771128 172.596 
L 390.420854 172.596 
L 394.07058 172.596 
L 397.720306 172.596 
L 401.370032 172.596 
L 405.019757 172.596 
L 408.669483 172.596 
L 412.319209 172.596 
L 415.968935 172.596 
L 419.618661 172.596 
L 423.268386 172.596 
L 426.918112 172.596 
L 430.567838 172.596 
L 434.217564 172.596 
L 437.867289 172.596 
L 441.517015 172.596 
L 445.166741 172.596 
L 448.816467 172.596 
L 452.466193 172.596 
L 456.115918 172.596 
L 459.765644 172.596 
L 463.41537 172.596 
L 467.065096 172.596 
L 470.714821 172.596 
L 474.364547 172.596 
L 478.014273 172.596 
L 481.663999 172.596 
L 485.313725 172.596 
L 488.96345 172.596 
L 492.613176 172.596 
L 496.262902 172.596 
L 499.912628 172.596 
L 503.562354 172.596 
L 507.212079 172.596 
L 510.861805 172.596 
L 514.511531 172.596 
L 518.161257 172.596 
L 521.810982 172.596 
L 525.460708 172.596 
L 529.110434 172.596 
L 532.76016 172.596 
L 536.409886 172.596 
L 540.059611 172.596 
L 543.709337 172.596 
L 547.359063 172.596 
L 551.008789 172.596 
L 554.658515 172.596 
L 558.30824 172.596 
L 561.957966 172.596 
L 565.607692 172.596 
L 569.257418 172.596 
L 572.907143 172.596 
L 576.556869 172.596 
L 580.206595 172.596 
L 583.856321 172.596 
L 587.506047 172.596 
L 591.155772 172.596 
L 594.805498 172.596 
L 598.455224 172.596 
L 602.10495 172.596 
L 605.754675 172.596 
L 609.404401 172.596 
L 613.054127 172.596 
L 616.703853 172.596 
L 620.353579 172.596 
L 624.003304 172.596 
L 627.65303 172.596 
L 631.302756 172.596 
L 634.952482 172.596 
L 638.602208 172.596 
L 642.251933 172.596 
L 645.901659 172.596 
L 649.551385 172.596 
L 653.201111 172.596 
L 656.850836 172.596 
L 660.500562 172.596 
L 664.150288 172.596 
L 667.800014 172.596 
L 671.44974 172.596 
L 675.099465 172.596 
L 678.749191 172.596 
L 682.398917 172.596 
L 686.048643 172.596 
L 689.698368 172.596 
L 693.348094 172.596 
L 696.99782 172.596 
L 700.647546 172.596 
L 704.297272 172.596 
L 707.946997 172.596 
L 711.596723 172.596 
L 715.246449 172.596 
L 718.896175 172.596 
L 722.545901 172.596 
L 726.195626 172.596 
L 729.845352 172.596 
L 733.495078 172.596 
L 737.144804 172.596 
L 740.794529 172.596 
L 744.444255 172.596 
L 744.444255 172.589178 
L 744.444255 172.589178 
L 740.794529 172.585272 
L 737.144804 172.579494 
L 733.495078 172.571151 
L 729.845352 172.559399 
L 726.195626 172.543249 
L 722.545901 172.521603 
L 718.896175 172.493319 
L 715.246449 172.457304 
L 711.596723 172.412635 
L 707.946997 172.358707 
L 704.297272 172.29538 
L 700.647546 172.223118 
L 696.99782 172.143096 
L 693.348094 172.057235 
L 689.698368 171.968178 
L 686.048643 171.879154 
L 682.398917 171.793773 
L 678.749191 171.715734 
L 675.099465 171.648491 
L 671.44974 171.594906 
L 667.800014 171.556937 
L 664.150288 171.53539 
L 660.500562 171.529779 
L 656.850836 171.538298 
L 653.201111 171.557927 
L 649.551385 171.58464 
L 645.901659 171.613709 
L 642.251933 171.640064 
L 638.602208 171.658679 
L 634.952482 171.664944 
L 631.302756 171.655005 
L 627.65303 171.626038 
L 624.003304 171.576442 
L 620.353579 171.505942 
L 616.703853 171.415597 
L 613.054127 171.307693 
L 609.404401 171.185549 
L 605.754675 171.053228 
L 602.10495 170.915174 
L 598.455224 170.77581 
L 594.805498 170.639129 
L 591.155772 170.508316 
L 587.506047 170.385449 
L 583.856321 170.27132 
L 580.206595 170.16538 
L 576.556869 170.065844 
L 572.907143 169.969925 
L 569.257418 169.874166 
L 565.607692 169.774837 
L 561.957966 169.668335 
L 558.30824 169.551543 
L 554.658515 169.422107 
L 551.008789 169.27861 
L 547.359063 169.120634 
L 543.709337 168.948717 
L 540.059611 168.764237 
L 536.409886 168.569225 
L 532.76016 168.366162 
L 529.110434 168.157746 
L 525.460708 167.946675 
L 521.810982 167.735421 
L 518.161257 167.526034 
L 514.511531 167.319968 
L 510.861805 167.117939 
L 507.212079 166.919852 
L 503.562354 166.724797 
L 499.912628 166.531136 
L 496.262902 166.336683 
L 492.613176 166.138968 
L 488.96345 165.93555 
L 485.313725 165.724354 
L 481.663999 165.503978 
L 478.014273 165.273927 
L 474.364547 165.03477 
L 470.714821 164.788181 
L 467.065096 164.536902 
L 463.41537 164.284641 
L 459.765644 164.035933 
L 456.115918 163.796003 
L 452.466193 163.570617 
L 448.816467 163.365929 
L 445.166741 163.188283 
L 441.517015 163.043942 
L 437.867289 162.938703 
L 434.217564 162.877406 
L 430.567838 162.863346 
L 426.918112 162.897655 
L 423.268386 162.978733 
L 419.618661 163.101846 
L 415.968935 163.25897 
L 412.319209 163.438957 
L 408.669483 163.628065 
L 405.019757 163.810799 
L 401.370032 163.971014 
L 397.720306 164.093146 
L 394.07058 164.163444 
L 390.420854 164.171046 
L 386.771128 164.108796 
L 383.121403 163.973713 
L 379.471677 163.767061 
L 375.821951 163.494048 
L 372.172225 163.163186 
L 368.5225 162.785405 
L 364.872774 162.372991 
L 361.223048 161.938462 
L 357.573322 161.49346 
L 353.923596 161.047731 
L 350.273871 160.608264 
L 346.624145 160.178646 
L 342.974419 159.75869 
L 339.324693 159.34438 
L 335.674968 158.928167 
L 332.025242 158.499618 
L 328.375516 158.046394 
L 324.72579 157.555463 
L 321.076064 157.014408 
L 317.426339 156.412659 
L 313.776613 155.742445 
L 310.126887 154.999289 
L 306.477161 154.181922 
L 302.827435 153.291576 
L 299.17771 152.330711 
L 295.527984 151.301352 
L 291.878258 150.203252 
L 288.228532 149.032168 
L 284.578807 147.778491 
L 280.929081 146.42646 
L 277.279355 144.954062 
L 273.629629 143.333678 
L 269.979903 141.533408 
L 266.330178 139.518975 
L 262.680452 137.256051 
L 259.030726 134.712849 
L 255.381 131.862796 
L 251.731275 128.687126 
L 248.081549 125.177209 
L 244.431823 121.336438 
L 240.782097 117.181497 
L 237.132371 112.742852 
L 233.482646 108.064345 
L 229.83292 103.201889 
L 226.183194 98.221325 
L 222.533468 93.195652 
L 218.883742 88.20193 
L 215.234017 83.318192 
L 211.584291 78.620731 
L 207.934565 74.182004 
L 204.284839 70.069309 
L 200.635114 66.344203 
L 196.985388 63.062502 
L 193.335662 60.274585 
L 189.685936 58.025693 
L 186.03621 56.355972 
L 182.386485 55.300059 
L 178.736759 54.886223 
L 175.087033 55.135126 
L 171.437307 56.058429 
L 167.787582 57.657491 
L 164.137856 59.922386 
L 160.48813 62.831402 
L 156.838404 66.351102 
L 153.188678 70.4369 
L 149.538953 75.034071 
L 145.889227 80.079046 
L 142.239501 85.500881 
L 138.589775 91.222801 
L 134.940049 97.163791 
L 131.290324 103.240242 
L 127.640598 109.367689 
L 123.990872 115.46268 
L 120.341146 121.444772 
L 116.691421 127.23862 
L 113.041695 132.776062 
L 109.391969 137.99806 
L 105.742243 142.856363 
L 102.092517 147.31471 
L 98.442792 151.349487 
L 94.793066 154.949757 
L 91.14334 158.116658 
L 87.493614 160.862241 
L 83.843889 163.207842 
L 80.194163 165.182142 
L 76.544437 166.819084 
L 72.894711 168.155785 
L 69.244985 169.230602 
L 65.59526 170.081445 
L 61.945534 170.744407 
L 58.295808 171.252755 
L 54.646082 171.636256 
L 50.996356 171.920834 
L 47.346631 172.128497 
L 43.696905 172.277477 
L 40.047179 172.382526 
L 36.397453 172.45531 
L 32.747728 172.504848 
L 29.098002 172.537961 
L 25.448276 172.559692 
L 21.79855 172.573691 
L 18.148824 172.582539 
z
" clip-path="url(#p1966847a7c)" style="fill: #0feda5; fill-opacity: 0.25; stroke: #0feda5; stroke-width: 0.8"/>
   </g>
   <g id="FillBetweenPolyCollection_2">
    <defs>
     <path id="mf071ada1d2" d="M 197.89252 -259.404 
L 187.984413 -259.404 
L 187.984413 -472.301143 
L 197.89252 -472.301143 
L 197.89252 -472.301143 
L 197.89252 -259.404 
z
" style="stroke: #ffa500; stroke-opacity: 0.3; stroke-width: 0.8"/>
    </defs>
    <g clip-path="url(#p1966847a7c)">
     <use xlink:href="#mf071ada1d2" x="0" y="432" style="fill: #ffa500; fill-opacity: 0.3; stroke: #ffa500; stroke-opacity: 0.3; stroke-width: 0.8"/>
    </g>
   </g>
   <g id="line2d_31">
    <path d="M 221.257905 172.596 
L 221.257905 23.568 
" clip-path="url(#p1966847a7c)" style="fill: none; stroke-dasharray: 4.44,1.92; stroke-dashoffset: 0; stroke: #ff0000; stroke-width: 1.2"/>
   </g>
   <g id="line2d_32">
    <path d="M 192.916918 172.596 
L 192.916918 23.568 
" clip-path="url(#p1966847a7c)" style="fill: none; stroke-dasharray: 7.68,1.92,1.2,1.92; stroke-dashoffset: 0; stroke: #008000; stroke-width: 1.2"/>
   </g>
   <g id="patch_3">
    <path d="M 74.268 172.596 
L 74.268 23.568 
" style="fill: none; stroke: #262626; stroke-linejoin: miter; stroke-linecap: square"/>
   </g>
   <g id="patch_4">
    <path d="M 548.577 172.596 
L 548.577 23.568 
" style="fill: none; stroke: #262626; stroke-linejoin: miter; stroke-linecap: square"/>
   </g>
   <g id="patch_5">
    <path d="M 74.268 172.596 
L 548.577 172.596 
" style="fill: none; stroke: #262626; stroke-linejoin: miter; stroke-linecap: square"/>
   </g>
   <g id="patch_6">
    <path d="M 74.268 23.568 
L 548.577 23.568 
" style="fill: none; stroke: #262626; stroke-linejoin: miter; stroke-linecap: square"/>
   </g>
   <g id="text_18">
    <!-- Mean: 558.594 -->
    <g style="fill: #ff0000" transform="translate(229.163055 41.506112) scale(0.11 -0.11)">
     <defs>
      <path id="DejaVuSans-4d" d="M 628 4666 
L 1569 4666 
L 2759 1491 
L 3956 4666 
L 4897 4666 
L 4897 0 
L 4281 0 
L 4281 4097 
L 3078 897 
L 2444 897 
L 1241 4097 
L 1241 0 
L 628 0 
L 628 4666 
z
" transform="scale(0.015625)"/>
      <path id="DejaVuSans-61" d="M 2194 1759 
Q 1497 1759 1228 1600 
Q 959 1441 959 1056 
Q 959 750 1161 570 
Q 1363 391 1709 391 
Q 2188 391 2477 730 
Q 2766 1069 2766 1631 
L 2766 1759 
L 2194 1759 
z
M 3341 1997 
L 3341 0 
L 2766 0 
L 2766 531 
Q 2569 213 2275 61 
Q 1981 -91 1556 -91 
Q 1019 -91 701 211 
Q 384 513 384 1019 
Q 384 1609 779 1909 
Q 1175 2209 1959 2209 
L 2766 2209 
L 2766 2266 
Q 2766 2663 2505 2880 
Q 2244 3097 1772 3097 
Q 1472 3097 1187 3025 
Q 903 2953 641 2809 
L 641 3341 
Q 956 3463 1253 3523 
Q 1550 3584 1831 3584 
Q 2591 3584 2966 3190 
Q 3341 2797 3341 1997 
z
" transform="scale(0.015625)"/>
      <path id="DejaVuSans-3a" d="M 750 794 
L 1409 794 
L 1409 0 
L 750 0 
L 750 794 
z
M 750 3309 
L 1409 3309 
L 1409 2516 
L 750 2516 
L 750 3309 
z
" transform="scale(0.015625)"/>
     </defs>
     <use xlink:href="#DejaVuSans-4d"/>
     <use xlink:href="#DejaVuSans-65" transform="translate(86.279297 0)"/>
     <use xlink:href="#DejaVuSans-61" transform="translate(147.802734 0)"/>
     <use xlink:href="#DejaVuSans-6e" transform="translate(209.082031 0)"/>
     <use xlink:href="#DejaVuSans-3a" transform="translate(272.460938 0)"/>
     <use xlink:href="#DejaVuSans-20" transform="translate(306.152344 0)"/>
     <use xlink:href="#DejaVuSans-35" transform="translate(337.939453 0)"/>
     <use xlink:href="#DejaVuSans-35" transform="translate(401.5625 0)"/>
     <use xlink:href="#DejaVuSans-38" transform="translate(465.185547 0)"/>
     <use xlink:href="#DejaVuSans-2e" transform="translate(528.808594 0)"/>
     <use xlink:href="#DejaVuSans-35" transform="translate(560.595703 0)"/>
     <use xlink:href="#DejaVuSans-39" transform="translate(624.21875 0)"/>
     <use xlink:href="#DejaVuSans-34" transform="translate(687.841797 0)"/>
    </g>
   </g>
   <g id="text_19">
    <!-- Median: 555.01 -->
    <g style="fill: #008000" transform="translate(90.777277 38.525552) scale(0.11 -0.11)">
     <defs>
      <path id="DejaVuSans-64" d="M 2906 2969 
L 2906 4863 
L 3481 4863 
L 3481 0 
L 2906 0 
L 2906 525 
Q 2725 213 2448 61 
Q 2172 -91 1784 -91 
Q 1150 -91 751 415 
Q 353 922 353 1747 
Q 353 2572 751 3078 
Q 1150 3584 1784 3584 
Q 2172 3584 2448 3432 
Q 2725 3281 2906 2969 
z
M 947 1747 
Q 947 1113 1208 752 
Q 1469 391 1925 391 
Q 2381 391 2643 752 
Q 2906 1113 2906 1747 
Q 2906 2381 2643 2742 
Q 2381 3103 1925 3103 
Q 1469 3103 1208 2742 
Q 947 2381 947 1747 
z
" transform="scale(0.015625)"/>
     </defs>
     <use xlink:href="#DejaVuSans-4d"/>
     <use xlink:href="#DejaVuSans-65" transform="translate(86.279297 0)"/>
     <use xlink:href="#DejaVuSans-64" transform="translate(147.802734 0)"/>
     <use xlink:href="#DejaVuSans-69" transform="translate(211.279297 0)"/>
     <use xlink:href="#DejaVuSans-61" transform="translate(239.0625 0)"/>
     <use xlink:href="#DejaVuSans-6e" transform="translate(300.341797 0)"/>
     <use xlink:href="#DejaVuSans-3a" transform="translate(363.720703 0)"/>
     <use xlink:href="#DejaVuSans-20" transform="translate(397.412109 0)"/>
     <use xlink:href="#DejaVuSans-35" transform="translate(429.199219 0)"/>
     <use xlink:href="#DejaVuSans-35" transform="translate(492.822266 0)"/>
     <use xlink:href="#DejaVuSans-35" transform="translate(556.445312 0)"/>
     <use xlink:href="#DejaVuSans-2e" transform="translate(620.068359 0)"/>
     <use xlink:href="#DejaVuSans-30" transform="translate(651.855469 0)"/>
     <use xlink:href="#DejaVuSans-31" transform="translate(715.478516 0)"/>
    </g>
   </g>
   <g id="text_20">
    <!-- 95% CI: -->
    <g style="fill: #ffa500" transform="translate(290.134062 94.958516) scale(0.11 -0.11)">
     <defs>
      <path id="DejaVuSans-25" d="M 4653 2053 
Q 4381 2053 4226 1822 
Q 4072 1591 4072 1178 
Q 4072 772 4226 539 
Q 4381 306 4653 306 
Q 4919 306 5073 539 
Q 5228 772 5228 1178 
Q 5228 1588 5073 1820 
Q 4919 2053 4653 2053 
z
M 4653 2450 
Q 5147 2450 5437 2106 
Q 5728 1763 5728 1178 
Q 5728 594 5436 251 
Q 5144 -91 4653 -91 
Q 4153 -91 3862 251 
Q 3572 594 3572 1178 
Q 3572 1766 3864 2108 
Q 4156 2450 4653 2450 
z
M 1428 4353 
Q 1159 4353 1004 4120 
Q 850 3888 850 3481 
Q 850 3069 1003 2837 
Q 1156 2606 1428 2606 
Q 1700 2606 1854 2837 
Q 2009 3069 2009 3481 
Q 2009 3884 1853 4118 
Q 1697 4353 1428 4353 
z
M 4250 4750 
L 4750 4750 
L 1831 -91 
L 1331 -91 
L 4250 4750 
z
M 1428 4750 
Q 1922 4750 2215 4408 
Q 2509 4066 2509 3481 
Q 2509 2891 2217 2550 
Q 1925 2209 1428 2209 
Q 931 2209 642 2551 
Q 353 2894 353 3481 
Q 353 4063 643 4406 
Q 934 4750 1428 4750 
z
" transform="scale(0.015625)"/>
      <path id="DejaVuSans-43" d="M 4122 4306 
L 4122 3641 
Q 3803 3938 3442 4084 
Q 3081 4231 2675 4231 
Q 1875 4231 1450 3742 
Q 1025 3253 1025 2328 
Q 1025 1406 1450 917 
Q 1875 428 2675 428 
Q 3081 428 3442 575 
Q 3803 722 4122 1019 
L 4122 359 
Q 3791 134 3420 21 
Q 3050 -91 2638 -91 
Q 1578 -91 968 557 
Q 359 1206 359 2328 
Q 359 3453 968 4101 
Q 1578 4750 2638 4750 
Q 3056 4750 3426 4639 
Q 3797 4528 4122 4306 
z
" transform="scale(0.015625)"/>
      <path id="DejaVuSans-49" d="M 628 4666 
L 1259 4666 
L 1259 0 
L 628 0 
L 628 4666 
z
" transform="scale(0.015625)"/>
     </defs>
     <use xlink:href="#DejaVuSans-39"/>
     <use xlink:href="#DejaVuSans-35" transform="translate(63.623047 0)"/>
     <use xlink:href="#DejaVuSans-25" transform="translate(127.246094 0)"/>
     <use xlink:href="#DejaVuSans-20" transform="translate(222.265625 0)"/>
     <use xlink:href="#DejaVuSans-43" transform="translate(254.052734 0)"/>
     <use xlink:href="#DejaVuSans-49" transform="translate(323.876953 0)"/>
     <use xlink:href="#DejaVuSans-3a" transform="translate(353.369141 0)"/>
    </g>
    <!-- [554.39, 555.64] -->
    <g style="fill: #ffa500" transform="translate(265.145156 107.276109) scale(0.11 -0.11)">
     <defs>
      <path id="DejaVuSans-5b" d="M 550 4863 
L 1875 4863 
L 1875 4416 
L 1125 4416 
L 1125 -397 
L 1875 -397 
L 1875 -844 
L 550 -844 
L 550 4863 
z
" transform="scale(0.015625)"/>
      <path id="DejaVuSans-2c" d="M 750 794 
L 1409 794 
L 1409 256 
L 897 -744 
L 494 -744 
L 750 256 
L 750 794 
z
" transform="scale(0.015625)"/>
      <path id="DejaVuSans-5d" d="M 1947 4863 
L 1947 -844 
L 622 -844 
L 622 -397 
L 1369 -397 
L 1369 4416 
L 622 4416 
L 622 4863 
L 1947 4863 
z
" transform="scale(0.015625)"/>
     </defs>
     <use xlink:href="#DejaVuSans-5b"/>
     <use xlink:href="#DejaVuSans-35" transform="translate(39.013672 0)"/>
     <use xlink:href="#DejaVuSans-35" transform="translate(102.636719 0)"/>
     <use xlink:href="#DejaVuSans-34" transform="translate(166.259766 0)"/>
     <use xlink:href="#DejaVuSans-2e" transform="translate(229.882812 0)"/>
     <use xlink:href="#DejaVuSans-33" transform="translate(261.669922 0)"/>
     <use xlink:href="#DejaVuSans-39" transform="translate(325.292969 0)"/>
     <use xlink:href="#DejaVuSans-2c" transform="translate(388.916016 0)"/>
     <use xlink:href="#DejaVuSans-20" transform="translate(420.703125 0)"/>
     <use xlink:href="#DejaVuSans-35" transform="translate(452.490234 0)"/>
     <use xlink:href="#DejaVuSans-35" transform="translate(516.113281 0)"/>
     <use xlink:href="#DejaVuSans-35" transform="translate(579.736328 0)"/>
     <use xlink:href="#DejaVuSans-2e" transform="translate(643.359375 0)"/>
     <use xlink:href="#DejaVuSans-36" transform="translate(675.146484 0)"/>
     <use xlink:href="#DejaVuSans-34" transform="translate(738.769531 0)"/>
     <use xlink:href="#DejaVuSans-5d" transform="translate(802.392578 0)"/>
    </g>
   </g>
   <g id="text_21">
    <!-- Kernel Density Estimation of Execution Time of Mandelbrot Set with IO over 1000 iterations -->
    <g style="fill: #262626" transform="translate(92.00325 17.568) scale(0.096 -0.096)">
     <defs>
      <path id="DejaVuSans-4b" d="M 628 4666 
L 1259 4666 
L 1259 2694 
L 3353 4666 
L 4166 4666 
L 1850 2491 
L 4331 0 
L 3500 0 
L 1259 2247 
L 1259 0 
L 628 0 
L 628 4666 
z
" transform="scale(0.015625)"/>
      <path id="DejaVuSans-72" d="M 2631 2963 
Q 2534 3019 2420 3045 
Q 2306 3072 2169 3072 
Q 1681 3072 1420 2755 
Q 1159 2438 1159 1844 
L 1159 0 
L 581 0 
L 581 3500 
L 1159 3500 
L 1159 2956 
Q 1341 3275 1631 3429 
Q 1922 3584 2338 3584 
Q 2397 3584 2469 3576 
Q 2541 3569 2628 3553 
L 2631 2963 
z
" transform="scale(0.015625)"/>
      <path id="DejaVuSans-6c" d="M 603 4863 
L 1178 4863 
L 1178 0 
L 603 0 
L 603 4863 
z
" transform="scale(0.015625)"/>
      <path id="DejaVuSans-66" d="M 2375 4863 
L 2375 4384 
L 1825 4384 
Q 1516 4384 1395 4259 
Q 1275 4134 1275 3809 
L 1275 3500 
L 2222 3500 
L 2222 3053 
L 1275 3053 
L 1275 0 
L 697 0 
L 697 3053 
L 147 3053 
L 147 3500 
L 697 3500 
L 697 3744 
Q 697 4328 969 4595 
Q 1241 4863 1831 4863 
L 2375 4863 
z
" transform="scale(0.015625)"/>
      <path id="DejaVuSans-62" d="M 3116 1747 
Q 3116 2381 2855 2742 
Q 2594 3103 2138 3103 
Q 1681 3103 1420 2742 
Q 1159 2381 1159 1747 
Q 1159 1113 1420 752 
Q 1681 391 2138 391 
Q 2594 391 2855 752 
Q 3116 1113 3116 1747 
z
M 1159 2969 
Q 1341 3281 1617 3432 
Q 1894 3584 2278 3584 
Q 2916 3584 3314 3078 
Q 3713 2572 3713 1747 
Q 3713 922 3314 415 
Q 2916 -91 2278 -91 
Q 1894 -91 1617 61 
Q 1341 213 1159 525 
L 1159 0 
L 581 0 
L 581 4863 
L 1159 4863 
L 1159 2969 
z
" transform="scale(0.015625)"/>
      <path id="DejaVuSans-53" d="M 3425 4513 
L 3425 3897 
Q 3066 4069 2747 4153 
Q 2428 4238 2131 4238 
Q 1616 4238 1336 4038 
Q 1056 3838 1056 3469 
Q 1056 3159 1242 3001 
Q 1428 2844 1947 2747 
L 2328 2669 
Q 3034 2534 3370 2195 
Q 3706 1856 3706 1288 
Q 3706 609 3251 259 
Q 2797 -91 1919 -91 
Q 1588 -91 1214 -16 
Q 841 59 441 206 
L 441 856 
Q 825 641 1194 531 
Q 1563 422 1919 422 
Q 2459 422 2753 634 
Q 3047 847 3047 1241 
Q 3047 1584 2836 1778 
Q 2625 1972 2144 2069 
L 1759 2144 
Q 1053 2284 737 2584 
Q 422 2884 422 3419 
Q 422 4038 858 4394 
Q 1294 4750 2059 4750 
Q 2388 4750 2728 4690 
Q 3069 4631 3425 4513 
z
" transform="scale(0.015625)"/>
      <path id="DejaVuSans-77" d="M 269 3500 
L 844 3500 
L 1563 769 
L 2278 3500 
L 2956 3500 
L 3675 769 
L 4391 3500 
L 4966 3500 
L 4050 0 
L 3372 0 
L 2619 2869 
L 1863 0 
L 1184 0 
L 269 3500 
z
" transform="scale(0.015625)"/>
      <path id="DejaVuSans-68" d="M 3513 2113 
L 3513 0 
L 2938 0 
L 2938 2094 
Q 2938 2591 2744 2837 
Q 2550 3084 2163 3084 
Q 1697 3084 1428 2787 
Q 1159 2491 1159 1978 
L 1159 0 
L 581 0 
L 581 4863 
L 1159 4863 
L 1159 2956 
Q 1366 3272 1645 3428 
Q 1925 3584 2291 3584 
Q 2894 3584 3203 3211 
Q 3513 2838 3513 2113 
z
" transform="scale(0.015625)"/>
      <path id="DejaVuSans-4f" d="M 2522 4238 
Q 1834 4238 1429 3725 
Q 1025 3213 1025 2328 
Q 1025 1447 1429 934 
Q 1834 422 2522 422 
Q 3209 422 3611 934 
Q 4013 1447 4013 2328 
Q 4013 3213 3611 3725 
Q 3209 4238 2522 4238 
z
M 2522 4750 
Q 3503 4750 4090 4092 
Q 4678 3434 4678 2328 
Q 4678 1225 4090 567 
Q 3503 -91 2522 -91 
Q 1538 -91 948 565 
Q 359 1222 359 2328 
Q 359 3434 948 4092 
Q 1538 4750 2522 4750 
z
" transform="scale(0.015625)"/>
      <path id="DejaVuSans-76" d="M 191 3500 
L 800 3500 
L 1894 563 
L 2988 3500 
L 3597 3500 
L 2284 0 
L 1503 0 
L 191 3500 
z
" transform="scale(0.015625)"/>
     </defs>
     <use xlink:href="#DejaVuSans-4b"/>
     <use xlink:href="#DejaVuSans-65" transform="translate(60.576172 0)"/>
     <use xlink:href="#DejaVuSans-72" transform="translate(122.099609 0)"/>
     <use xlink:href="#DejaVuSans-6e" transform="translate(161.462891 0)"/>
     <use xlink:href="#DejaVuSans-65" transform="translate(224.841797 0)"/>
     <use xlink:href="#DejaVuSans-6c" transform="translate(286.365234 0)"/>
     <use xlink:href="#DejaVuSans-20" transform="translate(314.148438 0)"/>
     <use xlink:href="#DejaVuSans-44" transform="translate(345.935547 0)"/>
     <use xlink:href="#DejaVuSans-65" transform="translate(422.9375 0)"/>
     <use xlink:href="#DejaVuSans-6e" transform="translate(484.460938 0)"/>
     <use xlink:href="#DejaVuSans-73" transform="translate(547.839844 0)"/>
     <use xlink:href="#DejaVuSans-69" transform="translate(599.939453 0)"/>
     <use xlink:href="#DejaVuSans-74" transform="translate(627.722656 0)"/>
     <use xlink:href="#DejaVuSans-79" transform="translate(666.931641 0)"/>
     <use xlink:href="#DejaVuSans-20" transform="translate(726.111328 0)"/>
     <use xlink:href="#DejaVuSans-45" transform="translate(757.898438 0)"/>
     <use xlink:href="#DejaVuSans-73" transform="translate(821.082031 0)"/>
     <use xlink:href="#DejaVuSans-74" transform="translate(873.181641 0)"/>
     <use xlink:href="#DejaVuSans-69" transform="translate(912.390625 0)"/>
     <use xlink:href="#DejaVuSans-6d" transform="translate(940.173828 0)"/>
     <use xlink:href="#DejaVuSans-61" transform="translate(1037.585938 0)"/>
     <use xlink:href="#DejaVuSans-74" transform="translate(1098.865234 0)"/>
     <use xlink:href="#DejaVuSans-69" transform="translate(1138.074219 0)"/>
     <use xlink:href="#DejaVuSans-6f" transform="translate(1165.857422 0)"/>
     <use xlink:href="#DejaVuSans-6e" transform="translate(1227.039062 0)"/>
     <use xlink:href="#DejaVuSans-20" transform="translate(1290.417969 0)"/>
     <use xlink:href="#DejaVuSans-6f" transform="translate(1322.205078 0)"/>
     <use xlink:href="#DejaVuSans-66" transform="translate(1383.386719 0)"/>
     <use xlink:href="#DejaVuSans-20" transform="translate(1418.591797 0)"/>
     <use xlink:href="#DejaVuSans-45" transform="translate(1450.378906 0)"/>
     <use xlink:href="#DejaVuSans-78" transform="translate(1513.5625 0)"/>
     <use xlink:href="#DejaVuSans-65" transform="translate(1569.617188 0)"/>
     <use xlink:href="#DejaVuSans-63" transform="translate(1631.140625 0)"/>
     <use xlink:href="#DejaVuSans-75" transform="translate(1686.121094 0)"/>
     <use xlink:href="#DejaVuSans-74" transform="translate(1749.5 0)"/>
     <use xlink:href="#DejaVuSans-69" transform="translate(1788.708984 0)"/>
     <use xlink:href="#DejaVuSans-6f" transform="translate(1816.492188 0)"/>
     <use xlink:href="#DejaVuSans-6e" transform="translate(1877.673828 0)"/>
     <use xlink:href="#DejaVuSans-20" transform="translate(1941.052734 0)"/>
     <use xlink:href="#DejaVuSans-54" transform="translate(1972.839844 0)"/>
     <use xlink:href="#DejaVuSans-69" transform="translate(2030.798828 0)"/>
     <use xlink:href="#DejaVuSans-6d" transform="translate(2058.582031 0)"/>
     <use xlink:href="#DejaVuSans-65" transform="translate(2155.994141 0)"/>
     <use xlink:href="#DejaVuSans-20" transform="translate(2217.517578 0)"/>
     <use xlink:href="#DejaVuSans-6f" transform="translate(2249.304688 0)"/>
     <use xlink:href="#DejaVuSans-66" transform="translate(2310.486328 0)"/>
     <use xlink:href="#DejaVuSans-20" transform="translate(2345.691406 0)"/>
     <use xlink:href="#DejaVuSans-4d" transform="translate(2377.478516 0)"/>
     <use xlink:href="#DejaVuSans-61" transform="translate(2463.757812 0)"/>
     <use xlink:href="#DejaVuSans-6e" transform="translate(2525.037109 0)"/>
     <use xlink:href="#DejaVuSans-64" transform="translate(2588.416016 0)"/>
     <use xlink:href="#DejaVuSans-65" transform="translate(2651.892578 0)"/>
     <use xlink:href="#DejaVuSans-6c" transform="translate(2713.416016 0)"/>
     <use xlink:href="#DejaVuSans-62" transform="translate(2741.199219 0)"/>
     <use xlink:href="#DejaVuSans-72" transform="translate(2804.675781 0)"/>
     <use xlink:href="#DejaVuSans-6f" transform="translate(2843.539062 0)"/>
     <use xlink:href="#DejaVuSans-74" transform="translate(2904.720703 0)"/>
     <use xlink:href="#DejaVuSans-20" transform="translate(2943.929688 0)"/>
     <use xlink:href="#DejaVuSans-53" transform="translate(2975.716797 0)"/>
     <use xlink:href="#DejaVuSans-65" transform="translate(3039.193359 0)"/>
     <use xlink:href="#DejaVuSans-74" transform="translate(3100.716797 0)"/>
     <use xlink:href="#DejaVuSans-20" transform="translate(3139.925781 0)"/>
     <use xlink:href="#DejaVuSans-77" transform="translate(3171.712891 0)"/>
     <use xlink:href="#DejaVuSans-69" transform="translate(3253.5 0)"/>
     <use xlink:href="#DejaVuSans-74" transform="translate(3281.283203 0)"/>
     <use xlink:href="#DejaVuSans-68" transform="translate(3320.492188 0)"/>
     <use xlink:href="#DejaVuSans-20" transform="translate(3383.871094 0)"/>
     <use xlink:href="#DejaVuSans-49" transform="translate(3415.658203 0)"/>
     <use xlink:href="#DejaVuSans-4f" transform="translate(3445.150391 0)"/>
     <use xlink:href="#DejaVuSans-20" transform="translate(3523.861328 0)"/>
     <use xlink:href="#DejaVuSans-6f" transform="translate(3555.648438 0)"/>
     <use xlink:href="#DejaVuSans-76" transform="translate(3616.830078 0)"/>
     <use xlink:href="#DejaVuSans-65" transform="translate(3676.009766 0)"/>
     <use xlink:href="#DejaVuSans-72" transform="translate(3737.533203 0)"/>
     <use xlink:href="#DejaVuSans-20" transform="translate(3778.646484 0)"/>
     <use xlink:href="#DejaVuSans-31" transform="translate(3810.433594 0)"/>
     <use xlink:href="#DejaVuSans-30" transform="translate(3874.056641 0)"/>
     <use xlink:href="#DejaVuSans-30" transform="translate(3937.679688 0)"/>
     <use xlink:href="#DejaVuSans-30" transform="translate(4001.302734 0)"/>
     <use xlink:href="#DejaVuSans-20" transform="translate(4064.925781 0)"/>
     <use xlink:href="#DejaVuSans-69" transform="translate(4096.712891 0)"/>
     <use xlink:href="#DejaVuSans-74" transform="translate(4124.496094 0)"/>
     <use xlink:href="#DejaVuSans-65" transform="translate(4163.705078 0)"/>
     <use xlink:href="#DejaVuSans-72" transform="translate(4225.228516 0)"/>
     <use xlink:href="#DejaVuSans-61" transform="translate(4266.341797 0)"/>
     <use xlink:href="#DejaVuSans-74" transform="translate(4327.621094 0)"/>
     <use xlink:href="#DejaVuSans-69" transform="translate(4366.830078 0)"/>
     <use xlink:href="#DejaVuSans-6f" transform="translate(4394.613281 0)"/>
     <use xlink:href="#DejaVuSans-6e" transform="translate(4455.794922 0)"/>
     <use xlink:href="#DejaVuSans-73" transform="translate(4519.173828 0)"/>
    </g>
   </g>
  </g>
  <g id="axes_2">
   <g id="patch_7">
    <path d="M 74.268 383.412 
L 548.577 383.412 
L 548.577 234.384 
L 74.268 234.384 
z
" style="fill: #ffffff"/>
   </g>
   <g id="matplotlib.axis_3">
    <g id="xtick_8">
     <g id="line2d_33">
      <path d="M 74.268 383.412 
L 74.268 234.384 
" clip-path="url(#p110d8355b0)" style="fill: none; stroke-dasharray: 2.59,1.12; stroke-dashoffset: 0; stroke: #cccccc; stroke-opacity: 0.7; stroke-width: 0.7"/>
     </g>
     <g id="line2d_34">
      <g>
       <use xlink:href="#mc438ba15f5" x="74.268" y="383.412" style="fill: #262626; stroke: #262626"/>
      </g>
     </g>
     <g id="text_22">
      <!-- 170.0 -->
      <g transform="translate(57.091125 400.830125) scale(0.12 -0.12)">
       <use xlink:href="#DejaVuSans-31"/>
       <use xlink:href="#DejaVuSans-37" transform="translate(63.623047 0)"/>
       <use xlink:href="#DejaVuSans-30" transform="translate(127.246094 0)"/>
       <use xlink:href="#DejaVuSans-2e" transform="translate(190.869141 0)"/>
       <use xlink:href="#DejaVuSans-30" transform="translate(222.65625 0)"/>
      </g>
     </g>
    </g>
    <g id="xtick_9">
     <g id="line2d_35">
      <path d="M 133.556625 383.412 
L 133.556625 234.384 
" clip-path="url(#p110d8355b0)" style="fill: none; stroke-dasharray: 2.59,1.12; stroke-dashoffset: 0; stroke: #cccccc; stroke-opacity: 0.7; stroke-width: 0.7"/>
     </g>
     <g id="line2d_36">
      <g>
       <use xlink:href="#mc438ba15f5" x="133.556625" y="383.412" style="fill: #262626; stroke: #262626"/>
      </g>
     </g>
     <g id="text_23">
      <!-- 172.5 -->
      <g transform="translate(116.37975 400.830125) scale(0.12 -0.12)">
       <use xlink:href="#DejaVuSans-31"/>
       <use xlink:href="#DejaVuSans-37" transform="translate(63.623047 0)"/>
       <use xlink:href="#DejaVuSans-32" transform="translate(127.246094 0)"/>
       <use xlink:href="#DejaVuSans-2e" transform="translate(190.869141 0)"/>
       <use xlink:href="#DejaVuSans-35" transform="translate(222.65625 0)"/>
      </g>
     </g>
    </g>
    <g id="xtick_10">
     <g id="line2d_37">
      <path d="M 192.84525 383.412 
L 192.84525 234.384 
" clip-path="url(#p110d8355b0)" style="fill: none; stroke-dasharray: 2.59,1.12; stroke-dashoffset: 0; stroke: #cccccc; stroke-opacity: 0.7; stroke-width: 0.7"/>
     </g>
     <g id="line2d_38">
      <g>
       <use xlink:href="#mc438ba15f5" x="192.84525" y="383.412" style="fill: #262626; stroke: #262626"/>
      </g>
     </g>
     <g id="text_24">
      <!-- 175.0 -->
      <g transform="translate(175.668375 400.830125) scale(0.12 -0.12)">
       <use xlink:href="#DejaVuSans-31"/>
       <use xlink:href="#DejaVuSans-37" transform="translate(63.623047 0)"/>
       <use xlink:href="#DejaVuSans-35" transform="translate(127.246094 0)"/>
       <use xlink:href="#DejaVuSans-2e" transform="translate(190.869141 0)"/>
       <use xlink:href="#DejaVuSans-30" transform="translate(222.65625 0)"/>
      </g>
     </g>
    </g>
    <g id="xtick_11">
     <g id="line2d_39">
      <path d="M 252.133875 383.412 
L 252.133875 234.384 
" clip-path="url(#p110d8355b0)" style="fill: none; stroke-dasharray: 2.59,1.12; stroke-dashoffset: 0; stroke: #cccccc; stroke-opacity: 0.7; stroke-width: 0.7"/>
     </g>
     <g id="line2d_40">
      <g>
       <use xlink:href="#mc438ba15f5" x="252.133875" y="383.412" style="fill: #262626; stroke: #262626"/>
      </g>
     </g>
     <g id="text_25">
      <!-- 177.5 -->
      <g transform="translate(234.957 400.830125) scale(0.12 -0.12)">
       <use xlink:href="#DejaVuSans-31"/>
       <use xlink:href="#DejaVuSans-37" transform="translate(63.623047 0)"/>
       <use xlink:href="#DejaVuSans-37" transform="translate(127.246094 0)"/>
       <use xlink:href="#DejaVuSans-2e" transform="translate(190.869141 0)"/>
       <use xlink:href="#DejaVuSans-35" transform="translate(222.65625 0)"/>
      </g>
     </g>
    </g>
    <g id="xtick_12">
     <g id="line2d_41">
      <path d="M 311.4225 383.412 
L 311.4225 234.384 
" clip-path="url(#p110d8355b0)" style="fill: none; stroke-dasharray: 2.59,1.12; stroke-dashoffset: 0; stroke: #cccccc; stroke-opacity: 0.7; stroke-width: 0.7"/>
     </g>
     <g id="line2d_42">
      <g>
       <use xlink:href="#mc438ba15f5" x="311.4225" y="383.412" style="fill: #262626; stroke: #262626"/>
      </g>
     </g>
     <g id="text_26">
      <!-- 180.0 -->
      <g transform="translate(294.245625 400.830125) scale(0.12 -0.12)">
       <use xlink:href="#DejaVuSans-31"/>
       <use xlink:href="#DejaVuSans-38" transform="translate(63.623047 0)"/>
       <use xlink:href="#DejaVuSans-30" transform="translate(127.246094 0)"/>
       <use xlink:href="#DejaVuSans-2e" transform="translate(190.869141 0)"/>
       <use xlink:href="#DejaVuSans-30" transform="translate(222.65625 0)"/>
      </g>
     </g>
    </g>
    <g id="xtick_13">
     <g id="line2d_43">
      <path d="M 370.711125 383.412 
L 370.711125 234.384 
" clip-path="url(#p110d8355b0)" style="fill: none; stroke-dasharray: 2.59,1.12; stroke-dashoffset: 0; stroke: #cccccc; stroke-opacity: 0.7; stroke-width: 0.7"/>
     </g>
     <g id="line2d_44">
      <g>
       <use xlink:href="#mc438ba15f5" x="370.711125" y="383.412" style="fill: #262626; stroke: #262626"/>
      </g>
     </g>
     <g id="text_27">
      <!-- 182.5 -->
      <g transform="translate(353.53425 400.830125) scale(0.12 -0.12)">
       <use xlink:href="#DejaVuSans-31"/>
       <use xlink:href="#DejaVuSans-38" transform="translate(63.623047 0)"/>
       <use xlink:href="#DejaVuSans-32" transform="translate(127.246094 0)"/>
       <use xlink:href="#DejaVuSans-2e" transform="translate(190.869141 0)"/>
       <use xlink:href="#DejaVuSans-35" transform="translate(222.65625 0)"/>
      </g>
     </g>
    </g>
    <g id="xtick_14">
     <g id="line2d_45">
      <path d="M 429.99975 383.412 
L 429.99975 234.384 
" clip-path="url(#p110d8355b0)" style="fill: none; stroke-dasharray: 2.59,1.12; stroke-dashoffset: 0; stroke: #cccccc; stroke-opacity: 0.7; stroke-width: 0.7"/>
     </g>
     <g id="line2d_46">
      <g>
       <use xlink:href="#mc438ba15f5" x="429.99975" y="383.412" style="fill: #262626; stroke: #262626"/>
      </g>
     </g>
     <g id="text_28">
      <!-- 185.0 -->
      <g transform="translate(412.822875 400.830125) scale(0.12 -0.12)">
       <use xlink:href="#DejaVuSans-31"/>
       <use xlink:href="#DejaVuSans-38" transform="translate(63.623047 0)"/>
       <use xlink:href="#DejaVuSans-35" transform="translate(127.246094 0)"/>
       <use xlink:href="#DejaVuSans-2e" transform="translate(190.869141 0)"/>
       <use xlink:href="#DejaVuSans-30" transform="translate(222.65625 0)"/>
      </g>
     </g>
    </g>
    <g id="xtick_15">
     <g id="line2d_47">
      <path d="M 489.288375 383.412 
L 489.288375 234.384 
" clip-path="url(#p110d8355b0)" style="fill: none; stroke-dasharray: 2.59,1.12; stroke-dashoffset: 0; stroke: #cccccc; stroke-opacity: 0.7; stroke-width: 0.7"/>
     </g>
     <g id="line2d_48">
      <g>
       <use xlink:href="#mc438ba15f5" x="489.288375" y="383.412" style="fill: #262626; stroke: #262626"/>
      </g>
     </g>
     <g id="text_29">
      <!-- 187.5 -->
      <g transform="translate(472.1115 400.830125) scale(0.12 -0.12)">
       <use xlink:href="#DejaVuSans-31"/>
       <use xlink:href="#DejaVuSans-38" transform="translate(63.623047 0)"/>
       <use xlink:href="#DejaVuSans-37" transform="translate(127.246094 0)"/>
       <use xlink:href="#DejaVuSans-2e" transform="translate(190.869141 0)"/>
       <use xlink:href="#DejaVuSans-35" transform="translate(222.65625 0)"/>
      </g>
     </g>
    </g>
    <g id="xtick_16">
     <g id="line2d_49">
      <path d="M 548.577 383.412 
L 548.577 234.384 
" clip-path="url(#p110d8355b0)" style="fill: none; stroke-dasharray: 2.59,1.12; stroke-dashoffset: 0; stroke: #cccccc; stroke-opacity: 0.7; stroke-width: 0.7"/>
     </g>
     <g id="line2d_50">
      <g>
       <use xlink:href="#mc438ba15f5" x="548.577" y="383.412" style="fill: #262626; stroke: #262626"/>
      </g>
     </g>
     <g id="text_30">
      <!-- 190.0 -->
      <g transform="translate(531.400125 400.830125) scale(0.12 -0.12)">
       <use xlink:href="#DejaVuSans-31"/>
       <use xlink:href="#DejaVuSans-39" transform="translate(63.623047 0)"/>
       <use xlink:href="#DejaVuSans-30" transform="translate(127.246094 0)"/>
       <use xlink:href="#DejaVuSans-2e" transform="translate(190.869141 0)"/>
       <use xlink:href="#DejaVuSans-30" transform="translate(222.65625 0)"/>
      </g>
     </g>
    </g>
    <g id="text_31">
     <!-- Execution Time (ms) -->
     <g transform="translate(249.835313 416.443875) scale(0.12 -0.12)">
      <use xlink:href="#DejaVuSans-45"/>
      <use xlink:href="#DejaVuSans-78" transform="translate(63.183594 0)"/>
      <use xlink:href="#DejaVuSans-65" transform="translate(119.238281 0)"/>
      <use xlink:href="#DejaVuSans-63" transform="translate(180.761719 0)"/>
      <use xlink:href="#DejaVuSans-75" transform="translate(235.742188 0)"/>
      <use xlink:href="#DejaVuSans-74" transform="translate(299.121094 0)"/>
      <use xlink:href="#DejaVuSans-69" transform="translate(338.330078 0)"/>
      <use xlink:href="#DejaVuSans-6f" transform="translate(366.113281 0)"/>
      <use xlink:href="#DejaVuSans-6e" transform="translate(427.294922 0)"/>
      <use xlink:href="#DejaVuSans-20" transform="translate(490.673828 0)"/>
      <use xlink:href="#DejaVuSans-54" transform="translate(522.460938 0)"/>
      <use xlink:href="#DejaVuSans-69" transform="translate(580.419922 0)"/>
      <use xlink:href="#DejaVuSans-6d" transform="translate(608.203125 0)"/>
      <use xlink:href="#DejaVuSans-65" transform="translate(705.615234 0)"/>
      <use xlink:href="#DejaVuSans-20" transform="translate(767.138672 0)"/>
      <use xlink:href="#DejaVuSans-28" transform="translate(798.925781 0)"/>
      <use xlink:href="#DejaVuSans-6d" transform="translate(837.939453 0)"/>
      <use xlink:href="#DejaVuSans-73" transform="translate(935.351562 0)"/>
      <use xlink:href="#DejaVuSans-29" transform="translate(987.451172 0)"/>
     </g>
    </g>
   </g>
   <g id="matplotlib.axis_4">
    <g id="ytick_9">
     <g id="line2d_51">
      <path d="M 74.268 383.412 
L 548.577 383.412 
" clip-path="url(#p110d8355b0)" style="fill: none; stroke-dasharray: 2.59,1.12; stroke-dashoffset: 0; stroke: #cccccc; stroke-opacity: 0.7; stroke-width: 0.7"/>
     </g>
     <g id="line2d_52">
      <g>
       <use xlink:href="#m50d38dc3b4" x="74.268" y="383.412" style="fill: #262626; stroke: #262626"/>
      </g>
     </g>
     <g id="text_32">
      <!-- 0.00 -->
      <g transform="translate(39.24925 387.971063) scale(0.12 -0.12)">
       <use xlink:href="#DejaVuSans-30"/>
       <use xlink:href="#DejaVuSans-2e" transform="translate(63.623047 0)"/>
       <use xlink:href="#DejaVuSans-30" transform="translate(95.410156 0)"/>
       <use xlink:href="#DejaVuSans-30" transform="translate(159.033203 0)"/>
      </g>
     </g>
    </g>
    <g id="ytick_10">
     <g id="line2d_53">
      <path d="M 74.268 363.5416 
L 548.577 363.5416 
" clip-path="url(#p110d8355b0)" style="fill: none; stroke-dasharray: 2.59,1.12; stroke-dashoffset: 0; stroke: #cccccc; stroke-opacity: 0.7; stroke-width: 0.7"/>
     </g>
     <g id="line2d_54">
      <g>
       <use xlink:href="#m50d38dc3b4" x="74.268" y="363.5416" style="fill: #262626; stroke: #262626"/>
      </g>
     </g>
     <g id="text_33">
      <!-- 0.02 -->
      <g transform="translate(39.24925 368.100662) scale(0.12 -0.12)">
       <use xlink:href="#DejaVuSans-30"/>
       <use xlink:href="#DejaVuSans-2e" transform="translate(63.623047 0)"/>
       <use xlink:href="#DejaVuSans-30" transform="translate(95.410156 0)"/>
       <use xlink:href="#DejaVuSans-32" transform="translate(159.033203 0)"/>
      </g>
     </g>
    </g>
    <g id="ytick_11">
     <g id="line2d_55">
      <path d="M 74.268 343.6712 
L 548.577 343.6712 
" clip-path="url(#p110d8355b0)" style="fill: none; stroke-dasharray: 2.59,1.12; stroke-dashoffset: 0; stroke: #cccccc; stroke-opacity: 0.7; stroke-width: 0.7"/>
     </g>
     <g id="line2d_56">
      <g>
       <use xlink:href="#m50d38dc3b4" x="74.268" y="343.6712" style="fill: #262626; stroke: #262626"/>
      </g>
     </g>
     <g id="text_34">
      <!-- 0.04 -->
      <g transform="translate(39.24925 348.230262) scale(0.12 -0.12)">
       <use xlink:href="#DejaVuSans-30"/>
       <use xlink:href="#DejaVuSans-2e" transform="translate(63.623047 0)"/>
       <use xlink:href="#DejaVuSans-30" transform="translate(95.410156 0)"/>
       <use xlink:href="#DejaVuSans-34" transform="translate(159.033203 0)"/>
      </g>
     </g>
    </g>
    <g id="ytick_12">
     <g id="line2d_57">
      <path d="M 74.268 323.8008 
L 548.577 323.8008 
" clip-path="url(#p110d8355b0)" style="fill: none; stroke-dasharray: 2.59,1.12; stroke-dashoffset: 0; stroke: #cccccc; stroke-opacity: 0.7; stroke-width: 0.7"/>
     </g>
     <g id="line2d_58">
      <g>
       <use xlink:href="#m50d38dc3b4" x="74.268" y="323.8008" style="fill: #262626; stroke: #262626"/>
      </g>
     </g>
     <g id="text_35">
      <!-- 0.06 -->
      <g transform="translate(39.24925 328.359863) scale(0.12 -0.12)">
       <use xlink:href="#DejaVuSans-30"/>
       <use xlink:href="#DejaVuSans-2e" transform="translate(63.623047 0)"/>
       <use xlink:href="#DejaVuSans-30" transform="translate(95.410156 0)"/>
       <use xlink:href="#DejaVuSans-36" transform="translate(159.033203 0)"/>
      </g>
     </g>
    </g>
    <g id="ytick_13">
     <g id="line2d_59">
      <path d="M 74.268 303.9304 
L 548.577 303.9304 
" clip-path="url(#p110d8355b0)" style="fill: none; stroke-dasharray: 2.59,1.12; stroke-dashoffset: 0; stroke: #cccccc; stroke-opacity: 0.7; stroke-width: 0.7"/>
     </g>
     <g id="line2d_60">
      <g>
       <use xlink:href="#m50d38dc3b4" x="74.268" y="303.9304" style="fill: #262626; stroke: #262626"/>
      </g>
     </g>
     <g id="text_36">
      <!-- 0.08 -->
      <g transform="translate(39.24925 308.489463) scale(0.12 -0.12)">
       <use xlink:href="#DejaVuSans-30"/>
       <use xlink:href="#DejaVuSans-2e" transform="translate(63.623047 0)"/>
       <use xlink:href="#DejaVuSans-30" transform="translate(95.410156 0)"/>
       <use xlink:href="#DejaVuSans-38" transform="translate(159.033203 0)"/>
      </g>
     </g>
    </g>
    <g id="ytick_14">
     <g id="line2d_61">
      <path d="M 74.268 284.06 
L 548.577 284.06 
" clip-path="url(#p110d8355b0)" style="fill: none; stroke-dasharray: 2.59,1.12; stroke-dashoffset: 0; stroke: #cccccc; stroke-opacity: 0.7; stroke-width: 0.7"/>
     </g>
     <g id="line2d_62">
      <g>
       <use xlink:href="#m50d38dc3b4" x="74.268" y="284.06" style="fill: #262626; stroke: #262626"/>
      </g>
     </g>
     <g id="text_37">
      <!-- 0.10 -->
      <g transform="translate(39.24925 288.619062) scale(0.12 -0.12)">
       <use xlink:href="#DejaVuSans-30"/>
       <use xlink:href="#DejaVuSans-2e" transform="translate(63.623047 0)"/>
       <use xlink:href="#DejaVuSans-31" transform="translate(95.410156 0)"/>
       <use xlink:href="#DejaVuSans-30" transform="translate(159.033203 0)"/>
      </g>
     </g>
    </g>
    <g id="ytick_15">
     <g id="line2d_63">
      <path d="M 74.268 264.1896 
L 548.577 264.1896 
" clip-path="url(#p110d8355b0)" style="fill: none; stroke-dasharray: 2.59,1.12; stroke-dashoffset: 0; stroke: #cccccc; stroke-opacity: 0.7; stroke-width: 0.7"/>
     </g>
     <g id="line2d_64">
      <g>
       <use xlink:href="#m50d38dc3b4" x="74.268" y="264.1896" style="fill: #262626; stroke: #262626"/>
      </g>
     </g>
     <g id="text_38">
      <!-- 0.12 -->
      <g transform="translate(39.24925 268.748663) scale(0.12 -0.12)">
       <use xlink:href="#DejaVuSans-30"/>
       <use xlink:href="#DejaVuSans-2e" transform="translate(63.623047 0)"/>
       <use xlink:href="#DejaVuSans-31" transform="translate(95.410156 0)"/>
       <use xlink:href="#DejaVuSans-32" transform="translate(159.033203 0)"/>
      </g>
     </g>
    </g>
    <g id="ytick_16">
     <g id="line2d_65">
      <path d="M 74.268 244.3192 
L 548.577 244.3192 
" clip-path="url(#p110d8355b0)" style="fill: none; stroke-dasharray: 2.59,1.12; stroke-dashoffset: 0; stroke: #cccccc; stroke-opacity: 0.7; stroke-width: 0.7"/>
     </g>
     <g id="line2d_66">
      <g>
       <use xlink:href="#m50d38dc3b4" x="74.268" y="244.3192" style="fill: #262626; stroke: #262626"/>
      </g>
     </g>
     <g id="text_39">
      <!-- 0.14 -->
      <g transform="translate(39.24925 248.878262) scale(0.12 -0.12)">
       <use xlink:href="#DejaVuSans-30"/>
       <use xlink:href="#DejaVuSans-2e" transform="translate(63.623047 0)"/>
       <use xlink:href="#DejaVuSans-31" transform="translate(95.410156 0)"/>
       <use xlink:href="#DejaVuSans-34" transform="translate(159.033203 0)"/>
      </g>
     </g>
    </g>
    <g id="text_40">
     <!-- Density -->
     <g transform="translate(20.753625 331.708312) rotate(-90) scale(0.12 -0.12)">
      <use xlink:href="#DejaVuSans-44"/>
      <use xlink:href="#DejaVuSans-65" transform="translate(77.001953 0)"/>
      <use xlink:href="#DejaVuSans-6e" transform="translate(138.525391 0)"/>
      <use xlink:href="#DejaVuSans-73" transform="translate(201.904297 0)"/>
      <use xlink:href="#DejaVuSans-69" transform="translate(254.003906 0)"/>
      <use xlink:href="#DejaVuSans-74" transform="translate(281.787109 0)"/>
      <use xlink:href="#DejaVuSans-79" transform="translate(320.996094 0)"/>
     </g>
    </g>
   </g>
   <g id="FillBetweenPolyCollection_3">
    <path d="M 73.162132 383.39129 
L 73.162132 383.412 
L 79.442326 383.412 
L 85.722519 383.412 
L 92.002713 383.412 
L 98.282906 383.412 
L 104.5631 383.412 
L 110.843293 383.412 
L 117.123487 383.412 
L 123.40368 383.412 
L 129.683874 383.412 
L 135.964067 383.412 
L 142.24426 383.412 
L 148.524454 383.412 
L 154.804647 383.412 
L 161.084841 383.412 
L 167.365034 383.412 
L 173.645228 383.412 
L 179.925421 383.412 
L 186.205615 383.412 
L 192.485808 383.412 
L 198.766002 383.412 
L 205.046195 383.412 
L 211.326389 383.412 
L 217.606582 383.412 
L 223.886776 383.412 
L 230.166969 383.412 
L 236.447162 383.412 
L 242.727356 383.412 
L 249.007549 383.412 
L 255.287743 383.412 
L 261.567936 383.412 
L 267.84813 383.412 
L 274.128323 383.412 
L 280.408517 383.412 
L 286.68871 383.412 
L 292.968904 383.412 
L 299.249097 383.412 
L 305.529291 383.412 
L 311.809484 383.412 
L 318.089678 383.412 
L 324.369871 383.412 
L 330.650065 383.412 
L 336.930258 383.412 
L 343.210451 383.412 
L 349.490645 383.412 
L 355.770838 383.412 
L 362.051032 383.412 
L 368.331225 383.412 
L 374.611419 383.412 
L 380.891612 383.412 
L 387.171806 383.412 
L 393.451999 383.412 
L 399.732193 383.412 
L 406.012386 383.412 
L 412.29258 383.412 
L 418.572773 383.412 
L 424.852967 383.412 
L 431.13316 383.412 
L 437.413354 383.412 
L 443.693547 383.412 
L 449.97374 383.412 
L 456.253934 383.412 
L 462.534127 383.412 
L 468.814321 383.412 
L 475.094514 383.412 
L 481.374708 383.412 
L 487.654901 383.412 
L 493.935095 383.412 
L 500.215288 383.412 
L 506.495482 383.412 
L 512.775675 383.412 
L 519.055869 383.412 
L 525.336062 383.412 
L 531.616256 383.412 
L 537.896449 383.412 
L 544.176643 383.412 
L 550.456836 383.412 
L 556.737029 383.412 
L 563.017223 383.412 
L 569.297416 383.412 
L 575.57761 383.412 
L 581.857803 383.412 
L 588.137997 383.412 
L 594.41819 383.412 
L 600.698384 383.412 
L 606.978577 383.412 
L 613.258771 383.412 
L 619.538964 383.412 
L 625.819158 383.412 
L 632.099351 383.412 
L 638.379545 383.412 
L 644.659738 383.412 
L 650.939931 383.412 
L 657.220125 383.412 
L 663.500318 383.412 
L 669.780512 383.412 
L 676.060705 383.412 
L 682.340899 383.412 
L 688.621092 383.412 
L 694.901286 383.412 
L 701.181479 383.412 
L 707.461673 383.412 
L 713.741866 383.412 
L 720.02206 383.412 
L 726.302253 383.412 
L 732.582447 383.412 
L 738.86264 383.412 
L 745.142834 383.412 
L 751.423027 383.412 
L 757.70322 383.412 
L 763.983414 383.412 
L 770.263607 383.412 
L 776.543801 383.412 
L 782.823994 383.412 
L 789.104188 383.412 
L 795.384381 383.412 
L 801.664575 383.412 
L 807.944768 383.412 
L 814.224962 383.412 
L 820.505155 383.412 
L 826.785349 383.412 
L 833.065542 383.412 
L 839.345736 383.412 
L 845.625929 383.412 
L 851.906123 383.412 
L 858.186316 383.412 
L 864.466509 383.412 
L 870.746703 383.412 
L 877.026896 383.412 
L 883.30709 383.412 
L 889.587283 383.412 
L 895.867477 383.412 
L 902.14767 383.412 
L 908.427864 383.412 
L 914.708057 383.412 
L 920.988251 383.412 
L 927.268444 383.412 
L 933.548638 383.412 
L 939.828831 383.412 
L 946.109025 383.412 
L 952.389218 383.412 
L 958.669412 383.412 
L 964.949605 383.412 
L 971.229798 383.412 
L 977.509992 383.412 
L 983.790185 383.412 
L 990.070379 383.412 
L 996.350572 383.412 
L 1002.630766 383.412 
L 1008.910959 383.412 
L 1015.191153 383.412 
L 1021.471346 383.412 
L 1027.75154 383.412 
L 1034.031733 383.412 
L 1040.311927 383.412 
L 1046.59212 383.412 
L 1052.872314 383.412 
L 1059.152507 383.412 
L 1065.4327 383.412 
L 1071.712894 383.412 
L 1077.993087 383.412 
L 1084.273281 383.412 
L 1090.553474 383.412 
L 1096.833668 383.412 
L 1103.113861 383.412 
L 1109.394055 383.412 
L 1115.674248 383.412 
L 1121.954442 383.412 
L 1128.234635 383.412 
L 1134.514829 383.412 
L 1140.795022 383.412 
L 1147.075216 383.412 
L 1153.355409 383.412 
L 1159.635603 383.412 
L 1165.915796 383.412 
L 1172.195989 383.412 
L 1178.476183 383.412 
L 1184.756376 383.412 
L 1191.03657 383.412 
L 1197.316763 383.412 
L 1203.596957 383.412 
L 1209.87715 383.412 
L 1216.157344 383.412 
L 1222.437537 383.412 
L 1228.717731 383.412 
L 1234.997924 383.412 
L 1241.278118 383.412 
L 1247.558311 383.412 
L 1253.838505 383.412 
L 1260.118698 383.412 
L 1266.398892 383.412 
L 1272.679085 383.412 
L 1278.959278 383.412 
L 1285.239472 383.412 
L 1291.519665 383.412 
L 1297.799859 383.412 
L 1304.080052 383.412 
L 1310.360246 383.412 
L 1316.640439 383.412 
L 1322.920633 383.412 
L 1322.920633 383.407162 
L 1322.920633 383.407162 
L 1316.640439 383.400899 
L 1310.360246 383.388595 
L 1304.080052 383.366659 
L 1297.799859 383.331296 
L 1291.519665 383.280012 
L 1285.239472 383.213661 
L 1278.959278 383.138151 
L 1272.679085 383.064587 
L 1266.398892 383.007038 
L 1260.118698 382.978275 
L 1253.838505 382.985178 
L 1247.558311 383.026068 
L 1241.278118 383.091367 
L 1234.997924 383.167242 
L 1228.717731 383.240329 
L 1222.437537 383.301365 
L 1216.157344 383.346489 
L 1209.87715 383.376357 
L 1203.596957 383.394182 
L 1197.316763 383.403816 
L 1191.03657 383.408546 
L 1184.756376 383.410661 
L 1178.476183 383.411523 
L 1172.195989 383.411844 
L 1165.915796 383.411953 
L 1159.635603 383.411987 
L 1153.355409 383.411997 
L 1147.075216 383.411999 
L 1140.795022 383.412 
L 1134.514829 383.412 
L 1128.234635 383.412 
L 1121.954442 383.412 
L 1115.674248 383.411999 
L 1109.394055 383.411996 
L 1103.113861 383.411984 
L 1096.833668 383.411944 
L 1090.553474 383.411815 
L 1084.273281 383.411442 
L 1077.993087 383.410454 
L 1071.712894 383.408062 
L 1065.4327 383.402784 
L 1059.152507 383.392183 
L 1052.872314 383.372845 
L 1046.59212 383.340916 
L 1040.311927 383.293426 
L 1034.031733 383.230265 
L 1027.75154 383.156072 
L 1021.471346 383.080846 
L 1015.191153 383.018292 
L 1008.910959 382.981918 
L 1002.630766 382.980322 
L 996.350572 383.013892 
L 990.070379 383.074655 
L 983.790185 383.149349 
L 977.509992 383.224104 
L 971.229798 383.288494 
L 964.949605 383.337409 
L 958.669412 383.370607 
L 952.389218 383.390895 
L 946.109025 383.402112 
L 939.828831 383.407744 
L 933.548638 383.410317 
L 927.268444 383.411388 
L 920.988251 383.411796 
L 914.708057 383.411937 
L 908.427864 383.411982 
L 902.14767 383.411995 
L 895.867477 383.411999 
L 889.587283 383.412 
L 883.30709 383.412 
L 877.026896 383.412 
L 870.746703 383.412 
L 864.466509 383.412 
L 858.186316 383.412 
L 851.906123 383.412 
L 845.625929 383.412 
L 839.345736 383.412 
L 833.065542 383.412 
L 826.785349 383.412 
L 820.505155 383.412 
L 814.224962 383.412 
L 807.944768 383.412 
L 801.664575 383.412 
L 795.384381 383.412 
L 789.104188 383.412 
L 782.823994 383.412 
L 776.543801 383.412 
L 770.263607 383.412 
L 763.983414 383.412 
L 757.70322 383.412 
L 751.423027 383.412 
L 745.142834 383.412 
L 738.86264 383.412 
L 732.582447 383.412 
L 726.302253 383.412 
L 720.02206 383.412 
L 713.741866 383.412 
L 707.461673 383.412 
L 701.181479 383.412 
L 694.901286 383.412 
L 688.621092 383.412 
L 682.340899 383.412 
L 676.060705 383.412 
L 669.780512 383.412 
L 663.500318 383.412 
L 657.220125 383.412 
L 650.939931 383.412 
L 644.659738 383.411999 
L 638.379545 383.411995 
L 632.099351 383.41198 
L 625.819158 383.411929 
L 619.538964 383.411771 
L 613.258771 383.41132 
L 606.978577 383.410146 
L 600.698384 383.407351 
L 594.41819 383.401292 
L 588.137997 383.389335 
L 581.857803 383.367918 
L 575.57761 383.333212 
L 569.297416 383.28257 
L 563.017223 383.21649 
L 556.737029 383.140179 
L 550.456836 383.063391 
L 544.176643 382.997521 
L 537.896449 382.950084 
L 531.616256 382.918293 
L 525.336062 382.884432 
L 519.055869 382.815478 
L 512.775675 382.667963 
L 506.495482 382.396829 
L 500.215288 381.964962 
L 493.935095 381.348882 
L 487.654901 380.536706 
L 481.374708 379.517657 
L 475.094514 378.267354 
L 468.814321 376.737242 
L 462.534127 374.856407 
L 456.253934 372.548514 
L 449.97374 369.758269 
L 443.693547 366.475643 
L 437.413354 362.746362 
L 431.13316 358.663589 
L 424.852967 354.344782 
L 418.572773 349.904248 
L 412.29258 345.433069 
L 406.012386 340.994089 
L 399.732193 336.632983 
L 393.451999 332.399325 
L 387.171806 328.36585 
L 380.891612 324.631526 
L 374.611419 321.298137 
L 368.331225 318.422905 
L 362.051032 315.967624 
L 355.770838 313.7765 
L 349.490645 311.608595 
L 343.210451 309.224632 
L 336.930258 306.495527 
L 330.650065 303.482132 
L 324.369871 300.444723 
L 318.089678 297.772015 
L 311.809484 295.855028 
L 305.529291 294.953148 
L 299.249097 295.099897 
L 292.968904 296.077254 
L 286.68871 297.45981 
L 280.408517 298.706219 
L 274.128323 299.265289 
L 267.84813 298.670593 
L 261.567936 296.61369 
L 255.287743 292.998385 
L 249.007549 287.977083 
L 242.727356 281.958234 
L 236.447162 275.566548 
L 230.166969 269.549126 
L 223.886776 264.648345 
L 217.606582 261.485603 
L 211.326389 260.497025 
L 205.046195 261.931077 
L 198.766002 265.88067 
L 192.485808 272.307309 
L 186.205615 281.03265 
L 179.925421 291.708102 
L 173.645228 303.797979 
L 167.365034 316.608977 
L 161.084841 329.373127 
L 154.804647 341.362132 
L 148.524454 351.996107 
L 142.24426 360.914287 
L 135.964067 367.992688 
L 129.683874 373.313158 
L 123.40368 377.101508 
L 117.123487 379.656514 
L 110.843293 381.287794 
L 104.5631 382.272677 
L 98.282906 382.834048 
L 92.002713 383.135484 
L 85.722519 383.287585 
L 79.442326 383.359508 
L 73.162132 383.39129 
z
" clip-path="url(#p110d8355b0)" style="fill: #245db2; fill-opacity: 0.25; stroke: #245db2; stroke-width: 0.8"/>
   </g>
   <g id="FillBetweenPolyCollection_4">
    <defs>
     <path id="mff74352cbc" d="M 276.366061 -48.588 
L 257.65246 -48.588 
L 257.65246 -197.616 
L 276.366061 -197.616 
L 276.366061 -197.616 
L 276.366061 -48.588 
z
" style="stroke: #ffa500; stroke-opacity: 0.3; stroke-width: 0.8"/>
    </defs>
    <g clip-path="url(#p110d8355b0)">
     <use xlink:href="#mff74352cbc" x="0" y="432" style="fill: #ffa500; fill-opacity: 0.3; stroke: #ffa500; stroke-opacity: 0.3; stroke-width: 0.8"/>
    </g>
   </g>
   <g id="line2d_67">
    <path d="M 278.069831 383.412 
L 278.069831 234.384 
" clip-path="url(#p110d8355b0)" style="fill: none; stroke-dasharray: 4.44,1.92; stroke-dashoffset: 0; stroke: #ff0000; stroke-width: 1.2"/>
   </g>
   <g id="line2d_68">
    <path d="M 266.34256 383.412 
L 266.34256 234.384 
" clip-path="url(#p110d8355b0)" style="fill: none; stroke-dasharray: 7.68,1.92,1.2,1.92; stroke-dashoffset: 0; stroke: #008000; stroke-width: 1.2"/>
   </g>
   <g id="patch_8">
    <path d="M 74.268 383.412 
L 74.268 234.384 
" style="fill: none; stroke: #262626; stroke-linejoin: miter; stroke-linecap: square"/>
   </g>
   <g id="patch_9">
    <path d="M 548.577 383.412 
L 548.577 234.384 
" style="fill: none; stroke: #262626; stroke-linejoin: miter; stroke-linecap: square"/>
   </g>
   <g id="patch_10">
    <path d="M 74.268 383.412 
L 548.577 383.412 
" style="fill: none; stroke: #262626; stroke-linejoin: miter; stroke-linecap: square"/>
   </g>
   <g id="patch_11">
    <path d="M 74.268 234.384 
L 548.577 234.384 
" style="fill: none; stroke: #262626; stroke-linejoin: miter; stroke-linecap: square"/>
   </g>
   <g id="text_41">
    <!-- Mean: 178.594 -->
    <g style="fill: #ff0000" transform="translate(297.042191 252.322112) scale(0.11 -0.11)">
     <use xlink:href="#DejaVuSans-4d"/>
     <use xlink:href="#DejaVuSans-65" transform="translate(86.279297 0)"/>
     <use xlink:href="#DejaVuSans-61" transform="translate(147.802734 0)"/>
     <use xlink:href="#DejaVuSans-6e" transform="translate(209.082031 0)"/>
     <use xlink:href="#DejaVuSans-3a" transform="translate(272.460938 0)"/>
     <use xlink:href="#DejaVuSans-20" transform="translate(306.152344 0)"/>
     <use xlink:href="#DejaVuSans-31" transform="translate(337.939453 0)"/>
     <use xlink:href="#DejaVuSans-37" transform="translate(401.5625 0)"/>
     <use xlink:href="#DejaVuSans-38" transform="translate(465.185547 0)"/>
     <use xlink:href="#DejaVuSans-2e" transform="translate(528.808594 0)"/>
     <use xlink:href="#DejaVuSans-35" transform="translate(560.595703 0)"/>
     <use xlink:href="#DejaVuSans-39" transform="translate(624.21875 0)"/>
     <use xlink:href="#DejaVuSans-34" transform="translate(687.841797 0)"/>
    </g>
   </g>
   <g id="text_42">
    <!-- Median: 178.10 -->
    <g style="fill: #008000" transform="translate(157.088284 249.341552) scale(0.11 -0.11)">
     <use xlink:href="#DejaVuSans-4d"/>
     <use xlink:href="#DejaVuSans-65" transform="translate(86.279297 0)"/>
     <use xlink:href="#DejaVuSans-64" transform="translate(147.802734 0)"/>
     <use xlink:href="#DejaVuSans-69" transform="translate(211.279297 0)"/>
     <use xlink:href="#DejaVuSans-61" transform="translate(239.0625 0)"/>
     <use xlink:href="#DejaVuSans-6e" transform="translate(300.341797 0)"/>
     <use xlink:href="#DejaVuSans-3a" transform="translate(363.720703 0)"/>
     <use xlink:href="#DejaVuSans-20" transform="translate(397.412109 0)"/>
     <use xlink:href="#DejaVuSans-31" transform="translate(429.199219 0)"/>
     <use xlink:href="#DejaVuSans-37" transform="translate(492.822266 0)"/>
     <use xlink:href="#DejaVuSans-38" transform="translate(556.445312 0)"/>
     <use xlink:href="#DejaVuSans-2e" transform="translate(620.068359 0)"/>
     <use xlink:href="#DejaVuSans-31" transform="translate(651.855469 0)"/>
     <use xlink:href="#DejaVuSans-30" transform="translate(715.478516 0)"/>
    </g>
   </g>
   <g id="text_43">
    <!-- 95% CI: -->
    <g style="fill: #ffa500" transform="translate(408.711313 305.774516) scale(0.11 -0.11)">
     <use xlink:href="#DejaVuSans-39"/>
     <use xlink:href="#DejaVuSans-35" transform="translate(63.623047 0)"/>
     <use xlink:href="#DejaVuSans-25" transform="translate(127.246094 0)"/>
     <use xlink:href="#DejaVuSans-20" transform="translate(222.265625 0)"/>
     <use xlink:href="#DejaVuSans-43" transform="translate(254.052734 0)"/>
     <use xlink:href="#DejaVuSans-49" transform="translate(323.876953 0)"/>
     <use xlink:href="#DejaVuSans-3a" transform="translate(353.369141 0)"/>
    </g>
    <!-- [177.73, 178.52] -->
    <g style="fill: #ffa500" transform="translate(383.722406 318.092109) scale(0.11 -0.11)">
     <use xlink:href="#DejaVuSans-5b"/>
     <use xlink:href="#DejaVuSans-31" transform="translate(39.013672 0)"/>
     <use xlink:href="#DejaVuSans-37" transform="translate(102.636719 0)"/>
     <use xlink:href="#DejaVuSans-37" transform="translate(166.259766 0)"/>
     <use xlink:href="#DejaVuSans-2e" transform="translate(229.882812 0)"/>
     <use xlink:href="#DejaVuSans-37" transform="translate(261.669922 0)"/>
     <use xlink:href="#DejaVuSans-33" transform="translate(325.292969 0)"/>
     <use xlink:href="#DejaVuSans-2c" transform="translate(388.916016 0)"/>
     <use xlink:href="#DejaVuSans-20" transform="translate(420.703125 0)"/>
     <use xlink:href="#DejaVuSans-31" transform="translate(452.490234 0)"/>
     <use xlink:href="#DejaVuSans-37" transform="translate(516.113281 0)"/>
     <use xlink:href="#DejaVuSans-38" transform="translate(579.736328 0)"/>
     <use xlink:href="#DejaVuSans-2e" transform="translate(643.359375 0)"/>
     <use xlink:href="#DejaVuSans-35" transform="translate(675.146484 0)"/>
     <use xlink:href="#DejaVuSans-32" transform="translate(738.769531 0)"/>
     <use xlink:href="#DejaVuSans-5d" transform="translate(802.392578 0)"/>
    </g>
   </g>
   <g id="text_44">
    <!-- Kernel Density Estimation of Execution Time of Mandelbrot Set without IO over 1000 iterations -->
    <g style="fill: #262626" transform="translate(84.1425 228.384) scale(0.096 -0.096)">
     <use xlink:href="#DejaVuSans-4b"/>
     <use xlink:href="#DejaVuSans-65" transform="translate(60.576172 0)"/>
     <use xlink:href="#DejaVuSans-72" transform="translate(122.099609 0)"/>
     <use xlink:href="#DejaVuSans-6e" transform="translate(161.462891 0)"/>
     <use xlink:href="#DejaVuSans-65" transform="translate(224.841797 0)"/>
     <use xlink:href="#DejaVuSans-6c" transform="translate(286.365234 0)"/>
     <use xlink:href="#DejaVuSans-20" transform="translate(314.148438 0)"/>
     <use xlink:href="#DejaVuSans-44" transform="translate(345.935547 0)"/>
     <use xlink:href="#DejaVuSans-65" transform="translate(422.9375 0)"/>
     <use xlink:href="#DejaVuSans-6e" transform="translate(484.460938 0)"/>
     <use xlink:href="#DejaVuSans-73" transform="translate(547.839844 0)"/>
     <use xlink:href="#DejaVuSans-69" transform="translate(599.939453 0)"/>
     <use xlink:href="#DejaVuSans-74" transform="translate(627.722656 0)"/>
     <use xlink:href="#DejaVuSans-79" transform="translate(666.931641 0)"/>
     <use xlink:href="#DejaVuSans-20" transform="translate(726.111328 0)"/>
     <use xlink:href="#DejaVuSans-45" transform="translate(757.898438 0)"/>
     <use xlink:href="#DejaVuSans-73" transform="translate(821.082031 0)"/>
     <use xlink:href="#DejaVuSans-74" transform="translate(873.181641 0)"/>
     <use xlink:href="#DejaVuSans-69" transform="translate(912.390625 0)"/>
     <use xlink:href="#DejaVuSans-6d" transform="translate(940.173828 0)"/>
     <use xlink:href="#DejaVuSans-61" transform="translate(1037.585938 0)"/>
     <use xlink:href="#DejaVuSans-74" transform="translate(1098.865234 0)"/>
     <use xlink:href="#DejaVuSans-69" transform="translate(1138.074219 0)"/>
     <use xlink:href="#DejaVuSans-6f" transform="translate(1165.857422 0)"/>
     <use xlink:href="#DejaVuSans-6e" transform="translate(1227.039062 0)"/>
     <use xlink:href="#DejaVuSans-20" transform="translate(1290.417969 0)"/>
     <use xlink:href="#DejaVuSans-6f" transform="translate(1322.205078 0)"/>
     <use xlink:href="#DejaVuSans-66" transform="translate(1383.386719 0)"/>
     <use xlink:href="#DejaVuSans-20" transform="translate(1418.591797 0)"/>
     <use xlink:href="#DejaVuSans-45" transform="translate(1450.378906 0)"/>
     <use xlink:href="#DejaVuSans-78" transform="translate(1513.5625 0)"/>
     <use xlink:href="#DejaVuSans-65" transform="translate(1569.617188 0)"/>
     <use xlink:href="#DejaVuSans-63" transform="translate(1631.140625 0)"/>
     <use xlink:href="#DejaVuSans-75" transform="translate(1686.121094 0)"/>
     <use xlink:href="#DejaVuSans-74" transform="translate(1749.5 0)"/>
     <use xlink:href="#DejaVuSans-69" transform="translate(1788.708984 0)"/>
     <use xlink:href="#DejaVuSans-6f" transform="translate(1816.492188 0)"/>
     <use xlink:href="#DejaVuSans-6e" transform="translate(1877.673828 0)"/>
     <use xlink:href="#DejaVuSans-20" transform="translate(1941.052734 0)"/>
     <use xlink:href="#DejaVuSans-54" transform="translate(1972.839844 0)"/>
     <use xlink:href="#DejaVuSans-69" transform="translate(2030.798828 0)"/>
     <use xlink:href="#DejaVuSans-6d" transform="translate(2058.582031 0)"/>
     <use xlink:href="#DejaVuSans-65" transform="translate(2155.994141 0)"/>
     <use xlink:href="#DejaVuSans-20" transform="translate(2217.517578 0)"/>
     <use xlink:href="#DejaVuSans-6f" transform="translate(2249.304688 0)"/>
     <use xlink:href="#DejaVuSans-66" transform="translate(2310.486328 0)"/>
     <use xlink:href="#DejaVuSans-20" transform="translate(2345.691406 0)"/>
     <use xlink:href="#DejaVuSans-4d" transform="translate(2377.478516 0)"/>
     <use xlink:href="#DejaVuSans-61" transform="translate(2463.757812 0)"/>
     <use xlink:href="#DejaVuSans-6e" transform="translate(2525.037109 0)"/>
     <use xlink:href="#DejaVuSans-64" transform="translate(2588.416016 0)"/>
     <use xlink:href="#DejaVuSans-65" transform="translate(2651.892578 0)"/>
     <use xlink:href="#DejaVuSans-6c" transform="translate(2713.416016 0)"/>
     <use xlink:href="#DejaVuSans-62" transform="translate(2741.199219 0)"/>
     <use xlink:href="#DejaVuSans-72" transform="translate(2804.675781 0)"/>
     <use xlink:href="#DejaVuSans-6f" transform="translate(2843.539062 0)"/>
     <use xlink:href="#DejaVuSans-74" transform="translate(2904.720703 0)"/>
     <use xlink:href="#DejaVuSans-20" transform="translate(2943.929688 0)"/>
     <use xlink:href="#DejaVuSans-53" transform="translate(2975.716797 0)"/>
     <use xlink:href="#DejaVuSans-65" transform="translate(3039.193359 0)"/>
     <use xlink:href="#DejaVuSans-74" transform="translate(3100.716797 0)"/>
     <use xlink:href="#DejaVuSans-20" transform="translate(3139.925781 0)"/>
     <use xlink:href="#DejaVuSans-77" transform="translate(3171.712891 0)"/>
     <use xlink:href="#DejaVuSans-69" transform="translate(3253.5 0)"/>
     <use xlink:href="#DejaVuSans-74" transform="translate(3281.283203 0)"/>
     <use xlink:href="#DejaVuSans-68" transform="translate(3320.492188 0)"/>
     <use xlink:href="#DejaVuSans-6f" transform="translate(3383.871094 0)"/>
     <use xlink:href="#DejaVuSans-75" transform="translate(3445.052734 0)"/>
     <use xlink:href="#DejaVuSans-74" transform="translate(3508.431641 0)"/>
     <use xlink:href="#DejaVuSans-20" transform="translate(3547.640625 0)"/>
     <use xlink:href="#DejaVuSans-49" transform="translate(3579.427734 0)"/>
     <use xlink:href="#DejaVuSans-4f" transform="translate(3608.919922 0)"/>
     <use xlink:href="#DejaVuSans-20" transform="translate(3687.630859 0)"/>
     <use xlink:href="#DejaVuSans-6f" transform="translate(3719.417969 0)"/>
     <use xlink:href="#DejaVuSans-76" transform="translate(3780.599609 0)"/>
     <use xlink:href="#DejaVuSans-65" transform="translate(3839.779297 0)"/>
     <use xlink:href="#DejaVuSans-72" transform="translate(3901.302734 0)"/>
     <use xlink:href="#DejaVuSans-20" transform="translate(3942.416016 0)"/>
     <use xlink:href="#DejaVuSans-31" transform="translate(3974.203125 0)"/>
     <use xlink:href="#DejaVuSans-30" transform="translate(4037.826172 0)"/>
     <use xlink:href="#DejaVuSans-30" transform="translate(4101.449219 0)"/>
     <use xlink:href="#DejaVuSans-30" transform="translate(4165.072266 0)"/>
     <use xlink:href="#DejaVuSans-20" transform="translate(4228.695312 0)"/>
     <use xlink:href="#DejaVuSans-69" transform="translate(4260.482422 0)"/>
     <use xlink:href="#DejaVuSans-74" transform="translate(4288.265625 0)"/>
     <use xlink:href="#DejaVuSans-65" transform="translate(4327.474609 0)"/>
     <use xlink:href="#DejaVuSans-72" transform="translate(4388.998047 0)"/>
     <use xlink:href="#DejaVuSans-61" transform="translate(4430.111328 0)"/>
     <use xlink:href="#DejaVuSans-74" transform="translate(4491.390625 0)"/>
     <use xlink:href="#DejaVuSans-69" transform="translate(4530.599609 0)"/>
     <use xlink:href="#DejaVuSans-6f" transform="translate(4558.382812 0)"/>
     <use xlink:href="#DejaVuSans-6e" transform="translate(4619.564453 0)"/>
     <use xlink:href="#DejaVuSans-73" transform="translate(4682.943359 0)"/>
    </g>
   </g>
  </g>
 </g>
 <defs>
  <clipPath id="p1966847a7c">
   <rect x="74.268" y="23.568" width="474.309" height="149.028"/>
  </clipPath>
  <clipPath id="p110d8355b0">
   <rect x="74.268" y="234.384" width="474.309" height="149.028"/>
  </clipPath>
 </defs>
</svg>
